<svg height="512" viewBox="0 0 128 128" width="512" xmlns="http://www.w3.org/2000/svg"><g><path d="m10.66 84.188h106.681v8.745h-106.681z" fill="#ffbe82"/><path d="m20.234 92.932h9.979v11.965h-9.979z" fill="#ffa75f"/><path d="m97.787 92.932h9.979v11.965h-9.979z" fill="#ffa75f"/><g><path d="m55.548 23.102h17.383v61.085h-17.383z" fill="#fb3d80"/><path d="m55.548 67.815h17.383v16.372h-17.383z" fill="#e21e69"/></g><g><path d="m72.931 31.177h15.085v53.01h-15.085z" fill="#ffbe40"/><path d="m72.931 69.102h15.085v6.942h-15.085z" fill="#f3963c"/></g><g><path d="m93.269 37.462h13.043v45.833h-13.043z" fill="#00b7f0" transform="matrix(.971 -.237 .237 .971 -11.479 25.408)"/><path d="m96.324 68.948h13.043v7.875h-13.043z" fill="#0094ce" transform="matrix(.971 -.237 .237 .971 -14.36 26.491)"/></g><path d="m38.165 29.102h17.383v55.085h-17.383z" fill="#ffbe40"/><g><path d="m4.462 53.268h45.677v14.414h-45.677z" fill="#00b7f0" transform="matrix(.164 -.986 .986 .164 -36.84 77.46)"/><path d="m19.598 71.136h9.448v14.414h-9.448z" fill="#0094ce" transform="matrix(.164 -.986 .986 .164 -56.954 89.452)"/></g></g><g fill="#292a2d"><path d="m49.155 34.629h-4.6a1.75 1.75 0 0 0 0 3.5h4.6a1.75 1.75 0 0 0 0-3.5z"/><path d="m49.155 40.884h-4.6a1.75 1.75 0 0 0 0 3.5h4.6a1.75 1.75 0 0 0 0-3.5z"/><path d="m102.2 50.127.134.549a1.75 1.75 0 1 0 3.4-.829l-.134-.547a1.75 1.75 0 0 0 -3.4.829z"/><path d="m44.3 91.182a1.75 1.75 0 0 0 0 3.5h1.261a1.75 1.75 0 0 0 0-3.5z"/><path d="m78.479 39.242h3.989a1.75 1.75 0 0 0 0-3.5h-3.989a1.75 1.75 0 0 0 0 3.5z"/><path d="m66.538 28.629h-4.6a1.75 1.75 0 0 0 0 3.5h4.6a1.75 1.75 0 1 0 0-3.5z"/><path d="m66.538 73.055h-4.6a1.75 1.75 0 0 0 0 3.5h4.6a1.75 1.75 0 1 0 0-3.5z"/><path d="m72.931 51.612a1.751 1.751 0 0 0 1.75-1.75v-.149a1.75 1.75 0 0 0 -3.5 0v.149a1.751 1.751 0 0 0 1.75 1.75z"/><path d="m20.629 56.661a1.8 1.8 0 0 0 .29.025 1.752 1.752 0 0 0 1.725-1.463l.215-1.29a1.75 1.75 0 0 0 -3.452-.576l-.216 1.29a1.75 1.75 0 0 0 1.438 2.014z"/><path d="m26.654 66.115a1.75 1.75 0 0 0 1.724-1.463l3.186-19.108a1.75 1.75 0 1 0 -3.452-.575l-3.186 19.108a1.749 1.749 0 0 0 1.439 2.013 1.782 1.782 0 0 0 .289.025z"/><path d="m8.91 84.188v8.744a1.75 1.75 0 0 0 1.75 1.75h7.824v10.218a1.75 1.75 0 0 0 1.75 1.75h9.979a1.75 1.75 0 0 0 1.75-1.75v-10.218h4.952a1.75 1.75 0 1 0 0-3.5h-24.505v-5.244h103.18v5.244h-63.143a1.75 1.75 0 0 0 0 3.5h43.59v10.218a1.75 1.75 0 0 0 1.75 1.75h9.979a1.75 1.75 0 0 0 1.75-1.75v-5.985a1.75 1.75 0 0 0 -3.5 0v4.232h-6.479v-8.465h17.8a1.75 1.75 0 0 0 1.75-1.75v-8.744a1.749 1.749 0 0 0 -1.75-1.75h-4.666a1.749 1.749 0 0 0 .59-1.761l-1.448-5.926v-.008l-1.867-7.643-2.764-11.315a1.751 1.751 0 0 0 -3.4.831l2.349 9.616-9.269 2.265-6.73-27.544 9.27-2.264 1.41 5.768a1.75 1.75 0 1 0 3.4-.831l-1.825-7.468a1.752 1.752 0 0 0 -2.115-1.285l-10.5 2.566v-6.262a1.751 1.751 0 0 0 -1.75-1.75h-13.341v-6.327a1.75 1.75 0 0 0 -1.75-1.75h-17.383a1.75 1.75 0 0 0 -1.748 1.75v59.338h-13.885v-7.894h9.925a1.75 1.75 0 0 0 0-3.5h-9.925v-40.191h9.925a1.75 1.75 0 0 0 0-3.5h-11.675a1.75 1.75 0 0 0 -1.75 1.75v7.964l-12.18-2.031a1.75 1.75 0 0 0 -2.014 1.439l-1.741 10.445a1.75 1.75 0 0 0 3.452.576l1.454-8.72 10.765 1.795-5.382 32.284-10.769-1.795 1.484-8.905a1.75 1.75 0 0 0 -3.452-.575l-1.767 10.627v.007l-1.555 9.316a1.744 1.744 0 0 0 .1.908h-4.15a1.749 1.749 0 0 0 -1.75 1.75zm13.074 10.494h6.479v8.465h-6.479zm87.464-14.874-9.269 2.264-.618-2.529 9.269-2.265zm-2.487-10.18 1.039 4.25-9.27 2.264-1.038-4.249zm-18.945 10.893a1.75 1.75 0 0 0 1.75-1.75v-24.571l4.11 16.82 2.789 11.413h-21.984v-4.633h11.585v.976a1.75 1.75 0 0 0 1.75 1.745zm-13.335-6.221v-3.447h11.585v3.447zm-17.381-49.447h13.881v19.307a1.75 1.75 0 0 0 3.5 0v-11.233h11.585v34.426h-11.585v-10.708a1.75 1.75 0 1 0 -3.5 0v9.42h-13.881zm0 44.712h13.881v12.873h-13.881zm-20.885-9.293v22.166h-3.695zm-16.986 14.24 10.765 1.8-.978 5.866-10.765-1.799z"/></g></svg>