<svg height="512pt" viewBox="0 -4 512.00215 512" width="512pt" xmlns="http://www.w3.org/2000/svg"><path d="m200 488.945312 85.121094-56.71875c66.789062-44.523437 106.898437-119.492187 106.878906-199.761718v-127.519532l-192-96-192 96v127.519532c-.019531 80.269531 40.089844 155.238281 106.878906 199.761718zm0 0" fill="#00c3ff"/><path d="m132.625 405.59375c-57.925781-38.550781-92.699219-103.546875-92.625-173.128906v-107.742188l160-80 160 80v107.742188c.070312 69.589844-34.707031 134.589844-92.640625 173.144531l-67.359375 44.878906zm0 0" fill="#91e8ed"/><path d="m295.800781 274.863281-63.800781-16h-64l-63.800781 16c-14.222657 3.578125-24.199219 16.367188-24.199219 31.035157v49.191406c14.433594 19.800781 32.246094 36.898437 52.625 50.503906l67.375 44.894531 67.359375-44.878906c20.386719-13.605469 38.207031-30.710937 52.640625-50.519531v-49.191406c0-14.667969-9.972656-27.457032-24.199219-31.035157zm0 0" fill="#ffea00"/><path d="m168 232.945312v32c0 17.671876 14.328125 32 32 32s32-14.328124 32-32v-32zm0 0" fill="#ffdecf"/><path d="m248 144.945312v80l-32 24h-32l-32-24v-80zm0 0" fill="#ffdecf"/><path d="m232 120.945312h-8c-5.601562-8-88-18.007812-88 40h46.113281c11.761719 0 23.367188-2.738281 33.886719-8h8l24 32v-48c0-8.835937-7.164062-16-16-16zm0 0" fill="#50575e"/><path d="m504 368.945312c0 70.691407-57.308594 128-128 128s-128-57.308593-128-128c0-70.691406 57.308594-128 128-128s128 57.308594 128 128zm0 0" fill="#ff8a80"/><path d="m444 402.945312-34-34 34-34-34-34-34 34-34-34-34 34 34 34-34 34 34 34 34-34 34 34zm0 0" fill="#fff"/><path d="m416 136.945312h96v16h-96zm0 0"/><path d="m399.847656 235.175781.152344-135.167969-200-100.007812-200 100v132.464844c-.078125 82.953125 41.382812 160.441406 110.441406 206.398437l89.558594 59.683594 68.992188-45.960937c37.292968 47.78125 101.726562 65.085937 157.941406 42.417968 56.214844-22.667968 90.621094-79.828125 84.335937-140.117187-6.285156-60.289063-51.738281-109.121094-111.421875-119.710938zm-199.847656 244.167969-80.679688-53.773438c-64.613281-43-103.402343-115.492187-103.320312-193.105468v-122.574219l184-92 184 92-.152344 123.453125c-2.609375-.152344-5.199218-.398438-7.847656-.398438-2.777344 0-5.488281.246094-8.222656.414063l.222656-113.589844-168-84.007812-168 84v112.703125c-.058594 72.253906 36.054688 139.738281 96.199219 179.777344l71.800781 47.839843 52.335938-34.871093c2.238281 4.878906 4.765624 9.625 7.566406 14.207031zm46.351562-69.367188-46.351562 30.878907-62.917969-41.925781c-3.105469-2.074219-6.113281-4.25-9.082031-6.480469v-71.503907h-16v58.078126c-8.78125-8.140626-16.8125-17.058594-24-26.636719v-46.488281c.003906-11.003907 7.484375-20.59375 18.152344-23.273438l54.253906-13.601562c1.742188 17.347656 14.527344 31.5625 31.59375 35.121093v32.800781h16v-32.800781c17.066406-3.558593 29.847656-17.773437 31.585938-35.121093l35.613281 8.945312c-32.46875 35.707031-43.460938 86.003906-28.847657 132zm-6.351562-249.03125-12-16h-13.886719l-1.6875.839844c-9.417969 4.695313-19.792969 7.144532-30.3125 7.160156h-37.449219c1.621094-10.03125 8.007813-18.652343 17.136719-23.121093 17.695313-7.871094 37.632813-9.128907 56.175781-3.535157l1.839844 2.65625h12.183594c4.417969 0 8 3.582032 8 8zm-57.886719 8c12.347657-.015624 24.542969-2.746093 35.71875-8h2.167969l20 26.664063v33.335937l-26.664062 20h-26.671876l-26.664062-20v-52zm-6.113281 84 5.335938 4h37.328124l5.335938-4v12c0 13.253907-10.746094 24-24 24s-24-10.746093-24-24zm112.640625 11.910157-48.640625-12.222657v-11.6875l16-12v-92c0-13.253906-10.746094-24-24-24h-5.320312c-11.582032-7.03125-40.398438-8.457031-60.800782-2.070312-22.886718 5.617188-38.695312 26.515625-37.878906 50.070312v8h16v60l16 12v11.648438l-57.742188 14.519531c-17.796874 4.441407-30.277343 20.441407-30.257812 38.785157v21.597656c-15.765625-29.191406-24.015625-61.851563-24-95.03125v-102.816406l152-76 152 76-.214844 105.601562c-23.273437 4.1875-45.042968 14.398438-63.144531 29.605469zm87.359375 224.089843c-66.273438 0-120-53.726562-120-120 0-66.273437 53.726562-120 120-120s120 53.726563 120 120c-.074219 66.242188-53.757812 119.925782-120 120zm0 0"/><path d="m410 289.632812-34 34-34-34-45.3125 45.3125 34 34-34 34 45.3125 45.3125 34-34 34 34 45.3125-45.3125-34-34 34-34zm22.6875 113.3125-22.6875 22.6875-34-34-34 34-22.6875-22.6875 34-34-34-34 22.6875-22.6875 34 34 34-34 22.6875 22.6875-34 34zm0 0"/><path d="m416 168.945312h64v16h-64zm0 0"/><path d="m416 200.945312h32v16h-32zm0 0"/></svg>