<svg id="_x33_0" enable-background="new 0 0 64 64" height="512" viewBox="0 0 64 64" width="512" xmlns="http://www.w3.org/2000/svg"><g><g><g><path d="m22.71 15.06c-.47-1.7-.71-2.29-.71-4.06v-1.84c0-3 3-7.16 12-7.16s12 4.16 12 7.16v1.84c0 1.77-.24 2.36-.71 4.06-.55-.65-1.37-1.06-2.29-1.06h-1v-3c0-1.66-1.34-3-3-3h-10c-1.66 0-3 1.34-3 3v3h-1c-.92 0-1.74.41-2.29 1.06z" fill="#656d78"/></g><g><path d="m26 45v4.2l-2.56-.51c-.52-1.53-1.39-2.94-2.55-4.1l-4.59-4.59.97-.97c1.12-1.12 1.88-2.55 2.18-4.09 1.27-1.46 2.85-2.66 4.64-3.49l.91 4.55h4.49.01c.03.14.06.27.1.4l-3.6 3.6 3 4h-2c-.55 0-1 .45-1 1z" fill="#4fc1e9"/></g><g><path d="m26 56v6h-11.9c2.74 0 5.21-1.11 7-2.9.88-.88 1.6-1.94 2.1-3.1z" fill="#4fc1e9"/></g><g><path d="m26 49.2 4 .8v6h-4-2.8l.8-3.9c0-1.17-.19-2.32-.56-3.41z" fill="#4fc1e9"/></g><g><path d="m48 40v10h-1c-.55 0-1 .45-1 1v3 4 4h-4v-17c0-.55-.45-1-1-1h-2l3-4-3.6-3.6c.04-.13.07-.26.1-.4h.01 4.49l1.24-6.18c6.67-1.07 11.76-6.85 11.76-13.82h6v2.77c0 9.24-5.51 17.59-14 21.23z" fill="#4fc1e9"/></g><g><path d="m29.12 33.95c.08.69.21 1.38.38 2.05h-.01-4.49l-.91-4.55c1.21-.57 2.53-.97 3.93-1.17l.98-.14v1.79c0 .68.04 1.36.12 2.02z" fill="#3bafda"/></g><g><path d="m34 44h-5l-3-4 3.6-3.6c.37 1.39.93 2.73 1.64 3.98v.01c.75 1.31 1.68 2.53 2.76 3.61z" fill="#3bafda"/></g><g><path d="m42 40-3 4h-5c1.08-1.08 2.01-2.3 2.76-3.61v-.01c.71-1.25 1.27-2.59 1.64-3.98z" fill="#3bafda"/></g><g><path d="m38.88 33.95c.08-.67.12-1.34.12-2.02v-1.93h3c.76 0 1.51-.06 2.24-.18l-1.24 6.18h-4.49-.01c.17-.67.3-1.36.38-2.05z" fill="#3bafda"/></g><g><path d="m35 36 1.76 4.38v.01c-.75 1.31-1.68 2.53-2.76 3.61-1.08-1.08-2.01-2.3-2.76-3.61v-.01l1.76-4.38z" fill="#fcd770"/></g><g><path d="m36.5 33-1.5 3h-2l-1.5-3 2.5-1z" fill="#ffc729"/></g><g><path d="m31.5 33 1.5 3-1.76 4.38c-.71-1.25-1.27-2.59-1.64-3.98-.04-.13-.07-.26-.1-.4-.17-.67-.3-1.36-.38-2.05z" fill="#b4dd7f"/></g><g><path d="m36.5 33 2.38.95c-.08.69-.21 1.38-.38 2.05-.03.14-.06.27-.1.4-.37 1.39-.93 2.73-1.64 3.98l-1.76-4.38z" fill="#b4dd7f"/></g><g><path d="m39 30v1.93c0 .68-.04 1.35-.12 2.02l-2.38-.95-2.5-1 4-2z" fill="#a0d468"/></g><g><path d="m34 32-2.5 1-2.38.95c-.08-.66-.12-1.34-.12-2.02v-1.79l1-.14z" fill="#a0d468"/></g><g><path d="m46 58h8v4h-8z" fill="#fcd770"/></g><g><path d="m54 50v4h-8v-3c0-.55.45-1 1-1h1z" fill="#fcd770"/></g><g><path d="m54 54h8v4h-8z" fill="#fcd770"/></g><g><path d="m54 46h8v4h-8z" fill="#fcd770"/></g><g><path d="m46 54h8v4h-8z" fill="#ffc729"/></g><g><path d="m62 58v3c0 .55-.45 1-1 1h-7v-4z" fill="#ffc729"/></g><g><path d="m54 50h8v4h-8z" fill="#ffc729"/></g><g><path d="m62 43v3h-8v-3c0-.55.45-1 1-1h6c.55 0 1 .45 1 1z" fill="#ffc729"/></g><g><path d="m42 45v17h-16v-6h4 5c1.66 0 3-1.34 3-3 0-.83-.34-1.58-.88-2.12s-1.29-.88-2.12-.88h-1v-.15c0-1.02-.83-1.85-1.85-1.85-.71 0-1.35.4-1.66 1.02l-.49.98-4-.8v-4.2c0-.55.45-1 1-1h2 5 5 2c.55 0 1 .45 1 1z" fill="#e6e9ed"/></g><g><path d="m37.12 50.88c.54.54.88 1.29.88 2.12 0 1.66-1.34 3-3 3h-5v-6l.49-.98c.31-.62.95-1.02 1.66-1.02 1.02 0 1.85.83 1.85 1.85v.15h1c.83 0 1.58.34 2.12.88z" fill="#f0d0b4"/></g><g><path d="m62 11v5h-6l-.98-.49c-.62-.31-1.02-.95-1.02-1.66 0-1.02.83-1.85 1.85-1.85h.15v-1c0-1.66 1.34-3 3-3 .83 0 1.58.34 2.12.88s.88 1.29.88 2.12z" fill="#f0d0b4"/></g><g><path d="m45.29 15.06c.44.52.71 1.2.71 1.94 0 .83-.34 1.58-.88 2.12s-1.29.88-2.12.88h-1v-6h1c.92 0 1.74.41 2.29 1.06z" fill="#f0d0b4"/></g><g><path d="m36.98 25.92 1.02 4.08-4 2-4-2 1.02-4.08c.32.05.64.08.98.08h4c.34 0 .66-.03.98-.08z" fill="#f0d0b4"/></g><g><path d="m42 20c0 2.98-2.17 5.45-5.02 5.92-.32.05-.64.08-.98.08h-4c-.34 0-.66-.03-.98-.08-2.85-.47-5.02-2.94-5.02-5.92v-6-3c0-1.66 1.34-3 3-3h10c1.66 0 3 1.34 3 3v3z" fill="#f0d0b4"/></g><g><path d="m26 14v6h-1c-.83 0-1.58-.34-2.12-.88s-.88-1.29-.88-2.12c0-.74.27-1.42.71-1.94.55-.65 1.37-1.06 2.29-1.06z" fill="#f0d0b4"/></g><g><path d="m30 18h8c0 2.21-1.79 4-4 4-1.1 0-2.1-.45-2.83-1.17-.72-.73-1.17-1.73-1.17-2.83z" fill="#ff826e"/></g><g><path d="m13.03 33.4c.11 2.35.86 4.64 2.17 6.6h-5.5l-2.2-4.4c1.41-1.41 3.32-2.2 5.31-2.2h.19z" fill="#cf9e76"/></g><g><path d="m19.45 34.94c-.3 1.54-1.06 2.97-2.18 4.09l-.97.97h-1.1c-1.31-1.96-2.06-4.25-2.17-6.6-.02-.22-.03-.45-.03-.67v-1.53c5.5 0 6.6 2.2 6.6 2.2 0 .52-.05 1.04-.15 1.54z" fill="#d3a06c"/></g><g><path d="m23.44 48.69c.37 1.09.56 2.24.56 3.41l-.8 3.9c-.5 1.16-1.22 2.22-2.1 3.1-1.79 1.79-4.26 2.9-7 2.9h-1.1-1.1c-5.47 0-9.9-4.43-9.9-9.9 0-1.41.28-2.79.81-4.07.53-1.27 1.31-2.45 2.3-3.44l4.59-4.59h5.5 1.1l4.59 4.59c1.16 1.16 2.03 2.57 2.55 4.1z" fill="#cf9e76"/></g></g><g><circle cx="30" cy="14" r="1"/><circle cx="38" cy="14" r="1"/><path d="m39 18v-1h-10v1c0 2.757 2.243 5 5 5s5-2.243 5-5zm-7.829 1h5.657c-.413 1.164-1.525 2-2.829 2s-2.415-.836-2.828-2z"/><path d="m33.553 11.895.895-1.789c-.893-.447-1.448-1.344-1.448-2.342v-.764h-2v.764c0 1.76.978 3.343 2.553 4.131z"/><path d="m37.553 11.895.895-1.789c-.893-.447-1.448-1.344-1.448-2.342v-.764h-2v.764c0 1.76.978 3.343 2.553 4.131z"/><path d="m49 40.632c8.522-3.935 14-12.435 14-21.864v-7.768c0-2.206-1.794-4-4-4s-4 1.794-4 4v.13c-1.158.364-2 1.447-2 2.724 0 1.087.604 2.066 1.578 2.553l.408.204c-.32 6.886-6.023 12.389-12.986 12.389h-3.219l-.589-2.356c2.482-.821 4.347-2.994 4.729-5.644h.079c2.206 0 4-1.794 4-4 0-.781-.234-1.505-.622-2.122l.038-.135c.376-1.327.584-2.058.584-3.743v-1.838c0-3.032-2.738-8.162-13-8.162s-13 5.13-13 8.162v1.838c0 1.685.208 2.416.584 3.744l.038.135c-.388.616-.622 1.34-.622 2.121 0 2.206 1.794 4 4 4h.08c.382 2.65 2.247 4.823 4.729 5.644l-.615 2.462-1.315.188c-2.806.401-5.413 1.588-7.55 3.395-.508-.711-2.28-2.489-7.329-2.489h-1v2.238c-1.967.185-3.792 1.04-5.207 2.455l-.51.51 2.2 4.4-4.079 4.079c-2.195 2.195-3.404 5.114-3.404 8.218 0 6.01 4.89 10.9 10.9 10.9h49.1c1.103 0 2-.897 2-2v-18c0-1.103-.897-2-2-2h-6c-1.103 0-2 .897-2 2v6h-4zm6.854-27.632h1.146v-2c0-1.103.897-2 2-2s2 .897 2 2v4h-4.764l-.763-.381c-.292-.146-.473-.439-.473-.765 0-.471.383-.854.854-.854zm1.095 4h4.051v1.769c0 8.335-4.663 15.887-12 19.653v-1.422h-2v12c-1.103 0-2 .897-2 2v10h-2v-16c0-1.103-.897-2-2-2l2.32-3.094-2.906-2.906h3.406l1.264-6.322c6.478-1.36 11.416-6.913 11.865-13.678zm4.051 38v2h-6v-2zm-6-2v-2h6v2zm-2 4h-6v-2h6zm-28.199-7.02 4.199.84v4.18h-4.404c.256-.925.404-1.895.404-2.9 0-.719-.072-1.427-.199-2.12zm10.199 1.02c1.103 0 2 .897 2 2s-.897 2-2 2h-4v-4.764l.381-.763c.146-.292.439-.473.765-.473.471 0 .854.383.854.854v1.146zm0 6c2.206 0 4-1.794 4-4s-1.794-4-4-4h-.13c-.364-1.158-1.447-2-2.724-2-1.087 0-2.066.604-2.553 1.578l-.146.292-2.447-.49v-3.38h14v16h-14v-4zm-7.68-16.906 1.835-1.835c.634 1.697 1.522 3.293 2.651 4.742h-2.306zm11.18 2.906h-2.306c1.129-1.449 2.016-3.044 2.651-4.742l1.835 1.835zm-4.823-6h.646l1.316 3.29c-.478.781-1.024 1.524-1.639 2.223-.615-.699-1.161-1.442-1.639-2.223zm3.167.917-.749-1.871.888-1.775.783.313c-.19 1.147-.493 2.264-.922 3.333zm-1.724-4.392-.738 1.475h-.764l-.738-1.475 1.12-.448zm-4.103.745.888 1.775-.749 1.871c-.429-1.069-.732-2.186-.922-3.333zm6.983-2.341c0 .196-.021.388-.028.583l-1.533-.613 1.561-.781zm-7.972.583c-.007-.195-.028-.387-.028-.583v-.811l1.561.781zm12.962-1.562-.81 4.05h-2.456c.172-1.006.276-2.03.276-3.071v-.929h2c.334 0 .661-.029.99-.05zm.01-11.95v-4c1.103 0 2 .897 2 2s-.897 2-2 2zm-20-2c0-1.103.897-2 2-2v4c-1.103 0-2-.897-2-2zm4 3v-9c0-1.103.897-2 2-2v-2c-2.206 0-4 1.794-4 4v2c-.615 0-1.191.151-1.712.4-.196-.753-.288-1.334-.288-2.4v-1.838c0-2.288 2.317-6.162 11-6.162s11 3.874 11 6.162v1.838c0 1.066-.092 1.647-.288 2.4-.521-.249-1.097-.4-1.712-.4v-2c0-2.206-1.794-4-4-4v2c1.103 0 2 .897 2 2v9c0 2.757-2.243 5-5 5h-4c-2.757 0-5-2.243-5-5zm5 7h4c.073 0 .144-.009.216-.011l.619 2.475-2.835 1.418-2.835-1.418.619-2.475c.072.002.143.011.216.011zm-4 4.303v.626c0 1.041.104 2.065.276 3.071h-2.456l-.588-2.939c.887-.35 1.812-.609 2.768-.758zm-4.626 1.667.806 4.03h3.406l-2.906 2.906 2.32 3.094c-1.103 0-2 .897-2 2v2.98l-.819-.164c-.577-1.456-1.444-2.794-2.585-3.935l-3.882-3.881.26-.259c1.201-1.201 2.011-2.686 2.385-4.301.883-.978 1.899-1.808 3.015-2.47zm-9.374-.742c3.075.174 4.255 1.13 4.593 1.486-.077 1.743-.792 3.371-2.034 4.612l-.673.674h-.137c-1.146-1.891-1.749-4.046-1.749-6.266zm-1.897 2.21c.192 1.589.653 3.129 1.366 4.562h-3.15l-1.584-3.167c.969-.781 2.13-1.262 3.368-1.395zm-.203 26.562c-4.907 0-8.9-3.993-8.9-8.9 0-2.57 1.001-4.987 2.818-6.804l4.296-4.296h5.771l4.296 4.296c1.818 1.817 2.819 4.234 2.819 6.804 0 4.907-3.993 8.9-8.9 8.9zm11.923-4h1.177v4h-4.628c1.454-1.028 2.642-2.401 3.451-4zm23.177 4v-2h6v2zm8 0v-2h6v2zm6-18v2h-6v-2zm-6 4h6v2h-6zm-2 6h-6v-2h6z"/><path d="m14 47.184v-2.184h-2v2h-2v3c0 1.654 1.346 3 3 3 .551 0 1 .449 1 1v1h-1c-.551 0-1-.449-1-1v-1h-2v1c0 1.302.839 2.402 2 2.816v2.184h2v-2h2v-3c0-1.654-1.346-3-3-3-.551 0-1-.449-1-1v-1h1c.551 0 1 .449 1 1v1h2v-1c0-1.302-.839-2.402-2-2.816z"/></g></g></svg>