<svg id="_x33_0" enable-background="new 0 0 64 64" height="512" viewBox="0 0 64 64" width="512" xmlns="http://www.w3.org/2000/svg"><g><g><g><path d="m56 48-.87 12.14c-.07 1.05-.94 1.86-1.99 1.86h-13.13c2.2 0 3.99-1.79 3.99-4.02 0-1.1-.44-2.08-1.15-2.8-.72-.72-1.71-1.17-2.8-1.18h-.05l-.18-.37c-.5-1-1.53-1.63-2.65-1.63-.3 0-.59.05-.87.14l-.3-4.14z" fill="#d3a06c"/></g><g><path d="m58 45v2c0 .55-.45 1-1 1h-1-20-1c-.55 0-1-.45-1-1v-2c0-.55.45-1 1-1h6.22 4.78 4.78 6.22c.55 0 1 .45 1 1z" fill="#b27946"/></g><g><path d="m46 44c0-4.59 3.37-8.48 7.92-9.13l6.08-.87v.78c0 5.09-4.13 9.22-9.22 9.22z" fill="#b4dd7f"/></g><g><path d="m38.08 34.87c4.55.65 7.92 4.54 7.92 9.13h-4.78c-5.09 0-9.22-4.13-9.22-9.22v-.78z" fill="#b4dd7f"/></g><g><circle cx="46" cy="20" fill="#fcd770" r="10"/></g><g><path d="m25.09 4.84c.09-.07.18-.12.27-.17.82-.43 1.74-.67 2.69-.67 1.09 0 2.08.44 2.79 1.16.72.71 1.16 1.7 1.16 2.79 0 1.12-.45 2.13-1.18 2.87-.6.59-1.37.99-2.23 1.13-.21.03-.42.05-.64.05-.62 0-1.24-.15-1.8-.43l-1.15-.57c-1.25 1.87-3.35 3-5.61 3h-.39c-.83 0-1.58-.34-2.12-.88-.24-.24-.43-.51-.58-.82-1.4.76-2.3 2.23-2.3 3.86v.84h-.67c-.92 0-1.75.37-2.35.98-.61.6-.98 1.43-.98 2.35 0 1.05.49 2.04 1.33 2.67l2.67 2v7c-3.31 0-6-2.69-6-6 0-.12.01-.23.02-.34-2.34-.82-4.02-3.04-4.02-5.66 0-2.09 1.07-3.93 2.69-5-1.62-1.07-2.69-2.91-2.69-5 0-3.31 2.69-6 6-6 1.73 0 3.29.74 4.38 1.91.85-2.28 3.04-3.91 5.62-3.91 2.15 0 4.03 1.13 5.09 2.83z" fill="#656d78"/></g><g><path d="m42.85 55.18c.71.72 1.15 1.7 1.15 2.8 0 2.23-1.79 4.02-3.99 4.02h-6.01v-8l1.17-1.17c.32-.32.71-.55 1.13-.69.28-.09.57-.14.87-.14 1.12 0 2.15.63 2.65 1.63l.18.37h.05c1.09.01 2.08.46 2.8 1.18z" fill="#f0d0b4"/></g><g><path d="m28 54h6v8h-12c-7.73 0-14-6.27-14-14v-6c0-1.66.67-3.16 1.76-4.24 1.08-1.09 2.58-1.76 4.24-1.76v.01l-1 4.99h4v3l11 3z" fill="#fcd770"/></g><g><path d="m28 45.71v1.29l-6-4.71v-6.29c3.68 1.84 6 5.6 6 9.71z" fill="#ffc729"/></g><g><path d="m22 42.29 6 4.71-11-3v-3h-4l1-4.99v-.01z" fill="#ffc729"/></g><g><path d="m22 31.91v4.09 6.29l-8-6.29v-4-7l-2.67-2c-.84-.63-1.33-1.62-1.33-2.67 0-.92.37-1.75.98-2.35.6-.61 1.43-.98 2.35-.98h.67v-.84c0-1.63.9-3.1 2.3-3.86.15.31.34.58.58.82.54.54 1.29.88 2.12.88h.39c2.26 0 4.36-1.13 5.61-3l1.15.57c.56.28 1.18.43 1.8.43.22 0 .43-.02.64-.05 1.11 1.89 3.41 6.26 3.41 10.05l-2 1v2h-6c0 2.31 1.67 4.28 3.95 4.66l.28.05c-1.25 1.41-3.08 2.29-5.11 2.29-.38 0-.75-.03-1.12-.09z" fill="#f0d0b4"/></g><g><path d="m30 25v.12c0 1.77-.67 3.38-1.77 4.59l-.28-.05c-2.28-.38-3.95-2.35-3.95-4.66z" fill="#ff826e"/></g></g><g><path d="m26 18c-.551 0-1-.449-1-1h-2c0 1.654 1.346 3 3 3s3-1.346 3-3h-2c0 .551-.449 1-1 1z"/><path d="m47 27v-2h2v-3c0-1.654-1.346-3-3-3-.551 0-1-.449-1-1v-1h1c.551 0 1 .449 1 1v1h2v-1c0-1.302-.839-2.402-2-2.816v-2.184h-2v2h-2v3c0 1.654 1.346 3 3 3 .551 0 1 .449 1 1v1h-1c-.551 0-1-.449-1-1v-1h-2v1c0 1.302.839 2.402 2 2.816v2.184z"/><path d="m61 34.78v-1.933l-7.226 1.032c-2.787.398-5.191 1.927-6.774 4.076v-7.006c5.598-.507 10-5.221 10-10.949 0-6.065-4.935-11-11-11s-11 4.935-11 11c0 5.728 4.402 10.442 10 10.949v7.006c-1.584-2.149-3.987-3.677-6.774-4.076l-7.226-1.032v1.933c0 3.371 1.648 6.358 4.173 8.22h-.173c-1.103 0-2 .897-2 2v2c0 1.103.897 2 2 2h.069l.181 2.534c-.282.165-.552.353-.789.59l-.876.876h-4.585v-7.292c0-4.308-2.285-8.197-6-10.302v-2.416c.039.001.078.01.117.01 4.347 0 7.883-3.536 7.883-7.883v-1.499l2-1v-.618c0-3.378-1.639-7.069-2.943-9.474 1.732-.8 2.943-2.542 2.943-4.571 0-2.732-2.223-4.955-4.955-4.955-.924 0-1.817.199-2.639.552-1.322-1.612-3.284-2.552-5.406-2.552-2.434 0-4.677 1.286-5.938 3.307-1.179-.841-2.603-1.307-4.062-1.307-3.86 0-7 3.14-7 7 0 1.903.769 3.695 2.103 5-1.334 1.305-2.103 3.097-2.103 5 0 2.719 1.583 5.175 4.007 6.322.154 3.374 2.71 6.125 5.993 6.598v2.159c-3.387.489-6 3.402-6 6.921v6c0 8.271 6.729 15 15 15h31.138c1.566 0 2.881-1.224 2.993-2.786l.8-11.214h.069c1.103 0 2-.897 2-2v-2c0-1.103-.897-2-2-2h-.173c2.525-1.863 4.173-4.849 4.173-8.22zm-24-14.78c0-4.962 4.038-9 9-9s9 4.038 9 9-4.038 9-9 9-9-4.038-9-9zm-3.992 15.154 4.934.705c2.974.425 5.404 2.449 6.471 5.117-1.185-.953-2.836-2.022-5.041-2.905l-.743 1.857c2.371.948 4.023 2.135 5.076 3.071h-2.485c-4.407.001-8.015-3.485-8.212-7.845zm-18.347 2.637 2.812 2.209h-3.253zm3.339 2.623 5.501 4.322-5.501-1.5zm8.944 4.485-3.944-3.099v-4.001c2.279 1.679 3.712 4.244 3.944 7.1zm.898-16.292c-1.329-.323-2.353-1.326-2.708-2.607h3.792c-.146.966-.526 1.854-1.084 2.607zm3.137-7.214-1.979.989v1.618h-6v1c0 2.235 1.284 4.177 3.201 5.117-.898.556-1.952.883-3.084.883-.634 0-1.26-.102-1.86-.302l-1.94-.647-.633 1.897 1.94.647c.123.041.251.058.376.093v7.54l-6-4.714v-11.014l-3.066-2.3c-.585-.438-.934-1.136-.934-1.867 0-1.286 1.047-2.333 2.333-2.333h1.667v-1.838c0-.947.395-1.833 1.066-2.464.732.795 1.771 1.302 2.934 1.302h.395c2.293 0 4.441-1.008 5.902-2.734l.402.201c.696.348 1.476.533 2.256.533.026 0 .049-.007.075-.008 1.017 1.809 2.74 5.28 2.949 8.401zm-21.979 4.607c0-.062.005-.122.009-.182l.052-.854-.712-.25c-2.003-.702-3.349-2.596-3.349-4.714 0-1.678.837-3.236 2.239-4.167l1.255-.833-1.254-.833c-1.403-.931-2.24-2.489-2.24-4.167 0-2.757 2.243-5 5-5 1.396 0 2.692.565 3.651 1.593l1.104 1.182.564-1.516c.725-1.949 2.607-3.259 4.681-3.259 1.425 0 2.742.601 3.681 1.628-.453.391-.861.839-1.202 1.351l-.311.466 1.664 1.109.311-.466c.872-1.307 2.33-2.088 3.902-2.088 1.629 0 2.955 1.326 2.955 2.955 0 1.679-1.366 3.045-3.045 3.045-.471 0-.941-.111-1.362-.322l-1.936-.967-.49.734c-1.065 1.6-2.85 2.555-4.772 2.555h-.395c-1.103 0-2-.897-2-2s.897-2 2-2v-2c-2.206 0-4 1.794-4 4 0 .309.043.606.109.895-1.276.98-2.063 2.483-2.107 4.117-2.235.171-4.002 2.044-4.002 4.321 0 1.356.648 2.653 1.733 3.466l2.267 1.701v5.399c-2.279-.465-4-2.485-4-4.899zm0 22v-6c0-2.325 1.596-4.281 3.748-4.839l-.968 4.839h4.22v2.764l11 3v5.236h-5c-3.86 0-7-3.14-7-7v-1h-2v1c0 4.962 4.038 9 9 9h11v6h-11c-7.168 0-13-5.832-13-13zm26 13v-6.586l.875-.876c.348-.347.809-.538 1.3-.538.745 0 1.414.414 1.747 1.08l.509.916.613.004c1.63.013 2.956 1.35 2.956 2.98 0 1.665-1.343 3.02-2.995 3.02zm19.135-.929c-.037.521-.475.929-.997.929h-9.169c.638-.843 1.031-1.882 1.031-3.02 0-2.516-1.89-4.613-4.364-4.937-.69-1.252-1.983-2.025-3.419-2.041l-.143-2.002h17.852zm2.865-15.071.001 2h-22.001v-2zm-8.705-2c1.053-.936 2.706-2.123 5.076-3.071l-.743-1.857c-2.206.882-3.856 1.951-5.041 2.904 1.067-2.667 3.496-4.692 6.471-5.117l4.934-.705c-.197 4.36-3.805 7.846-8.212 7.846z"/></g></g></svg>