<svg id="_x33_0" enable-background="new 0 0 64 64" height="512" viewBox="0 0 64 64" width="512" xmlns="http://www.w3.org/2000/svg"><g><g><g><path d="m27 57 3.06-1.83.94 2.83-2 4h-12c.79-2.76 2.4-5.17 4.58-6.93 1.27-1.03 2.73-1.84 4.33-2.37l.22-.07z" fill="#ff826e"/></g><g><path d="m33.94 55.17 3.06 1.83.87-4.37.22.07c1.6.53 3.06 1.34 4.33 2.37 2.18 1.76 3.79 4.17 4.58 6.93h-12l-2-4z" fill="#ff826e"/></g><g><path d="m32 54-1.94 1.17-3.06 1.83-.87-4.37 1.87-.63z" fill="#fc6e51"/></g><g><path d="m36 52 1.87.63-.87 4.37-3.06-1.83-1.94-1.17z" fill="#fc6e51"/></g><g><path d="m33 58 2 4h-6l2-4z" fill="#e6e9ed"/></g><g><path d="m33.94 55.17-.94 2.83h-2l-.94-2.83 1.94-1.17z" fill="#ccd1d9"/></g><g><path d="m11.41 53.22c.37.5.59 1.11.59 1.78 0 1.66-1.34 3-3 3s-3-1.34-3-3 1.34-3 3-3c.99 0 1.87.48 2.41 1.22z" fill="#fcd770"/></g><g><circle cx="4" cy="38" fill="#fcd770" r="2"/></g><g><path d="m11 12c2.76 0 5 2.24 5 5 0 1.38-.56 2.63-1.46 3.54-.91.9-2.16 1.46-3.54 1.46-2.76 0-5-2.24-5-5s2.24-5 5-5z" fill="#fcd770"/></g><g><circle cx="60" cy="38" fill="#fcd770" r="2"/></g><g><path d="m55 52c1.66 0 3 1.34 3 3s-1.34 3-3 3-3-1.34-3-3c0-.67.22-1.28.59-1.78.54-.74 1.42-1.22 2.41-1.22z" fill="#fcd770"/></g><g><path d="m53 12c2.76 0 5 2.24 5 5s-2.24 5-5 5c-1.38 0-2.63-.56-3.54-1.46-.9-.91-1.46-2.16-1.46-3.54 0-2.76 2.24-5 5-5z" fill="#fcd770"/></g><g><path d="m43.21 38.97c-.55-.6-1.34-.97-2.21-.97h-1v-.68c0-.69-.22-1.34-.61-1.88s-.94-.96-1.6-1.18c-1.23-.41-2.24-1.22-2.9-2.26h-7.89c-1.66 0-3 1.34-3 3v3h-1c-.87 0-1.66.37-2.21.97l-.67-3.36c-.08-.4-.12-.82-.12-1.23 0-1.06.26-2.08.74-2.98.49-.9 1.19-1.68 2.07-2.27l.19-.13c.53-1.32 1.39-2.45 2.46-3.3 1.08-.84 2.36-1.4 3.74-1.61h.01c.43 1.12 1.52 1.91 2.79 1.91.83 0 1.58-.34 2.12-.88.3-.3.54-.67.69-1.09h.01c5.14.42 9.18 4.73 9.18 9.98 0 .66-.07 1.32-.19 1.96z" fill="#b27946"/></g><g><path d="m35 22v1c0 .36-.06.71-.19 1.03-.15.42-.39.79-.69 1.09-.54.54-1.29.88-2.12.88-1.27 0-2.36-.79-2.79-1.91-.14-.34-.21-.7-.21-1.09v-1h3z" fill="#ccd1d9"/></g><g><path d="m32 22h-3c0-1.36-.62-2.45-1.29-3.54-.81-1.32-1.71-2.65-1.71-4.46 0-3.57 3.12-6.41 6.78-5.95 2.04.26 3.78 1.64 4.65 3.5 1.29 2.75.06 4.95-1.07 6.93-.7 1.23-1.36 2.38-1.36 3.52z" fill="#ffeaa7"/></g><g><path d="m41 38c.87 0 1.66.37 2.21.97.49.53.79 1.24.79 2.03 0 .83-.34 1.58-.88 2.12s-1.29.88-2.12.88h-1v-6z" fill="#f0d0b4"/></g><g><path d="m34 50c.44 0 .88-.05 1.29-.14l.71 2.14-4 2-4-2 .71-2.14c.41.09.85.14 1.29.14z" fill="#f0d0b4"/></g><g><path d="m40 38v6c0 2.87-2.02 5.27-4.71 5.86-.41.09-.85.14-1.29.14h-4c-.44 0-.88-.05-1.29-.14-2.69-.59-4.71-2.99-4.71-5.86v-6-3c0-1.66 1.34-3 3-3h7.89c.66 1.04 1.67 1.85 2.9 2.26.66.22 1.21.64 1.6 1.18s.61 1.19.61 1.88z" fill="#f0d0b4"/></g><g><path d="m24 38v6h-1c-.83 0-1.58-.34-2.12-.88s-.88-1.29-.88-2.12c0-.79.3-1.5.79-2.03.55-.6 1.34-.97 2.21-.97z" fill="#f0d0b4"/></g></g><g><circle cx="28" cy="38" r="1"/><circle cx="36" cy="38" r="1"/><path d="m29 45v2h4c2.206 0 4-1.794 4-4h-2c0 1.103-.897 2-2 2z"/><path d="m32.707 34.293c-1.101-1.101-1.707-2.565-1.707-4.122v-1.171h-2v1.171c0 2.091.814 4.057 2.293 5.536z"/><path d="m31.025 1h2v4h-2z"/><path d="m25 2.697h2v3.606h-2z" transform="matrix(.832 -.555 .555 .832 1.871 15.178)"/><path d="m20 5.172h2v5.657h-2z" transform="matrix(.707 -.707 .707 .707 .494 17.192)"/><path d="m36.197 3.5h3.606v2h-3.606z" transform="matrix(.555 -.832 .832 .555 13.177 33.622)"/><path d="m40.172 7h5.657v2h-5.657z" transform="matrix(.707 -.707 .707 .707 6.938 32.749)"/><path d="m60 35c-1.302 0-2.402.839-2.816 2h-4.228c-.241-4.953-2.243-9.554-5.449-13.093l2.022-2.022c.981.699 2.177 1.115 3.471 1.115 3.309 0 6-2.691 6-6s-2.691-6-6-6-6 2.691-6 6c0 1.294.416 2.49 1.115 3.471l-2.013 2.014c-2.321-2.123-5.124-3.732-8.245-4.64.967-1.854 1.729-4.066.482-6.72-1.043-2.218-3.124-3.776-5.432-4.067-2.006-.252-4.027.362-5.535 1.69-1.508 1.329-2.372 3.243-2.372 5.252 0 1.539.547 2.763 1.165 3.837-3.131.907-5.942 2.52-8.268 4.647l-2.012-2.012c.699-.982 1.115-2.178 1.115-3.472 0-3.309-2.691-6-6-6s-6 2.691-6 6 2.691 6 6 6c1.294 0 2.49-.416 3.471-1.115l2.019 2.02c-3.205 3.538-5.206 8.137-5.446 13.095h-4.228c-.414-1.161-1.514-2-2.816-2-1.654 0-3 1.346-3 3s1.346 3 3 3c1.302 0 2.402-.839 2.816-2h4.216c.181 3.884 1.405 7.549 3.496 10.671l-3.024 2.235c-.688-.558-1.552-.906-2.504-.906-2.206 0-4 1.794-4 4s1.794 4 4 4 4-1.794 4-4c0-.529-.108-1.032-.296-1.494l3.015-2.229c1.209 1.476 2.626 2.802 4.237 3.927-1.822 1.775-3.198 4-3.918 6.521l-.364 1.275h32.652l-.364-1.275c-.72-2.52-2.096-4.746-3.918-6.521 1.611-1.125 3.027-2.451 4.237-3.927l3.015 2.229c-.188.462-.296.965-.296 1.494 0 2.206 1.794 4 4 4s4-1.794 4-4-1.794-4-4-4c-.952 0-1.816.348-2.504.906l-3.024-2.235c2.09-3.122 3.315-6.786 3.496-10.671h4.216c.414 1.161 1.514 2 2.816 2 1.654 0 3-1.346 3-3s-1.346-3-3-3zm-51 22c-1.103 0-2-.897-2-2s.897-2 2-2 2 .897 2 2-.897 2-2 2zm46-4c1.103 0 2 .897 2 2s-.897 2-2 2-2-.897-2-2 .897-2 2-2zm-2-40c2.206 0 4 1.794 4 4s-1.794 4-4 4-4-1.794-4-4 1.794-4 4-4zm-24.305-2.752c.926-.816 2.077-1.248 3.298-1.248.22 0 .441.014.664.042 1.634.206 3.117 1.331 3.871 2.934 1.082 2.302.041 4.127-1.062 6.06-.569.999-1.114 1.956-1.347 2.965h-1.119v-4.184c1.161-.414 2-1.514 2-2.816v-1h-2v1c0 .551-.448 1-1 1s-1-.449-1-1v-1h-2v1c0 1.302.839 2.402 2 2.816v4.183h-1.099c-.233-1.267-.869-2.309-1.495-3.319-.723-1.166-1.406-2.268-1.406-3.681 0-1.435.618-2.802 1.695-3.752zm12.305 28.752c1.103 0 2 .897 2 2s-.897 2-2 2zm1.825-3.225-.306 1.528c-.469-.193-.981-.303-1.519-.303h-.026c-.13-1.684-1.24-3.142-2.863-3.684-1.861-.62-3.111-2.355-3.111-4.316h-2c0 2.823 1.8 5.32 4.479 6.214.91.303 1.521 1.152 1.521 2.111v6.675c0 2.757-2.243 5-5 5h-4c-2.757 0-5-2.243-5-5v-9c0-1.103.897-2 2-2v-2c-2.206 0-4 1.794-4 4v2c-.538 0-1.051.11-1.52.304l-.378-1.887c-.068-.343-.102-.693-.102-1.042 0-1.779.884-3.43 2.363-4.416l.45-.3.115-.289c.827-2.069 2.614-3.604 4.749-4.148.72 1.072 1.94 1.778 3.323 1.778 1.428 0 2.673-.757 3.381-1.885 4.32.674 7.619 4.457 7.619 8.894 0 .591-.059 1.185-.175 1.766zm-6.104 17.52-.424 2.118-2.221-1.333 2-1zm-8.797-.215 2 1-2.221 1.333-.424-2.118zm3.694 5.92h.763l1 2h-2.764zm.661-2h-.558l-.463-1.389.742-.445.742.445zm2.498-5.506-2.777 1.388-2.777-1.388.175-.524c.198.017.399.03.602.03h4c.203 0 .404-.013.603-.031zm-11.777-8.494c-1.103 0-2-.897-2-2s.897-2 2-2zm11-20c0 1.103-.897 2-2 2s-2-.897-2-2zm-23-2c-2.206 0-4-1.794-4-4s1.794-4 4-4 4 1.794 4 4-1.794 4-4 4zm-7 18c-.552 0-1-.449-1-1s.448-1 1-1 1 .449 1 1-.448 1-1 1zm9-1c0-8.627 5.95-16.234 14.237-18.38.441.775.763 1.522.763 2.38v1c0 .11.024.213.032.32-2.581.706-4.745 2.547-5.837 5.015-2.002 1.363-3.195 3.615-3.195 6.04 0 .479.048.961.142 1.433l.582 2.908c-.454.649-.724 1.434-.724 2.284 0 2.206 1.794 4 4 4h.08c.363 2.518 2.065 4.603 4.363 5.51l-.233.7-1.62.54c-1.471.49-2.818 1.221-4.037 2.112-5.364-3.534-8.553-9.41-8.553-15.862zm12.376 15.981.921 4.606 3.203-1.922.419 1.258-1.537 3.077h-9.982c1.282-3.18 3.798-5.702 6.976-7.019zm20.225 7.019h-9.982l-1.538-3.077.419-1.258 3.203 1.922.921-4.606c3.178 1.317 5.694 3.839 6.977 7.019zm-3.154-7.139c-1.219-.891-2.566-1.622-4.037-2.112l-1.62-.54-.233-.7c2.298-.906 4.001-2.992 4.363-5.51h.08c2.206 0 4-1.794 4-4 0-.85-.271-1.635-.724-2.283l.51-2.549c.142-.71.214-1.437.214-2.158 0-5.322-3.881-9.88-9.018-10.826.002-.062.018-.121.018-.183v-1c0-.696.385-1.501.857-2.355 8.234 2.179 14.143 9.772 14.143 18.355 0 6.452-3.189 12.328-8.553 15.861zm17.553-14.861c-.552 0-1-.449-1-1s.448-1 1-1 1 .449 1 1-.448 1-1 1z"/></g></g></svg>