<svg id="_x33_0" enable-background="new 0 0 64 64" height="512" viewBox="0 0 64 64" width="512" xmlns="http://www.w3.org/2000/svg"><g><g><g><path d="m44 10v10h-4-1c-.55 0-1-.45-1-1v-9z" fill="#d3a06c"/></g><g><path d="m54 10v9c0 .55-.45 1-1 1h-5v-10z" fill="#d3a06c"/></g><g><path d="m44 6v4h-6v-3c0-.17.04-.33.12-.47.17-.32.5-.53.88-.53z" fill="#b27946"/></g><g><path d="m54 7v3h-6v-4h5c.55 0 1 .45 1 1z" fill="#b27946"/></g><g><path d="m44 10h4v10h-4z" fill="#ffeaa7"/></g><g><path d="m48 6v4h-4v-4h2z" fill="#ffeaa7"/></g><g><path d="m24 37-.67-2h5.67c.96-.96 1.71-2.09 2.22-3.32.51-1.24.78-2.56.78-3.92v-4.76c0-6.08-4.92-11-11-11-3.04 0-5.79 1.23-7.78 3.22s-3.22 4.74-3.22 7.78v4.76c0 2.71 1.08 5.32 3 7.24h5.67l-.67 2c-.94.12-1.87.32-2.76.6-3.47 1.08-6.48 3.33-8.51 6.39-3.08-6.55-4.73-13.77-4.73-21.2v-16.79l.06.02c1.95.65 3.99.98 6.03.98 2.23 0 4.43-.39 6.5-1.14 2.07-.74 4-1.85 5.71-3.28l.7-.58.7.58c3.42 2.86 7.74 4.42 12.21 4.42 1.41 0 2.83-.16 4.21-.47-.08.14-.12.3-.12.47v3 9c0 .55.45 1 1 1h1v2.79c0 7.43-1.65 14.65-4.72 21.21-2.03-3.06-5.04-5.32-8.52-6.4-.89-.28-1.82-.48-2.76-.6z" fill="#aab2bd"/></g><g><circle cx="48" cy="54" fill="#e6e9ed" r="6"/></g><g><circle cx="52" cy="34" fill="#fcd770" r="10"/></g><g><path d="m18.25 41.38 1.75 2.62-4.16 13.3c-3.61-3.78-6.59-8.08-8.84-12.72-.09-.19-.19-.39-.27-.59 2.03-3.06 5.04-5.31 8.51-6.39l1.76 4.4z" fill="#ff826e"/></g><g><path d="m24.53 50.67-.54-.31-1.99-6.36 1.75-2.63 1.25.63 1.76-4.4c3.48 1.08 6.49 3.34 8.52 6.4-1.08 2.3-2.34 4.52-3.76 6.64l-.05.03c-.31.18-.68.18-.99 0 0 0 0 0-.01-.01-.3-.17-.49-.5-.49-.85v-1.81h-3.96v1.81c0 .35-.19.68-.49.85-.01.01-.01.01-.01.01-.31.18-.68.18-.99 0z" fill="#ff826e"/></g><g><path d="m21 40-2.75 1.38-1.25.62-1.76-4.4c.89-.28 1.82-.48 2.76-.6z" fill="#fc6e51"/></g><g><path d="m21 40 3-3c.94.12 1.87.32 2.76.6l-1.76 4.4-1.25-.63z" fill="#fc6e51"/></g><g><path d="m22 44 1.99 6.36-1.01-.59-1.98 3.46 1.57.91c.31.18.49.5.49.85v.02c0 .35-.18.67-.49.85l-1.57.91 1.98 3.46.4-.23c-.77.69-1.56 1.36-2.38 2-1.84-1.45-3.56-3.02-5.16-4.69v-.01l4.16-13.3z" fill="#b4dd7f"/></g><g><path d="m23.75 41.37-1.75 2.63h-2l-1.75-2.62 2.75-1.38z" fill="#a0d468"/></g><g><path d="m23 34c2.76 0 5-2.24 5-5v-3.74c0-1.4-.74-2.7-1.94-3.43l-.49-.29c-1.04-.62-1.81-1.57-2.23-2.67l-.34.13h-6l-.77.52c-1.39.92-2.23 2.48-2.23 4.16v5.32c0 2.76 2.24 5 5 5l-.33 1h-5.67c-1.92-1.92-3-4.53-3-7.24v-4.76c0-3.04 1.23-5.79 3.22-7.78s4.74-3.22 7.78-3.22c6.08 0 11 4.92 11 11v4.76c0 1.36-.27 2.68-.78 3.92-.51 1.23-1.26 2.36-2.22 3.32h-5.67z" fill="#b27946"/></g><g><path d="m30 55c0-1.1-.9-2-2-2s-2 .9-2 2 .9 2 2 2 2-.9 2-2zm-6.01-4.64.54.31c.31.18.68.18.99 0 0 0 0 0 .01-.01.3-.17.49-.5.49-.85v-1.81h3.96v1.81c0 .35.19.68.49.85.01.01.01.01.01.01.31.18.68.18.99 0l.05-.03 1.5-.87 1.98 3.46-1.57.91c-.31.18-.49.5-.49.85v.02c0 .35.18.67.49.85l1.57.91-1.98 3.46-1.55-.9c-.31-.18-.68-.18-.99 0 0 0 0 0-.01.01-.3.17-.49.5-.49.85v1.81h-3.96v-1.81c0-.35-.19-.68-.49-.85-.01-.01-.01-.01-.01-.01-.31-.18-.68-.18-.99 0l-1.15.67-.4.23-1.98-3.46 1.57-.91c.31-.18.49-.5.49-.85 0-.01 0-.01 0-.02 0-.35-.18-.67-.49-.85l-1.57-.91 1.98-3.46z" fill="#fcd770"/></g><g><path d="m23.33 35 .67 2-3 3-3-3 .67-2 .33-1h4z" fill="#f0d0b4"/></g><g><path d="m28 25.26v3.74c0 2.76-2.24 5-5 5h-4c-2.76 0-5-2.24-5-5v-5.32c0-1.68.84-3.24 2.23-4.16l.77-.52h6l.34-.13c.42 1.1 1.19 2.05 2.23 2.67l.49.29c1.2.73 1.94 2.03 1.94 3.43z" fill="#f0d0b4"/></g></g><g><path d="m19 29v2h2c1.615 0 3.067-.897 3.789-2.342l.105-.211-1.789-.895-.105.212c-.381.762-1.147 1.236-2 1.236z"/><circle cx="18" cy="25" r="1"/><circle cx="24" cy="25" r="1"/><path d="m18 17v.171c0 2.091.814 4.057 2.293 5.536l1.414-1.414c-1.101-1.101-1.707-2.565-1.707-4.122v-.171z"/><path d="m13.707 34.293c-1.746-1.746-2.707-4.067-2.707-6.536v-4.757c0-5.514 4.486-10 10-10s10 4.486 10 10v4.757c0 2.469-.961 4.79-2.707 6.536l1.414 1.414c2.123-2.124 3.293-4.947 3.293-7.95v-4.757c0-6.617-5.383-12-12-12s-12 5.383-12 12v4.757c0 3.003 1.17 5.826 3.293 7.95z"/><path d="m53 29.184v-2.184h-2v2h-2v3c0 1.654 1.346 3 3 3 .552 0 1 .449 1 1v1h-1c-.552 0-1-.449-1-1v-1h-2v1c0 1.302.839 2.402 2 2.816v2.184h2v-2h2v-3c0-1.654-1.346-3-3-3-.552 0-1-.449-1-1v-1h1c.552 0 1 .449 1 1v1h2v-1c0-1.302-.839-2.402-2-2.816z"/><path d="m52 23c-6.065 0-11 4.935-11 11s4.935 11 11 11 11-4.935 11-11-4.935-11-11-11zm0 20c-4.963 0-9-4.038-9-9s4.037-9 9-9 9 4.038 9 9-4.037 9-9 9z"/><path d="m28 52c-1.654 0-3 1.346-3 3s1.346 3 3 3 3-1.346 3-3-1.346-3-3-3zm0 4c-.552 0-1-.449-1-1s.448-1 1-1 1 .449 1 1-.448 1-1 1z"/><path d="m33.732 49.006c4.758-7.92 7.268-16.927 7.268-26.214v-1.792h12c1.103 0 2-.897 2-2v-12c0-1.103-.897-2-2-2h-5.816c.414-1.161 1.514-2 2.816-2h1v-2h-1c-1.641 0-3.088.806-4 2.031-.912-1.225-2.359-2.031-4-2.031h-1v2h1c1.302 0 2.402.839 2.816 2h-5.816c-.562 0-1.069.235-1.432.609-1.206.249-2.434.391-3.663.391-4.219 0-8.328-1.488-11.569-4.188l-1.336-1.114-1.335 1.113c-4.737 3.946-11.305 5.254-17.345 3.242l-1.32-.447v18.187c0 15.692 7.063 30.269 19.38 39.992l.62.49.62-.49c.828-.654 1.644-1.34 2.424-2.04l-.011-.012.929-.57.055.036v2.801h5.967l-.005-2.802 2.404 1.404 2.979-5.197-2.418-1.405 2.418-1.405zm-8.698.804-.209-.122-1.728-5.53.996-1.493 1.432.716 1.806-4.513c2.71 1.033 5.069 2.844 6.785 5.239-.919 1.896-1.965 3.739-3.132 5.519v-2.626h-5.967zm-3.569-6.81h-.93l-.825-1.237 1.29-.645 1.29.645zm-2.562 1.157-3.5 11.203c-3.043-3.4-5.572-7.178-7.534-11.232 1.717-2.406 4.082-4.225 6.8-5.261l1.806 4.513 1.432-.716zm-1.242-6.081 1.651 1.65-1.787.894-.939-2.35c.352-.082.714-.138 1.075-.194zm7.754.194-.939 2.35-1.787-.894 1.651-1.65c.36.057.722.112 1.075.194zm-3.136-3.27.576 1.73-1.855 1.856-1.855-1.856.576-1.73zm24.721-24v8h-2v-8zm-2-2v-2h2v2zm-2 10h-4v-8h4zm6 0v-8h4l.001 8zm4-10h-4v-2h4zm-10-2v2h-4v-2zm-40 .343c1.662.436 3.371.657 5.095.657 4.686 0 9.249-1.652 12.851-4.652l.054-.046.056.046c3.6 3 8.164 4.652 12.849 4.652 1.035 0 2.071-.086 3.095-.246v11.246c0 1.103.897 2 2 2v1.792c0 6.672-1.346 13.194-3.936 19.242-2.593-3.153-6.248-5.246-10.302-5.912l-.426-1.278c2.667-.608 4.664-2.995 4.664-5.844v-3.735c0-1.747-.931-3.389-2.428-4.287l-.485-.292c-1.287-.772-2.087-2.185-2.087-3.686h-2c0 2.2 1.172 4.269 3.058 5.401l.485.292c.898.538 1.457 1.524 1.457 2.572v3.735c0 2.206-1.794 4-4 4h-4c-2.206 0-4-1.794-4-4v-5.324c0-1.34.666-2.584 1.781-3.328l.773-.516-1.109-1.664-.773.516c-1.673 1.115-2.672 2.982-2.672 4.992v5.324c0 2.849 1.997 5.236 4.664 5.845l-.426 1.278c-4.059.666-7.717 2.764-10.31 5.922-2.558-5.991-3.928-12.512-3.928-19.253zm18 53.375c-1.42-1.158-2.763-2.385-4.029-3.672l3.764-12.046h.53l1.164 3.726-2.792 4.87 2.434 1.395-2.434 1.415 2.107 3.676c-.248.211-.49.428-.744.636zm11.923-3.998.715.416-.987 1.723-.676-.395c-.564-.33-1.257-.355-1.883-.052l-.123.062c-.608.355-.985 1.014-.985 1.718v.808h-1.967v-.809c0-.704-.377-1.362-.985-1.718l-.086-.048c-.604-.318-1.332-.306-1.919.038l-.677.395-.987-1.723.715-.416c.607-.354.984-1.011.982-1.724.002-.705-.375-1.362-.982-1.716l-.715-.416.987-1.723.676.395c.614.359 1.381.357 2.005-.009.608-.355.986-1.014.986-1.718v-.808h1.967v.809c0 .705.378 1.363.994 1.723.619.362 1.385.363 1.996.005l.677-.395.987 1.723-.715.416c-.607.354-.984 1.011-.982 1.724-.003.703.374 1.361.982 1.715z"/><path d="m49 51h-2v2h-2v2h2v2h2v-2h2v-2h-2z"/><path d="m48 47c-3.859 0-7 3.14-7 7s3.141 7 7 7 7-3.14 7-7-3.141-7-7-7zm0 12c-2.757 0-5-2.243-5-5s2.243-5 5-5 5 2.243 5 5-2.243 5-5 5z"/></g></g></svg>