<svg id="_x33_0" enable-background="new 0 0 64 64" height="512" viewBox="0 0 64 64" width="512" xmlns="http://www.w3.org/2000/svg"><g><g><g><path d="m28 18v9c0 .55-.45 1-1 1h-24c-.55 0-1-.45-1-1v-17h26z" fill="#e6e9ed"/></g><g><path d="m62 14v17c0 .55-.45 1-1 1h-9-15c-.55 0-1-.45-1-1v-13-4z" fill="#e6e9ed"/></g><g><path d="m2 10v-7c0-.55.45-1 1-1h24c.55 0 1 .45 1 1v7z" fill="#b4dd7f"/></g><g><path d="m36 14v-7c0-.55.45-1 1-1h24c.55 0 1 .45 1 1v7z" fill="#b4dd7f"/></g><g><path d="m6 14h4v6h-4z" fill="#ff826e"/></g><g><circle cx="52" cy="52" fill="#ff826e" r="4"/></g><g><path d="m40 18h4v6h-4z" fill="#fcd770"/></g><g><path d="m42 52v4c0 3.31-2.69 6-6 6h-12v-2.7c0-1.77-.76-3.37-2-4.47l.01-.01-.01-11.82c0-.33-.02-.66-.06-.99l.06-.01h20z" fill="#e6e9ed"/></g><g><path d="m18.66 36h22.34c.55 0 1 .45 1 1v5h-20l-.06.01c-.22-2.09-1.17-3.97-2.58-5.37-.22-.22-.46-.44-.71-.63z" fill="#b4dd7f"/></g><g><path d="m13 40-.78.78c-.8.8-1.78 1.41-2.85 1.76-.82.28-1.37 1.04-1.37 1.9v2.56c0 1.7 1.06 3.16 2.57 3.73v.01l-.07.27c-.29 1.14-1.22 2.01-2.37 2.21-.05.01-.11.02-.17.03l-.7.09c-1.25.16-2.37.69-3.25 1.49l-.01-.01v-11.82c0-4.97 4.03-9 9-9 2.14 0 4.11.75 5.65 2.01.25.19.49.41.71.63 1.41 1.4 2.36 3.28 2.58 5.37.04.33.06.66.06.99l.01 11.82-.01.01c-.88-.8-2.01-1.33-3.26-1.49l-.7-.09c-.06-.01-.12-.02-.17-.03-1.15-.2-2.08-1.07-2.37-2.21l-.07-.27v-.01c1.51-.57 2.57-2.03 2.57-3.73v-2.56c0-.86-.55-1.62-1.37-1.9-1.07-.35-2.05-.96-2.85-1.76z" fill="#656d78"/></g><g><path d="m10.22 57 2.78 5h-11v-2.7c0-1.77.77-3.38 2.01-4.47.88-.8 2-1.33 3.25-1.49l.7-.09c.06-.01.12-.02.17-.03v.01z" fill="#4fc1e9"/></g><g><path d="m17.87 53.23v-.01c.05.01.11.02.17.03l.7.09c1.25.16 2.38.69 3.26 1.49 1.24 1.1 2 2.7 2 4.47v2.7h-11l2.78-5z" fill="#4fc1e9"/></g><g><path d="m15.78 57-2.78 5-2.78-5z" fill="#ffeaa7"/></g><g><path d="m15.5 51.01c.29 1.14 1.22 2.01 2.37 2.21v.01l-2.09 3.77h-5.56l-2.09-3.77v-.01c1.15-.2 2.08-1.07 2.37-2.21l.07-.27v-.01c.44.18.92.27 1.43.27h2c.51 0 .99-.09 1.43-.27v.01z" fill="#f0d0b4"/></g><g><path d="m18 44.44v2.56c0 1.7-1.06 3.16-2.57 3.73-.44.18-.92.27-1.43.27h-2c-.51 0-.99-.09-1.43-.27-1.51-.57-2.57-2.03-2.57-3.73v-2.56c0-.86.55-1.62 1.37-1.9 1.07-.35 2.05-.96 2.85-1.76l.78-.78.78.78c.8.8 1.78 1.41 2.85 1.76.82.28 1.37 1.04 1.37 1.9z" fill="#f0d0b4"/></g></g><g><path d="m5 5h2v2h-2z"/><path d="m9 5h2v2h-2z"/><path d="m5 21h6v-8h-6zm2-6h2v4h-2z"/><path d="m13 13h12v2h-12z"/><path d="m13 17h12v2h-12z"/><path d="m5 23h2v2h-2z"/><path d="m9 23h2v2h-2z"/><path d="m13 21h12v2h-12z"/><path d="m13 5h2v2h-2z"/><path d="m61 5h-24c-1.103 0-2 .897-2 2v10h-6v-14c0-1.103-.897-2-2-2h-24c-1.103 0-2 .897-2 2v24c0 1.103.897 2 2 2h24c1.103 0 2-.897 2-2v-8h6v12c0 1.103.897 2 2 2h14v14.101c-1.956.399-3.5 1.943-3.899 3.899h-4.101v-14c0-1.103-.897-2-2-2h-22.026c-1.669-1.25-3.733-2-5.974-2-5.514 0-10 4.486-10 10v11.412c-1.239 1.27-2 2.998-2 4.885v3.703h35c3.859 0 7-3.14 7-7v-3h4.101c.465 2.279 2.484 4 4.899 4 2.757 0 5-2.243 5-5 0-2.414-1.721-4.434-4-4.899v-14.101h8c1.103 0 2-.897 2-2v-24c0-1.103-.897-2-2-2zm-34-2v6h-24v-6zm-24 24v-16h24l.001 16zm38 14h-18.202c-.302-1.48-.94-2.835-1.818-4h20.02zm-28.076.49.076-.076.076.076c.905.906 2.025 1.598 3.24 2.002.41.137.684.518.684.949v2.559c0 1.654-1.346 3-3 3h-2c-1.654 0-3-1.346-3-3v-2.559c0-.431.275-.813.685-.949 1.214-.405 2.335-1.097 3.239-2.002zm-1.697 10.432c.253.04.508.078.773.078h2c.265 0 .52-.038.774-.078.352.772.942 1.405 1.67 1.822l-1.254 2.256h-4.38l-1.254-2.257c.728-.416 1.319-1.049 1.671-1.821zm2.851 6.078-1.078 1.941-1.078-1.941zm4.338-3.69.204.026c2.497.311 4.38 2.444 4.38 4.961v1.703h-8.3zm-5.416-19.31c4.411 0 8 3.589 8 8.001l.012 9.985c-.662-.317-1.38-.54-2.142-.635l-.705-.088c-.648-.081-1.199-.487-1.502-1.046 1.399-.888 2.337-2.441 2.337-4.217v-2.559c0-1.293-.824-2.437-2.051-2.846h-.001c-.921-.307-1.771-.832-2.458-1.519l-.49-.49v-2.586h-2v2.586l-.49.49c-.687.687-1.536 1.212-2.459 1.519-1.227.41-2.051 1.553-2.051 2.846v2.559c0 1.776.938 3.329 2.338 4.216-.303.56-.855.965-1.503 1.046l-.703.088c-.759.096-1.473.317-2.132.631v-9.981c0-4.411 3.589-8 8-8zm-10 24.297c0-2.517 1.883-4.649 4.381-4.961l.203-.025 3.716 6.689h-8.3zm33 1.703h-11v-1.703c0-1.88-.756-3.603-1.987-4.871l-.013-11.426h18v13c0 2.757-2.243 5-5 5zm19-9c0 1.654-1.346 3-3 3s-3-1.346-3-3 1.346-3 3-3 3 1.346 3 3zm6-45v6h-24v-6zm-24 24v-16h24l.001 16z"/><path d="m39 9h2v2h-2z"/><path d="m43 9h2v2h-2z"/><path d="m39 25h6v-8h-6zm2-6h2v4h-2z"/><path d="m47 17h12v2h-12z"/><path d="m47 21h12v2h-12z"/><path d="m39 27h2v2h-2z"/><path d="m43 27h2v2h-2z"/><path d="m47 25h12v2h-12z"/><path d="m47 9h2v2h-2z"/><path d="m25 45h4v2h-4z"/><path d="m31 45h8v2h-8z"/><path d="m25 49h14v2h-14z"/><path d="m25 53h6v2h-6z"/><path d="m33 53h6v2h-6z"/><path d="m27 57h2v2h-2z"/><path d="m31 57h2v2h-2z"/></g></g></svg>