<svg id="_x33_0" enable-background="new 0 0 64 64" height="512" viewBox="0 0 64 64" width="512" xmlns="http://www.w3.org/2000/svg"><g><g><g><path d="m32 16c-1.36 0-2.71 0-4 0-1.65 0-3.18.5-4.45 1.35-.98-1.55-1.55-3.38-1.55-5.35 0-5.52 4.48-10 10-10s10 4.48 10 10c0 1.48-.32 2.89-.9 4.15v.01c-.35-.11-.72-.16-1.1-.16-1.71 0-3.81 0-6 0-.66 0-1.33 0-2 0z" fill="#fcd770"/></g><g><path d="m2 18v7c0 .55.45 1 1 1h10c.55 0 1-.45 1-1v-7z" fill="#d3a06c"/></g><g><path d="m13 14h-10c-.55 0-1 .45-1 1v3h12v-3c0-.55-.45-1-1-1z" fill="#b27946"/></g><g><path d="m37.27 48-3.27 6-2.4-4.39c.23-.5.36-1.05.39-1.61h.01z" fill="#e6e9ed"/></g><g><path d="m17.07 52.07 1.23-3.4c.8-2.19 2.49-3.89 4.61-4.72.7.82 1.09 1.87 1.09 2.96 0 .72-.17 1.42-.49 2.06l-.67 1.34c-.55 1.11-.84 2.34-.84 3.58v4.11l-.23.23c-1.13 1.13-2.67 1.77-4.27 1.77s-3.14-.64-4.27-1.77l-4.23-4.23 5-5z" fill="#b4dd7f"/></g><g><path d="m46.93 52.07 3.07-3.07 5 5-4.23 4.23c-1.13 1.13-2.67 1.77-4.27 1.77s-3.14-.64-4.27-1.77l-.23-.23v4h-20v-4c1.32.33 2.66.5 4 .5s2.68-.17 4-.5l-1.04-1.04c-.61-.61-.96-1.45-.96-2.32 0-1.03.49-2 1.31-2.62l.9-.68c.61-.46 1.09-1.05 1.39-1.73l2.4 4.39 3.27-6 2.43-4.45c2.75.53 5.03 2.46 6 5.12z" fill="#b4dd7f"/></g><g><path d="m6.464 47.879h7.071v4.243h-7.071z" fill="#a0d468" transform="matrix(.707 -.707 .707 .707 -32.426 21.716)"/></g><g><path d="m51.879 46.464h4.243v7.071h-4.243z" fill="#a0d468" transform="matrix(.707 -.707 .707 .707 -19.539 52.828)"/></g><g><path d="m11 46-5 5-2.96-2.96c-.67-.67-1.04-1.57-1.04-2.52v-.05c0-1.92 1.55-3.47 3.47-3.47h.07c.93 0 1.83.37 2.5 1.04z" fill="#f0d0b4"/></g><g><path d="m62 45.47v.05c0 .95-.37 1.85-1.04 2.52l-2.96 2.96-5-5 2.93-2.93c.68-.68 1.62-1.07 2.59-1.07.96 0 1.84.39 2.46 1.02.63.62 1.02 1.49 1.02 2.45z" fill="#f0d0b4"/></g><g><path d="m28 41.3c0-3.23 0-10.27 0-14.3 0-1.66 1.34-3 3-3h3 4 2v9h-6c0 2.21 1.79 4 4 4h1.72c-.63 1.75-2.31 3-4.27 3l-.45-.02v.02.31c0 1.53 1.15 2.82 2.67 2.99l1.39.15c.22.02.43.06.64.1l-2.43 4.45h-5.27-.01c.01-.08.01-.15.01-.23v-.07c0-1.65-.93-3.17-2.41-3.91l-.05-.02c-.95-.48-1.54-1.43-1.54-2.47z" fill="#f0d0b4"/></g><g><path d="m40 33v2.45c0 .54-.1 1.07-.27 1.55h-.01-1.72c-2.21 0-4-1.79-4-4z" fill="#ff826e"/></g><g><path d="m22.91 43.95c-.07-.11-.17-.21-.26-.3l-1.19-1.19c-.93-.93-1.46-2.2-1.46-3.53v-14.93c0-2.77 1.41-5.21 3.55-6.65 1.27-.85 2.8-1.35 4.45-1.35h4 2 6c.38 0 .75.05 1.1.16 1.68.47 2.9 2.01 2.9 3.84 0 1.1-.45 2.1-1.17 2.83-.73.72-1.73 1.17-2.83 1.17h-2-4-3c-1.66 0-3 1.34-3 3v14.3c0 1.04.59 1.99 1.54 2.47l.05.02c1.48.74 2.41 2.26 2.41 3.91v.07c0 .08 0 .15-.01.23-.03.56-.16 1.11-.39 1.61-.3.68-.78 1.27-1.39 1.73l-.9.68c-.82.62-1.31 1.59-1.31 2.62 0 .87.35 1.71.96 2.32l1.04 1.04c-1.32.33-2.66.5-4 .5s-2.68-.17-4-.5v-4.11c0-1.24.29-2.47.84-3.58l.67-1.34c.32-.64.49-1.34.49-2.06 0-1.09-.39-2.14-1.09-2.96z" fill="#656d78"/></g><g><path d="m58 12v4c0 .62-.14 1.21-.4 1.73-.64 1.34-2.01 2.27-3.6 2.27s-2.96-.93-3.6-2.27c-.26-.52-.4-1.11-.4-1.73v-4-1c0-.55.45-1 1-1h6c.55 0 1 .45 1 1z" fill="#fcd770"/></g></g><g><path d="m34 30c1.654 0 3-1.346 3-3h-2c0 .551-.449 1-1 1s-1-.449-1-1h-2c0 1.654 1.346 3 3 3z"/><path d="m58.519 41c-1.247 0-2.419.485-3.3 1.367l-7.882 7.882-.699-1.923c-1.179-3.239-4.039-5.488-7.464-5.869l-1.395-.156c-.791-.088-1.424-.629-1.668-1.345 2.75-.327 4.889-2.669 4.889-5.505v-10.552c2.279-.464 4-2.484 4-4.899 0-1.892-1.068-3.523-2.62-4.372.407-1.162.62-2.377.62-3.628 0-6.065-4.935-11-11-11s-11 4.935-11 11c0 1.78.451 3.507 1.265 5.069-1.993 1.652-3.265 4.145-3.265 6.931v14.929c0 1.603.624 3.109 1.757 4.243l.492.492c-1.783 1.053-3.169 2.688-3.888 4.663l-.699 1.923-7.921-7.921c-.855-.857-1.994-1.329-3.276-1.329-2.462 0-4.465 2.004-4.465 4.523 0 1.22.472 2.363 1.329 3.22l10.197 10.197c1.328 1.328 3.095 2.06 4.974 2.06 1.25 0 2.446-.33 3.5-.937v2.937h22v-2.937c1.054.607 2.25.937 3.5.937 1.879 0 3.646-.732 4.975-2.061l10.197-10.197c.857-.856 1.329-2 1.329-3.275-.001-2.463-2.011-4.467-4.482-4.467zm-5.519 6.414 3.586 3.586-1.586 1.586-3.586-3.586zm-15.442-3.124.565.063-1.444 2.647h-3.726c-.228-1.759-1.306-3.295-2.968-4.125-.608-.304-.986-.909-.985-1.579v-14.297c0-1.103.897-1.999 2-1.999h8v7h-6v1c0 2.729 2.201 4.948 4.92 4.992-.64.621-1.509 1.008-2.469 1.008-.232 0-.467-.023-.696-.069l-4.558-.912-.393 1.961 4.244.849c.233 1.806 1.656 3.256 3.51 3.461zm-4.706 4.71h2.737l-1.589 2.912-1.303-2.389c.058-.172.113-.345.155-.523zm6.092-13h-.944c-1.304 0-2.416-.836-2.829-2h3.829v1.451c0 .188-.027.369-.056.549zm-15.944-24c0-4.962 4.038-9 9-9s9 4.038 9 9c0 1.053-.186 2.073-.538 3.046-.152-.014-.299-.046-.456-.046h-5.006v-1c0-1.654-1.346-3-3-3-.551 0-1-.449-1-1v-1h1c.551 0 1 .449 1 1v1h2v-1c0-1.302-.839-2.402-2-2.816v-2.184h-2v2h-2v3c0 1.654 1.346 3 3 3 .551 0 1 .449 1 1v1h-1c-.551 0-1-.449-1-1v-1h-2v1c0 .352.072.686.184 1h-1.188c-1.459 0-2.834.357-4.054.976-.608-1.232-.942-2.585-.942-3.976zm-10.414 37-3.586 3.586-1.586-1.586 3.586-3.586zm-9.586-3.533c0-1.36 1.106-2.467 2.536-2.467.677 0 1.314.264 1.793.743l2.257 2.257-3.586 3.586-2.257-2.257c-.479-.479-.743-1.121-.743-1.862zm14.5 13.533c-1.345 0-2.609-.524-3.561-1.475l-3.525-3.525 3.586-3.586 1.909 1.909-.849 2.335 1.88.684 2.302-6.332c.598-1.644 1.786-2.992 3.316-3.798.279.519.442 1.094.442 1.699 0 .558-.132 1.116-.381 1.616l-.668 1.337c-.622 1.242-.951 2.635-.951 4.025v3.686c-.944.916-2.181 1.425-3.5 1.425zm32.561-1.475c-.952.951-2.216 1.475-3.561 1.475-1.319 0-2.556-.509-3.5-1.425v-5.575h-2v9h-18v-7.111c0-1.081.255-2.164.739-3.13l.668-1.337c.388-.777.593-1.645.593-2.511 0-1.5-.584-2.909-1.644-3.969l-1.185-1.185c-.755-.755-1.171-1.76-1.171-2.828v-14.929c0-3.86 3.139-7 6.997-7h12.01c1.65 0 2.993 1.346 2.993 3s-1.346 3-3 3h-1.707c-.794-.47-1.293-1.301-1.293-2.236v-1.764h-2v1.764c0 .803.212 1.565.584 2.236h-1.29c-.795-.47-1.294-1.301-1.294-2.236v-1.764h-2v1.764c0 .803.212 1.565.584 2.236h-.584c-2.206 0-4 1.794-4 3.999v14.296c0 1.432.8 2.723 2.139 3.393 1.149.574 1.863 1.729 1.862 3.08 0 1.085-.519 2.121-1.387 2.772l-.901.676c-1.073.804-1.713 2.084-1.713 3.425 0 1.144.445 2.219 1.254 3.027l1.039 1.039 1.414-1.414-1.039-1.039c-.431-.431-.668-1.004-.668-1.613 0-.714.341-1.396.913-1.825l.901-.676c.251-.188.476-.403.689-.629l2.497 4.577 6.204-11.374c2.094.628 3.786 2.185 4.554 4.296l2.302 6.332 1.88-.684-.849-2.335 1.909-1.909 3.586 3.586zm10.196-10.196-2.257 2.257-3.586-3.586 2.219-2.219c.504-.504 1.174-.781 1.886-.781 1.368 0 2.481 1.107 2.481 2.523 0 .685-.264 1.327-.743 1.806z"/><path d="m3 27h10c1.103 0 2-.897 2-2v-10c0-1.103-.897-2-2-2h-3.816c.414-1.161 1.514-2 2.816-2h1v-2h-1c-1.641 0-3.088.806-4 2.031-.912-1.225-2.359-2.031-4-2.031h-1v2h1c1.302 0 2.402.839 2.816 2h-3.816c-1.103 0-2 .897-2 2v10c0 1.103.897 2 2 2zm0-8h4v6h-4zm6 6v-6h4.001l.001 6zm4-8h-4v-2h4zm-6-2v2h-4v-2z"/><path d="m61 11h-2c0-1.103-.897-2-2-2h-6c-1.103 0-2 .897-2 2h-2c-1.103 0-2 .897-2 2v.611c0 2.455 1.757 4.529 4.178 4.932l.595.099c.715 1.14 1.866 1.979 3.227 2.256v6.102h-4v2h10v-2h-4v-6.101c1.361-.277 2.512-1.117 3.227-2.256l.595-.099c2.421-.404 4.178-2.478 4.178-4.933v-.611c0-1.103-.897-2-2-2zm-14 2.611v-.611h2v3c0 .154.032.3.046.451-1.208-.403-2.046-1.529-2.046-2.84zm10 2.389c0 1.654-1.346 3-3 3s-3-1.346-3-3v-5h6zm4-2.389c0 1.311-.838 2.436-2.046 2.84.014-.151.046-.297.046-.451v-3h2z"/></g></g></svg>