<svg id="_x33_0" enable-background="new 0 0 64 64" height="512" viewBox="0 0 64 64" width="512" xmlns="http://www.w3.org/2000/svg"><g><g><g><path d="m18 3v6c0 .55-.45 1-1 1h-3v2.59c0 .78-.63 1.41-1.41 1.41-.38 0-.74-.15-1-.41l-3.59-3.59h-5c-.55 0-1-.45-1-1v-6c0-.55.45-1 1-1h14c.55 0 1 .45 1 1z" fill="#e6e9ed"/></g><g><path d="m18 15v5.92.08c0 .55-.45 1-1 1h-3v2.59c0 .78-.63 1.41-1.41 1.41-.38 0-.74-.15-1-.41l-3.59-3.59h-5c-.55 0-1-.45-1-1v-6c0-.55.45-1 1-1h9.59 4.41c.55 0 1 .45 1 1z" fill="#e6e9ed"/></g><g><path d="m48 19h1c-1.71 0-3.3.54-4.6 1.47-1.22.85-2.19 2.05-2.78 3.44l.17-.85c.14-.7.21-1.42.21-2.14 0-4.06-2.22-7.6-5.51-9.48l.01-.01c1.54-5.44 6.56-9.43 12.5-9.43 7.18 0 13 5.82 13 13 0 4.24-2.03 8.01-5.17 10.37-.37-1.81-1.37-3.41-2.75-4.55-.15-.13-.31-.25-.47-.36-1.3-.92-2.89-1.46-4.61-1.46h1c1.66 0 3-1.34 3-3v-1l1.23-1.84c.5-.76.77-1.65.77-2.55 0-2.55-2.06-4.61-4.61-4.61h-1.39-1.39c-1.27 0-2.43.52-3.26 1.35s-1.35 1.99-1.35 3.26c0 .9.27 1.79.77 2.55l1.23 1.84v1c0 1.66 1.34 3 3 3z" fill="#e6e9ed"/></g><g><path d="m55 10.61c0 .9-.27 1.79-.77 2.55l-1.23 1.84v-1.76c0-.76-.43-1.45-1.11-1.79l-2.89-1.45v-4h1.39c2.55 0 4.61 2.06 4.61 4.61z" fill="#656d78"/></g><g><path d="m49 6v4l-2.89 1.45c-.68.34-1.11 1.03-1.11 1.79v1.76l-1.23-1.84c-.5-.76-.77-1.65-.77-2.55 0-1.27.52-2.43 1.35-3.26s1.99-1.35 3.26-1.35z" fill="#656d78"/></g><g><path d="m44.4 20.47 4.6 7.53c-1.83 0-3.56-.38-5.14-1.06h-.01c-.32-1.19-1.18-2.16-2.31-2.63l.08-.4c.59-1.39 1.56-2.59 2.78-3.44z" fill="#b4dd7f"/></g><g><path d="m54.08 20.82c1.38 1.14 2.38 2.74 2.75 4.55-2.18 1.65-4.89 2.63-7.83 2.63l4.61-7.54c.16.11.32.23.47.36z" fill="#b4dd7f"/></g><g><path d="m53.61 20.46-4.61 7.54v-9c1.72 0 3.31.54 4.61 1.46z" fill="#ffeaa7"/></g><g><path d="m49 19v9l-4.6-7.53c1.3-.93 2.89-1.47 4.6-1.47z" fill="#ffeaa7"/></g><g><path d="m53 15v1c0 1.66-1.34 3-3 3h-1-1c-1.66 0-3-1.34-3-3v-1-1.76c0-.76.43-1.45 1.11-1.79l2.89-1.45 2.89 1.45c.68.34 1.11 1.03 1.11 1.79z" fill="#f0d0b4"/></g><g><path d="m25 46 3.16-2.53.84 2.53-4 16h-5-8l.71-6.7c.7-6.72 5.16-12.39 11.39-14.71z" fill="#4fc1e9"/></g><g><path d="m46.03 48.88h.01l3.78-11.34c.06-.18.14-.34.25-.5l5.93 2.96-2.27 16.62c-.21 1.54-.97 2.88-2.07 3.84s-2.54 1.54-4.09 1.54c-1.64 0-3.22-.65-4.39-1.82l-3.18-3.18v5h-5l-4-16 .84-2.53 3.16 2.53.67-4h2.33c.4 0 .78-.06 1.15-.17 2.93 1.61 5.34 4.07 6.88 7.05z" fill="#4fc1e9"/></g><g><path d="m26 40 4 2-1.84 1.47-3.16 2.53-.9-5.41c.61-.23 1.25-.43 1.9-.59z" fill="#3bafda"/></g><g><path d="m35.67 42-.67 4-3.16-2.53-1.84-1.47.8-.4c.34.25.75.4 1.2.4h2z" fill="#3bafda"/></g><g><path d="m31 46 4 16h-10l4-16z" fill="#ff826e"/></g><g><path d="m31.84 43.47-.84 2.53h-2l-.84-2.53 1.84-1.47z" fill="#fc6e51"/></g><g><path d="m41.62 23.91-.08.4c-.47-.2-.99-.31-1.54-.31h-2.28-.01c-.08-.2-.19-.38-.32-.56-.39-.54-.94-.96-1.6-1.18-1.23-.41-2.24-1.22-2.9-2.26h-7.89c-1.66 0-3 1.34-3 3v1h-2c-.55 0-1.07.11-1.54.31l-.25-1.25c-.13-.67-.2-1.37-.21-2.06v-.08c0-3.02 1.22-5.74 3.2-7.72s4.7-3.2 7.72-3.2h2.16c1.97 0 3.82.52 5.41 1.44 3.29 1.88 5.51 5.42 5.51 9.48 0 .72-.07 1.44-.21 2.14z" fill="#b27946"/></g><g><path d="m60 34.83c0 .75-.3 1.47-.83 2l-3.17 3.17-5.93-2.96c.1-.15.23-.28.37-.4l4.77-3.98c.51-.43 1.15-.66 1.81-.66h.15c.78 0 1.49.32 2 .83s.83 1.22.83 2z" fill="#f0d0b4"/></g><g><path d="m30 40c0 .65.32 1.23.8 1.6l-.8.4-4-2 .71-2.14c.41.09.85.14 1.29.14h4c-.55 0-1.05.22-1.41.59-.37.36-.59.86-.59 1.41z" fill="#f0d0b4"/></g><g><path d="m38 32c0 3.31-2.69 6-6 6h-4c-.44 0-.88-.05-1.29-.14-2.69-.59-4.71-2.99-4.71-5.86v-8-1c0-1.66 1.34-3 3-3h7.89c.66 1.04 1.67 1.85 2.9 2.26.66.22 1.21.64 1.6 1.18.13.18.24.36.32.56.19.41.29.86.29 1.32z" fill="#f0d0b4"/></g><g><path d="m22 24v8h-2c-1.1 0-2.1-.45-2.83-1.17-.72-.73-1.17-1.73-1.17-2.83 0-1.66 1.01-3.09 2.46-3.69.47-.2.99-.31 1.54-.31z" fill="#aab2bd"/></g><g><path d="m43.85 26.94c.1.34.15.69.15 1.06 0 1.1-.45 2.1-1.17 2.83-.25.24-.53.46-.83.63-.59.34-1.27.54-2 .54h-2v-6.68c0-.46-.1-.91-.29-1.32h.01 2.28c.55 0 1.07.11 1.54.31 1.13.47 1.99 1.44 2.31 2.63z" fill="#aab2bd"/></g><g><path d="m34 38c1.1 0 2 .9 2 2 0 .55-.22 1.05-.59 1.41-.36.37-.86.59-1.41.59h-2c-.45 0-.86-.15-1.2-.4-.48-.37-.8-.95-.8-1.6 0-.55.22-1.05.59-1.41.36-.37.86-.59 1.41-.59z" fill="#aab2bd"/></g></g><g><circle cx="26" cy="26" r="1"/><circle cx="34" cy="26" r="1"/><path d="m35 31h-2c0 1.103-.897 2-2 2h-4v2h4c2.206 0 4-1.794 4-4z"/><path d="m30.707 22.293c-1.101-1.101-1.707-2.564-1.707-4.122v-1.171h-2v1.171c0 2.091.814 4.057 2.293 5.536z"/><path d="m57.171 31h-.147c-.894 0-1.764.315-2.451.888l-4.777 3.98c-.429.358-.749.827-.925 1.355l-3.106 9.319c-1.247-1.815-2.81-3.406-4.647-4.665 1.138-.917 1.882-2.305 1.882-3.877v-6.026c1.105-.837 1.841-2.114 1.959-3.574 1.304.394 2.656.6 4.041.6 7.72 0 14-6.28 14-14s-6.28-14-14-14c-5.827 0-11.049 3.659-13.091 9.031-1.478-.658-3.109-1.031-4.828-1.031h-2.162c-4.191 0-7.877 2.18-10.002 5.46-.238-.84-1.002-1.46-1.917-1.46h-2.042c.024-.135.042-.272.042-.414v-1.586h2c1.103 0 2-.897 2-2v-6c0-1.103-.897-2-2-2h-14c-1.103 0-2 .897-2 2v6c0 1.103.897 2 2 2h4.586l2 2h-6.586c-1.103 0-2 .897-2 2v6c0 1.103.897 2 2 2h4.586l3.293 3.293c.456.456 1.062.707 1.707.707 1.331 0 2.414-1.083 2.414-2.414v-1.586h2c.065 0 .127-.013.19-.019.016.091.023.185.041.276l.106.528c-1.399.886-2.337 2.439-2.337 4.215 0 2.757 2.243 5 5 5h1.08c.363 2.518 2.065 4.603 4.363 5.509l-.226.678c-7.307 2.066-12.707 8.423-13.507 16.01l-.821 7.803h30.111v-3.586l1.473 1.473c1.362 1.363 3.174 2.113 5.102 2.113 3.59 0 6.664-2.683 7.149-6.24l2.222-16.291 2.933-2.933c.723-.723 1.121-1.685 1.121-2.707 0-2.112-1.717-3.829-3.829-3.829zm-54.171-22v-6h14l.001 6h-4.001v3.586c0 .338-.468.531-.707.293l-3.879-3.879zm38 29c0 1.654-1.346 3-3 3h-1.171c.11-.313.171-.649.171-1 0-.896-.403-1.693-1.028-2.243 1.566-1.084 2.665-2.79 2.948-4.757h1.08c.342 0 .677-.035 1-.101zm-15.097 3.069 2.252 1.126-2.449 1.959-.481-2.887c.224-.071.45-.135.678-.198zm8.097-2.069c.551 0 1 .449 1 1s-.449 1-1 1h-2c-.551 0-1-.449-1-1s.449-1 1-1zm-4.219 8h.438l3.5 14h-7.438zm.498-2h-.558l-.394-1.181.673-.539.673.538zm4.207-2-.192 1.154-1.443-1.154zm5.514-12h-1v-5.675c0-.11-.017-.216-.026-.325h1.026c1.654 0 3 1.346 3 3s-1.346 3-3 3zm4-20.395c0-1.988 1.617-3.605 3.605-3.605h.395v2.382l-2.342 1.171c-.623.312-1.1.817-1.379 1.421-.178-.432-.279-.894-.279-1.369zm6 9.483c.79.115 1.539.363 2.228.724l-2.228 3.639zm-2 4.363-2.233-3.648c.692-.361 1.441-.616 2.233-.729zm5.85-2.458c.838.809 1.471 1.821 1.823 2.974-1.412.948-3.04 1.592-4.788 1.87zm-.129-10.019c-.279-.604-.756-1.11-1.379-1.421l-2.342-1.171v-2.382h.395c1.988 0 3.605 1.617 3.605 3.605 0 .475-.101.937-.279 1.369zm-5.721 6.026c-1.103 0-2-.897-2-2v-2.764c0-.381.212-.724.553-.894l2.447-1.224 2.447 1.224c.341.17.553.513.553.894v2.764c0 1.103-.897 2-2 2zm-3.86 3.977 2.976 4.862c-.847-.133-1.673-.356-2.474-.669-.377-.952-1.03-1.764-1.87-2.326.357-.706.817-1.334 1.368-1.867zm4.86-18.977c6.617 0 12 5.383 12 12 0 3.378-1.409 6.429-3.663 8.612-.863-2.117-2.505-3.81-4.537-4.763.739-.726 1.2-1.733 1.2-2.849v-.697l1.059-1.588c.615-.923.941-1.999.941-3.11 0-3.09-2.515-5.605-5.605-5.605h-2.789c-3.091 0-5.606 2.515-5.606 5.605 0 1.111.326 2.186.941 3.109l1.059 1.589v.697c0 1.112.458 2.118 1.194 2.844-.81.378-1.561.872-2.224 1.471-.196-3.878-2.24-7.274-5.281-9.308 1.677-4.748 6.222-8.007 11.311-8.007zm-31.999 18h-4.001v3.586c0 .338-.468.531-.707.293l-3.879-3.879h-5.414v-6h14l.001 5.891c0 .01-.001.019-.001.028 0 .01.001.02.001.029zm-.001 7c0-1.654 1.346-3 3-3h1v6h-1c-1.654 0-3-1.346-3-3zm6 4v-9c0-1.103.897-2 2-2v-2c-2.206 0-4 1.794-4 4h-1c-.262 0-.514.038-.765.077l-.043-.214c-.127-.637-.192-1.292-.192-1.944 0-5.469 4.45-9.919 9.919-9.919h2.162c5.469 0 9.919 4.45 9.919 9.919 0 .652-.065 1.307-.192 1.945l-.043.214c-.251-.04-.503-.078-.765-.078h-1.707c-.509-.77-1.261-1.376-2.181-1.684-1.862-.62-3.112-2.355-3.112-4.316h-2c0 2.823 1.8 5.32 4.479 6.214.91.303 1.521 1.151 1.521 2.111v5.675 1c0 2.757-2.243 5-5 5h-4c-2.757 0-5-2.243-5-5zm5 7h1.184c-.112.314-.184.648-.184 1 0 .138.023.269.041.402l-1.818-.909.175-.524c.199.018.399.031.602.031zm-14.3 16.406c.621-5.898 4.36-10.963 9.622-13.394l.972 5.834 3.369-2.695.297.889-3.741 14.96h-3.219v-10h-2v10h-5.889zm39.042 1.083c-.35 2.572-2.572 4.511-5.167 4.511-1.393 0-2.703-.542-3.688-1.527l-2.887-2.887v-5.586h-2v10h-3.219l-3.74-14.96.297-.889 3.369 2.695.807-4.846h1.486c.336 0 .664-.036.982-.099 3.812 2.215 6.563 5.912 7.557 10.218l.486 2.106 1.949-.449-.486-2.106c-.31-1.341-.782-2.625-1.377-3.842l3.472-10.417 4.328 2.164zm5.722-20.367-2.662 2.662-3.988-1.994 4.039-3.365c.329-.275.744-.425 1.171-.425h.147c1.009 0 1.829.82 1.829 1.829 0 .488-.19.947-.536 1.293z"/><path d="m5 5h2v2h-2z"/><path d="m9 5h2v2h-2z"/><path d="m13 5h2v2h-2z"/><path d="m5 17h2v2h-2z"/><path d="m9 17h2v2h-2z"/><path d="m13 17h2v2h-2z"/></g></g></svg>