<svg id="_x33_0" enable-background="new 0 0 64 64" height="512" viewBox="0 0 64 64" width="512" xmlns="http://www.w3.org/2000/svg"><g><g><g><path d="m61.63 9h-3.39c-1.47 0-2.92.34-4.24 1l-3.98-7.92c-.18-.05-.37-.08-.56-.08h-12.46c-.55 0-1 .45-1 1v13 13.23l.04.1c1.81-.85 3.83-1.33 5.96-1.33 5.58 0 10.4 3.27 12.65 8h6.35c.55 0 1-.45 1-1v-19-5.85c0-.42-.13-.82-.37-1.15z" fill="#e6e9ed"/></g><g><path d="m61.63 9h-3.39c-1.47 0-2.92.34-4.24 1l-3.98-7.92c.16.04.31.11.45.19l10.54 6.15c.25.15.46.35.62.58z" fill="#fcd770"/></g><g><path d="m40 6h8v6h-8z" fill="#b4dd7f"/></g><g><path d="m22.88 12h-7.51-.37c-1.66 0-3 1.34-3 3v3h-1c-.98 0-1.85.47-2.4 1.2l-2.35-4.71c-.17-.32-.25-.68-.25-1.04 0-.89.5-1.7 1.29-2.1l1.39-.69c.78-.39 1.22-1.25 1.08-2.12l-.74-4.41c-.01-.09-.02-.17-.02-.26v-.3c0-.87.7-1.57 1.57-1.57.28 0 .56.08.8.22l3.29 1.98c.79.47 1.8.34 2.44-.3l1.02-1.02c.57-.57 1.33-.88 2.12-.88.5 0 .99.13 1.43.36l4.51 2.47c1.8.97 3.25 2.4 4.26 4.1 1 1.69 1.56 3.65 1.56 5.7 0 .91-.11 1.82-.33 2.7l-.42 1.67-.01.01c-.54-.62-1.35-1.01-2.24-1.01h-1v-.68c0-.69-.22-1.34-.61-1.88s-.94-.96-1.6-1.18c-1.23-.41-2.24-1.22-2.91-2.26z" fill="#b27946"/></g><g><path d="m61.41 56.41c.38.38.59.89.59 1.42 0 1.15-.47 2.19-1.22 2.95-.76.75-1.8 1.22-2.95 1.22-.53 0-1.04-.21-1.42-.59l-7.33-7.33c2.06-1.21 3.79-2.94 5-5z" fill="#969faa"/></g><g><path d="m37.5 55.26.5 6.74h-8v-12.78c1.7 2.8 4.34 4.97 7.5 6.04z" fill="#e6e9ed"/></g><g><path d="m10 62h-8l1.09-14.66c.49-6.71 4.85-12.43 11.03-14.75l.88 4.41 3.06-1.83.94 2.83-4 19 5 5z" fill="#e6e9ed"/></g><g><path d="m30 49.22v12.78h-10l5-5-4-19 .94-2.83 3.06 1.83.88-4.41c1.49.55 2.86 1.31 4.1 2.22h.01c-1.26 2.11-1.99 4.56-1.99 7.19 0 2.64.73 5.11 2 7.22z" fill="#e6e9ed"/></g><g><path d="m25.88 32.59-.88 4.41-3.06-1.83-1.94-1.17 4-2c.64.16 1.27.36 1.88.59z" fill="#ccd1d9"/></g><g><path d="m20 34-1.94 1.17-3.06 1.83-.88-4.41c.61-.23 1.24-.43 1.88-.59z" fill="#ccd1d9"/></g><g><path d="m21 38 4 19-5 5-5-5 4-19z" fill="#ff826e"/></g><g><path d="m20 34 1.94 1.17-.94 2.83h-2l-.94-2.83z" fill="#fc6e51"/></g><g><path d="m54.65 36c.87 1.82 1.35 3.86 1.35 6 0 2.58-.7 5-1.92 7.08-1.21 2.06-2.94 3.79-5 5-2.08 1.22-4.5 1.92-7.08 1.92-1.57 0-3.09-.26-4.5-.74-3.16-1.07-5.8-3.24-7.5-6.04-1.27-2.11-2-4.58-2-7.22 0-2.63.73-5.08 1.99-7.19 1.42-2.37 3.53-4.29 6.05-5.48 1.81-.85 3.83-1.33 5.96-1.33 5.58 0 10.4 3.27 12.65 8zm-2.65 6c0-5.52-4.48-10-10-10s-10 4.48-10 10 4.48 10 10 10 10-4.48 10-10z" fill="#fcd770"/></g><g><circle cx="42" cy="42" fill="#69d6f4" r="10"/></g><g><circle cx="42" cy="46" fill="#ff826e" r="2"/></g><g><path d="m31.24 19.01c.47.53.76 1.22.76 1.99 0 .83-.34 1.58-.88 2.12s-1.29.88-2.12.88h-1v-6h1c.89 0 1.7.39 2.24 1.01z" fill="#f0d0b4"/></g><g><path d="m28 18v6c0 2.87-2.02 5.27-4.71 5.86-.41.09-.85.14-1.29.14h-4c-.44 0-.88-.05-1.29-.14-2.69-.59-4.71-2.99-4.71-5.86v-6-3c0-1.66 1.34-3 3-3h.37 7.51c.67 1.04 1.68 1.85 2.91 2.26.66.22 1.21.64 1.6 1.18s.61 1.19.61 1.88z" fill="#f0d0b4"/></g><g><path d="m23.29 29.86.71 2.14-4 2-4-2 .71-2.14c.41.09.85.14 1.29.14h4c.44 0 .88-.05 1.29-.14z" fill="#f0d0b4"/></g><g><path d="m12 18v6h-1c-.83 0-1.58-.34-2.12-.88s-.88-1.29-.88-2.12c0-.68.23-1.3.6-1.8.55-.73 1.42-1.2 2.4-1.2z" fill="#f0d0b4"/></g></g><g><circle cx="16" cy="18" r="1"/><circle cx="24" cy="18" r="1"/><path d="m25 23h-2c0 1.103-.897 2-2 2h-4v2h4c2.206 0 4-1.794 4-4z"/><path d="m20.707 14.293c-1.101-1.101-1.707-2.564-1.707-4.122v-1.171h-2v1.171c0 2.091.814 4.057 2.293 5.536z"/><path d="m63 35v-24.851c0-1.063-.57-2.056-1.488-2.591l-10.542-6.15c-.458-.267-.981-.408-1.511-.408h-12.459c-1.103 0-2 .897-2 2v24h2v-1c0-2.757 2.243-5 5-5s5 2.243 5 5-2.243 5-5 5h-1v10h2v-8.071c3.388-.487 6-3.408 6-6.929 0-3.86-3.14-7-7-7-1.958 0-3.728.81-5 2.11v-18.11h12.367l4.188 8.341.893-.446c1.17-.585 2.48-.895 3.789-.895h2.744c.008.049.02.098.02.149v24.851h-5.723c-1.25-2.374-3.138-4.406-5.546-5.856l-1.032 1.713c3.945 2.376 6.3 6.542 6.3 11.143 0 7.168-5.832 13-13 13s-13-5.832-13-13c0-4.601 2.355-8.767 6.301-11.144l-1.032-1.713c-1.853 1.116-3.395 2.579-4.581 4.274-1.516-.983-3.157-1.729-4.903-2.224l-.228-.684c2.298-.906 4-2.992 4.363-5.509h.08c2.206 0 4-1.794 4-4 0-.815-.248-1.572-.668-2.205l.305-1.219c.241-.963.363-1.956.363-2.95 0-4.453-2.429-8.544-6.338-10.677l-4.515-2.462c-1.52-.829-3.506-.542-4.73.682l-1.021 1.021c-.326.324-.828.387-1.221.15l-3.29-1.974c-.398-.24-.854-.366-1.319-.366-1.415 0-2.566 1.151-2.566 2.566v.304c0 .141.012.283.035.422l.736 4.415c.072.436-.144.862-.54 1.059l-1.384.692c-1.139.57-1.847 1.715-1.847 2.989 0 .517.122 1.033.353 1.495l2.113 4.225c-.288.552-.466 1.169-.466 1.833 0 2.206 1.794 4 4 4h.08c.363 2.518 2.065 4.603 4.363 5.509l-.226.679c-7.312 2.07-12.563 8.454-13.127 16.074l-1.167 15.738h38.153l-.474-6.403c1.094.255 2.228.403 3.398.403 2.486 0 4.827-.617 6.894-1.692l6.813 6.813c.566.567 1.32.879 2.122.879 2.851 0 5.171-2.32 5.171-5.172 0-.801-.312-1.555-.879-2.121l-6.813-6.813c1.075-2.067 1.692-4.408 1.692-6.894 0-1.74-.297-3.423-.85-5h4.85c1.103 0 2-.897 2-2zm-8.533-26.298-2.086-4.156 5.92 3.454h-.065c-1.284 0-2.569.241-3.769.702zm-25.467 40.75v11.548h-6.586l3.676-3.676-4.056-19.264.465-1.394 3.203 1.922.921-4.604c.705.326 1.379.717 2.033 1.145-1.071 2.082-1.656 4.422-1.656 6.871 0 2.713.735 5.253 2 7.452zm-13.097-16.382 2.02 1.01-2.221 1.332-.431-2.157c.208-.067.42-.127.632-.185zm8.19.002c.214.058.424.125.635.192l-.43 2.149-2.221-1.332zm-4.093 2.094.742.445-.463 1.389h-.558l-.463-1.388zm-.189 3.834h.378l3.721 17.676-3.91 3.91-3.91-3.91zm9.189-16v-4c1.103 0 2 .897 2 2s-.897 2-2 2zm-20-2c0-1.103.897-2 2-2v4c-1.103 0-2-.897-2-2zm4 3v-9c0-1.103.897-2 2-2v-2c-2.206 0-4 1.794-4 4v2c-.765 0-1.473.227-2.082.601l-1.777-3.553c-.092-.186-.141-.393-.141-.601 0-.512.284-.971.742-1.2l1.384-.692c1.186-.592 1.836-1.869 1.618-3.177l-.744-4.507v-.305c0-.415.501-.701.857-.486l3.289 1.974c1.181.709 2.689.525 3.665-.451l1.021-1.021c.611-.61 1.602-.751 2.358-.34l4.514 2.462c3.267 1.783 5.296 5.201 5.296 8.922 0 .831-.102 1.66-.304 2.464l-.066.265c-.499-.224-1.048-.355-1.63-.355h-.026c-.13-1.684-1.24-3.142-2.863-3.684-1.861-.62-3.111-2.355-3.111-4.316h-2c0 2.823 1.8 5.32 4.479 6.214.91.303 1.521 1.151 1.521 2.111v6.675c0 2.757-2.243 5-5 5h-4c-2.757 0-5-2.243-5-5zm5 7h4c.203 0 .403-.013.602-.031l.175.524-2.777 1.389-2.777-1.388.175-.524c.199.017.399.03.602.03zm-13.917 16.41c.438-5.919 4.056-10.997 9.295-13.419l.919 4.596 3.203-1.922.465 1.394-4.055 19.265 3.676 3.676h-6.586v-17h-2v17h-5.923zm32.84 13.59h-5.923v-8.836c1.529 1.653 3.419 2.961 5.55 3.796zm23.784-3.879c.186.187.293.444.293.707 0 1.749-1.423 3.172-3.171 3.172-.267 0-.519-.104-.708-.293l-6.473-6.473c1.389-.985 2.601-2.197 3.586-3.586z"/><path d="m36.6 34.8-1.201-1.6c-2.796 2.101-4.399 5.308-4.399 8.8 0 6.065 4.935 11 11 11s11-4.935 11-11c0-3.492-1.603-6.699-4.398-8.8l-1.202 1.6c2.288 1.719 3.6 4.343 3.6 7.2 0 4.963-4.038 9-9 9s-9-4.037-9-9c0-2.857 1.312-5.481 3.6-7.2z"/><path d="m45.001 46c0-1.654-1.346-3-3-3s-3 1.346-3 3 1.346 3 3 3 3-1.346 3-3zm-4 0c0-.552.449-1 1-1s1 .448 1 1-.449 1-1 1-1-.448-1-1z"/><path d="m39 5v8h10v-8zm8 6h-6v-4h6z"/><path d="m39 15h20v2h-20z"/><path d="m51 19h8v2h-8z"/><path d="m51 23h8v2h-8z"/><path d="m53 27h6v2h-6z"/><path d="m55 31h4v2h-4z"/></g></g></svg>