<svg id="_x33_0" enable-background="new 0 0 64 64" height="512" viewBox="0 0 64 64" width="512" xmlns="http://www.w3.org/2000/svg"><g><g><g><circle cx="4" cy="28" fill="#ff826e" r="2"/></g><g><circle cx="4" cy="36" fill="#ff826e" r="2"/></g><g><circle cx="4" cy="20" fill="#ff826e" r="2"/></g><g><circle cx="4" cy="12" fill="#ff826e" r="2"/></g><g><circle cx="60" cy="12" fill="#ff826e" r="2"/></g><g><circle cx="60" cy="20" fill="#ff826e" r="2"/></g><g><circle cx="60" cy="28" fill="#ff826e" r="2"/></g><g><circle cx="60" cy="36" fill="#ff826e" r="2"/></g><g><path d="m43.68 39.44c0 .54.11 1.08.32 1.6.5 1.19 1.66 1.96 2.94 1.96h1.06v6h-1.06c-1.28 0-2.44.77-2.94 1.96-.49 1.2-.22 2.58.7 3.49l.74.74-4.25 4.24-.74-.74c-.61-.61-1.43-.93-2.26-.93-.41 0-.83.08-1.22.24-1.19.5-1.97 1.66-1.97 2.95v1.05h-6v-1.05c0-1.29-.78-2.45-1.97-2.95-1.19-.49-2.57-.22-3.48.7l-.74.73-4.25-4.24.75-.74c.61-.61.93-1.43.93-2.26 0-.41-.08-.83-.24-1.22-.5-1.19-1.66-1.97-2.95-1.97h-1.05v-6h1.05c1.29 0 2.45-.78 2.95-1.97.51-1.23.38-2.64-.35-3.76l-.3-.46c1.82 1.8 4.03 3.21 6.48 4.11-1.15 1.39-1.83 3.15-1.83 5.08 0 4.42 3.58 8 8 8s8-3.58 8-8c0-1.93-.69-3.7-1.83-5.08 2.36-.87 4.5-2.21 6.28-3.92l-.14.24c-.42.67-.63 1.43-.63 2.2z" fill="#fcd770"/></g><g><path d="m33.41 53.41c-.36.37-.86.59-1.41.59-1.1 0-2-.9-2-2v-6h4v6c0 .55-.22 1.05-.59 1.41z" fill="#969faa"/></g><g><path d="m34 41.89v4.11h-4v-4.11c.66.07 1.32.11 2 .11s1.34-.04 2-.11z" fill="#ccd1d9"/></g><g><path d="m38.17 40.92c-1.32.48-2.72.81-4.17.97-.66.07-1.32.11-2 .11s-1.34-.04-2-.11c-1.45-.16-2.85-.49-4.17-.97-2.45-.9-4.66-2.31-6.48-4.11-2.4-2.37-4.13-5.41-4.9-8.81-.3-1.29-.45-2.63-.45-4s.15-2.71.45-4c.32-1.4.8-2.74 1.42-4 1.22-2.46 3-4.61 5.16-6.27.03.38.09.75.18 1.12l.74 2.96c-.4.37-.7.86-.84 1.4-1.95 2.4-3.11 5.46-3.11 8.79 0 3.11 1.02 5.99 2.74 8.31 2.01 2.72 4.98 4.69 8.41 5.4.92.19 1.87.29 2.85.29s1.93-.1 2.85-.29c3.43-.71 6.4-2.68 8.41-5.4 1.72-2.32 2.74-5.2 2.74-8.31 0-3.33-1.16-6.39-3.11-8.79-.14-.54-.44-1.03-.84-1.4.34-1.39.59-2.8.74-4.22 2.24 1.68 4.08 3.88 5.34 6.41.62 1.26 1.1 2.6 1.42 4 .29 1.29.45 2.63.45 4s-.15 2.71-.45 4c-.79 3.5-2.6 6.61-5.1 9-1.78 1.71-3.92 3.05-6.28 3.92z" fill="#e6e9ed"/></g><g><path d="m21.88 18.12c.54.54 1.29.88 2.12.88h1c0 2.76 2.24 5 5 5l-1 3-.74.11c-.7.1-1.37.27-2.02.5-2.34.84-4.3 2.51-5.5 4.7-1.72-2.32-2.74-5.2-2.74-8.31 0-3.33 1.16-6.39 3.11-8.79-.07.25-.11.52-.11.79 0 .83.34 1.58.88 2.12z" fill="#69d6f4"/></g><g><path d="m42.89 15.21c1.95 2.4 3.11 5.46 3.11 8.79 0 3.11-1.02 5.99-2.74 8.31-1.2-2.19-3.16-3.86-5.5-4.7-.65-.23-1.32-.4-2.02-.5l-.74-.11-1-3c2.76 0 5-2.24 5-5h1c.83 0 1.58-.34 2.12-.88s.88-1.29.88-2.12c0-.27-.04-.54-.11-.79z" fill="#69d6f4"/></g><g><path d="m29.25 31.38 1.75 2.62-1.85 3.71c-3.43-.71-6.4-2.68-8.41-5.4 1.2-2.19 3.16-3.86 5.5-4.7l1.76 4.39z" fill="#ff826e"/></g><g><path d="m43.26 32.31c-2.01 2.72-4.98 4.69-8.41 5.4l-1.85-3.71 1.75-2.63 1.25.63 1.76-4.39c2.34.84 4.3 2.51 5.5 4.7z" fill="#ff826e"/></g><g><path d="m32 30-2.75 1.38-1.25.62-1.76-4.39c.65-.23 1.32-.4 2.02-.5l.74-.11z" fill="#fc6e51"/></g><g><path d="m32 30 3-3 .74.11c.7.1 1.37.27 2.02.5l-1.76 4.39-1.25-.63z" fill="#fc6e51"/></g><g><path d="m33 34 1.85 3.71c-.92.19-1.87.29-2.85.29s-1.93-.1-2.85-.29l1.85-3.71z" fill="#e6e9ed"/></g><g><path d="m34.75 31.37-1.75 2.63h-2l-1.75-2.62 2.75-1.38z" fill="#ccd1d9"/></g><g><path d="m34.39 9h-6.39l-.77.52c-1.2.79-1.99 2.06-2.18 3.48h-1.05c-.8 0-1.52.31-2.05.81l-.74-2.96c-.09-.37-.15-.74-.18-1.12-.02-.2-.03-.41-.03-.61 0-1.96.8-3.74 2.09-5.03s3.07-2.09 5.03-2.09h12.88c1.1 0 2 .9 2 2v1.88c0 1.24-.07 2.48-.21 3.71-.15 1.42-.4 2.83-.74 4.22-.53-.5-1.25-.81-2.05-.81h-1.7l-.01.01c-.31-.47-.73-.88-1.23-1.18l-.49-.29c-.99-.59-1.75-1.49-2.18-2.54z" fill="#656d78"/></g><g><path d="m40 13c.8 0 1.52.31 2.05.81.4.37.7.86.84 1.4.07.25.11.52.11.79 0 .83-.34 1.58-.88 2.12s-1.29.88-2.12.88h-1v-3.74c0-.82-.25-1.6-.71-2.25l.01-.01z" fill="#f0d0b4"/></g><g><path d="m34 24 1 3-3 3-3-3 1-3z" fill="#f0d0b4"/></g><g><path d="m39 15.26v3.74c0 2.76-2.24 5-5 5h-4c-2.76 0-5-2.24-5-5v-5.32c0-.23.02-.46.05-.68.19-1.42.98-2.69 2.18-3.48l.77-.52h6.39c.43 1.05 1.19 1.95 2.18 2.54l.49.29c.5.3.92.71 1.23 1.18.46.65.71 1.43.71 2.25z" fill="#f0d0b4"/></g><g><path d="m24 13h1.05c-.03.22-.05.45-.05.68v5.32h-1c-.83 0-1.58-.34-2.12-.88s-.88-1.29-.88-2.12c0-.27.04-.54.11-.79.14-.54.44-1.03.84-1.4.53-.5 1.25-.81 2.05-.81z" fill="#f0d0b4"/></g></g><g><path d="m30 19v2h2c1.615 0 3.067-.897 3.789-2.342l.105-.211-1.789-.895-.105.212c-.381.762-1.147 1.236-2 1.236z"/><circle cx="29" cy="15" r="1"/><circle cx="35" cy="15" r="1"/><path d="m32.707 11.293c-1.101-1.101-1.707-2.565-1.707-4.122v-.171h-2v.171c0 2.091.814 4.057 2.293 5.536z"/><circle cx="20" cy="46" r="1"/><path d="m23.515 53.485c-.256 0-.512.098-.707.293-.391.391-.391 1.024 0 1.414.195.195.451.293.707.293s.512-.098.707-.293c.391-.391.391-1.024 0-1.414-.195-.195-.451-.293-.707-.293z"/><circle cx="32" cy="58" r="1"/><path d="m39.778 53.778c-.391.391-.391 1.024 0 1.414.195.195.451.293.707.293s.512-.098.707-.293c.391-.391.391-1.024 0-1.414-.195-.195-.451-.293-.707-.293s-.512.098-.707.293z"/><circle cx="44" cy="46" r="1"/><path d="m60 25c-1.654 0-3 1.346-3 3s1.346 3 3 3 3-1.346 3-3-1.346-3-3-3zm0 4c-.552 0-1-.449-1-1s.448-1 1-1 1 .449 1 1-.448 1-1 1z"/><path d="m60 33c-1.654 0-3 1.346-3 3s1.346 3 3 3 3-1.346 3-3-1.346-3-3-3zm0 4c-.552 0-1-.449-1-1s.448-1 1-1 1 .449 1 1-.448 1-1 1z"/><path d="m60 17c-1.654 0-3 1.346-3 3s1.346 3 3 3 3-1.346 3-3-1.346-3-3-3zm0 4c-.552 0-1-.449-1-1s.448-1 1-1 1 .449 1 1-.448 1-1 1z"/><path d="m60 15c1.654 0 3-1.346 3-3s-1.346-3-3-3-3 1.346-3 3 1.346 3 3 3zm0-4c.552 0 1 .449 1 1s-.448 1-1 1-1-.449-1-1 .448-1 1-1z"/><path d="m51 15h-2.255c-1.201-2.232-2.859-4.223-4.914-5.859.102-1.085.169-2.174.169-3.264v-1.877c0-1.654-1.346-3-3-3h-12.877c-4.479 0-8.123 3.644-8.123 8.123 0 .049.008.098.009.148-1.979 1.611-3.58 3.556-4.75 5.729h-2.259v-4h-4v2h2v4h3.33c-.258.652-.479 1.319-.663 2h-4.667v2h4.24c-.155.983-.24 1.984-.24 3 0 1.023.104 2.02.261 3h-4.261v2h4.69c.187.682.405 1.35.663 2h-3.353v4h-2v2h4v-4h2.273c.876 1.622 1.981 3.103 3.272 4.4l.269.415c.549.844.646 1.903.261 2.833-.341.821-1.136 1.352-2.025 1.352h-2.05v8h2.05c.89 0 1.685.531 2.025 1.353s.155 1.76-.475 2.389l-1.45 1.45 5.657 5.657 1.446-1.447c.632-.63 1.571-.818 2.397-.476.819.34 1.349 1.132 1.349 2.02v2.054h8v-2.05c0-.89.531-1.685 1.353-2.025.822-.342 1.76-.155 2.391.475l1.449 1.45 5.658-5.658-1.446-1.444c-.633-.633-.819-1.576-.477-2.402.34-.818 1.131-1.346 2.016-1.346h2.057v-8h-2.057c-.886 0-1.677-.528-2.016-1.347-.392-.943-.306-2.024.229-2.893l.119-.193c1.366-1.337 2.536-2.873 3.451-4.568h2.274v4h4v-2h-2v-4h-3.353c.259-.65.477-1.318.663-2h4.69v-2h-4.261c.157-.979.261-1.976.261-2.999 0-1.017-.085-2.018-.239-3h4.239v-2h-4.665c-.184-.681-.404-1.348-.662-2h3.327v-4h2v-2h-4zm-6 9c0 2.362-.643 4.573-1.749 6.484-1.774-2.345-4.426-3.947-7.37-4.368l-.127-.018-.418-1.253c2.347-.536 4.17-2.451 4.574-4.845h.09c1.504 0 2.8-.844 3.484-2.073.982 1.861 1.516 3.948 1.516 6.073zm-21-6c-1.103 0-2-.897-2-2s.897-2 2-2zm-3.483-.073c.683 1.229 1.979 2.073 3.483 2.073h.09c.404 2.394 2.227 4.309 4.574 4.845l-.418 1.253-.127.018c-2.944.421-5.596 2.023-7.37 4.368-1.106-1.911-1.749-4.122-1.749-6.484 0-2.124.534-4.212 1.517-6.073zm15.081 10.168c.278.04.549.103.82.167l-.943 2.357-1.786-.894 1.666-1.666zm-3.133 4.905h-.929l-.825-1.237 1.289-.645 1.29.645zm-4.063-4.905.244-.035 1.666 1.666-1.786.894-.943-2.357c.27-.065.542-.128.819-.168zm4.877-3.095.576 1.73-1.855 1.856-1.855-1.856.576-1.73zm-7.581 3.938 1.776 4.442 1.433-.716.938 1.408-1.232 2.465c-2.644-.715-4.962-2.233-6.655-4.292.924-1.431 2.224-2.571 3.74-3.307zm5.92 6.062h.763l.965 1.93c-.442.046-.891.07-1.346.07s-.904-.024-1.347-.07zm3.769 1.537-1.233-2.465.938-1.408 1.433.716 1.776-4.442c1.516.736 2.816 1.875 3.74 3.307-1.692 2.059-4.01 3.576-6.654 4.292zm6.613-20.537c0 1.103-.897 2-2 2v-2.735c0-.431-.058-.856-.166-1.265h.166c1.103 0 2 .897 2 2zm-13.877-13h12.877c.552 0 1 .449 1 1v1.877c0 2.141-.224 4.278-.644 6.376-.425-.155-.878-.253-1.356-.253h-1.23c-.342-.396-.739-.747-1.198-1.022l-.485-.292c-1.287-.772-2.087-2.185-2.087-3.686h-2c0 2.2 1.172 4.269 3.058 5.401l.485.292c.898.538 1.457 1.524 1.457 2.572v3.735c0 2.206-1.794 4-4 4h-4c-2.206 0-4-1.794-4-4v-5.324c0-1.34.666-2.584 1.781-3.328l.773-.516-1.109-1.664-.773.516c-1.193.795-2.035 1.976-2.425 3.316h-.247c-.495 0-.965.102-1.403.267l-.415-1.66c-.12-.483-.182-.983-.182-1.484 0-3.376 2.747-6.123 6.123-6.123zm14.957 38.419c.649 1.568 2.166 2.581 3.863 2.581h.057v4h-.057c-1.697 0-3.214 1.013-3.863 2.58-.654 1.576-.297 3.375.91 4.583l.03.03-2.828 2.828-.035-.036c-1.204-1.203-3-1.559-4.57-.908-1.571.652-2.587 2.173-2.587 3.873l-4 .05v-.054c0-1.699-1.014-3.216-2.583-3.867-1.574-.654-3.373-.296-4.577.91l-.032.032-2.829-2.828.036-.036c1.204-1.204 1.561-2.998.908-4.57-.652-1.571-2.172-2.587-3.873-2.587l-.05-4h.05c1.701 0 3.222-1.016 3.873-2.586.231-.556.353-1.141.377-1.726.941.644 1.947 1.198 3 1.667-.841 1.394-1.3 3.001-1.3 4.645 0 4.962 4.037 9 9 9s9-4.038 9-9c0-1.644-.46-3.251-1.3-4.646 1.05-.468 2.055-1.02 2.995-1.663.029.588.154 1.173.385 1.728zm-5.302.676c.778 1.151 1.222 2.506 1.222 3.905 0 2.798-1.655 5.212-4.033 6.331.012-.11.033-.218.033-.331v-9.261c.95-.151 1.881-.357 2.778-.644zm-6.778 9.905v-5h2v5c0 .551-.448 1-1 1s-1-.449-1-1zm2-7h-2v-2.051c.333.018.662.051 1 .051s.667-.033 1-.051zm-3.967 7.331c-2.378-1.119-4.033-3.533-4.033-6.331 0-1.399.444-2.754 1.221-3.905.898.287 1.829.493 2.779.645v9.26c0 .113.021.221.033.331zm2.967-11.331c-9.374 0-17-7.626-17-17 0-4.756 1.947-9.178 5.374-12.385l.485 1.939c-.269.345-.48.731-.625 1.153-2.083 2.635-3.234 5.927-3.234 9.293 0 8.271 6.729 15 15 15s15-6.729 15-15c0-3.367-1.151-6.659-3.233-9.294-.148-.429-.364-.821-.639-1.17.153-.672.286-1.348.398-2.028 3.496 3.212 5.474 7.674 5.474 12.492 0 9.374-7.626 17-17 17z"/><path d="m4 25c-1.654 0-3 1.346-3 3s1.346 3 3 3 3-1.346 3-3-1.346-3-3-3zm0 4c-.552 0-1-.449-1-1s.448-1 1-1 1 .449 1 1-.448 1-1 1z"/><path d="m4 33c-1.654 0-3 1.346-3 3s1.346 3 3 3 3-1.346 3-3-1.346-3-3-3zm0 4c-.552 0-1-.449-1-1s.448-1 1-1 1 .449 1 1-.448 1-1 1z"/><path d="m4 17c-1.654 0-3 1.346-3 3s1.346 3 3 3 3-1.346 3-3-1.346-3-3-3zm0 4c-.552 0-1-.449-1-1s.448-1 1-1 1 .449 1 1-.448 1-1 1z"/><path d="m4 9c-1.654 0-3 1.346-3 3s1.346 3 3 3 3-1.346 3-3-1.346-3-3-3zm0 4c-.552 0-1-.449-1-1s.448-1 1-1 1 .449 1 1-.448 1-1 1z"/></g></g></svg>