<svg id="_x33_0" enable-background="new 0 0 64 64" height="512" viewBox="0 0 64 64" width="512" xmlns="http://www.w3.org/2000/svg"><g><g><g><path d="m62 56v5c0 .55-.45 1-1 1h-25v-6z" fill="#e6e9ed"/></g><g><path d="m62 26v30h-26v6h-31c-.55 0-1-.45-1-1v-27h4 11 10.76c.08 0 .16 0 .24.02.66.08 1.25.48 1.55 1.09l.94 1.87c.31.62.95 1.02 1.66 1.02 1.02 0 1.85-.83 1.85-1.85v-10.15h6 4 6 4z" fill="#f0d0b4"/></g><g><path d="m8 38h20v14h-20z" fill="#b4dd7f"/></g><g><path d="m42 30h16v4h-16z" fill="#ff826e"/></g><g><path d="m62 23v3h-6v-1c0-3.86-3.14-7-7-7s-7 3.14-7 7v1h-6v-3l.47-.12c1.06-.26 1.93-1.01 2.35-2.02.45-1.09.36-2.33-.25-3.34l-.18-.3 2.83-2.83.36.22c.56.34 1.2.51 1.84.51.47 0 .94-.09 1.38-.28 1.04-.43 1.82-1.33 2.1-2.43l.1-.41h4l.1.41c.28 1.1 1.06 2 2.1 2.43 1.05.44 2.25.35 3.22-.23l.36-.22 2.83 2.83-.22.36c-.34.56-.51 1.21-.51 1.85 0 .46.09.93.27 1.37.44 1.04 1.34 1.82 2.44 2.1z" fill="#ffc729"/></g><g><path d="m56 25v1h-4v-1c0-1.65-1.35-3-3-3s-3 1.35-3 3v1h-4v-1c0-3.86 3.14-7 7-7s7 3.14 7 7z" fill="#fcd770"/></g><g><path d="m36 26v10.15c0 1.02-.83 1.85-1.85 1.85-.71 0-1.35-.4-1.66-1.02l-.94-1.87c-.3-.61-.89-1.01-1.55-1.09v-.02-2.55c0-1.57-.62-3.07-1.73-4.18-.08-.08-.17-.17-.26-.24l-.01-12.03c0-2.48-1.01-4.74-2.64-6.36-1.62-1.63-3.88-2.64-6.36-2.64-4.97 0-9 4.03-9 9v12.02c-.09.08-.18.16-.27.25-1.11 1.11-1.73 2.61-1.73 4.18v2.55h-4-1c-.55 0-1-.45-1-1v-30c0-.55.45-1 1-1h32c.55 0 1 .45 1 1v20z" fill="#e6e9ed"/></g><g><path d="m19 12c-1.32 1.32-2.92 2.31-4.68 2.89l-.32.11v3c0 1.91 1.07 3.57 2.65 4.41l-.34 1.36c-.19.75-.79 1.33-1.55 1.48l-.56.11-1.44.29c-1.03.21-1.98.68-2.76 1.37v-12.02c0-4.97 4.03-9 9-9 2.48 0 4.74 1.01 6.36 2.64 1.63 1.62 2.64 3.88 2.64 6.36l.01 12.03c-.78-.7-1.74-1.17-2.77-1.38l-1.44-.29-.56-.11c-.76-.15-1.36-.73-1.55-1.48l-.34-1.36c.44-.23.84-.52 1.19-.87.9-.91 1.46-2.16 1.46-3.54v-3l-.32-.11c-1.76-.58-3.36-1.57-4.68-2.89z" fill="#b27946"/></g><g><path d="m16.22 29 2.78 5h-11v-2.55c0-1.57.62-3.07 1.73-4.18.09-.09.18-.17.27-.25.78-.69 1.73-1.16 2.76-1.37l1.44-.29z" fill="#4fc1e9"/></g><g><path d="m30 31.45v2.55.02c-.08-.02-.16-.02-.24-.02h-10.76l2.78-5 2.02-3.64 1.44.29c1.03.21 1.99.68 2.77 1.38.09.07.18.16.26.24 1.11 1.11 1.73 2.61 1.73 4.18z" fill="#4fc1e9"/></g><g><path d="m21.78 29-2.78 5-2.78-5z" fill="#ffeaa7"/></g><g><path d="m23.8 25.36-2.02 3.64h-5.56l-2.02-3.64.56-.11c.76-.15 1.36-.73 1.55-1.48l.34-1.36c.7.38 1.5.59 2.35.59s1.65-.21 2.35-.59l.34 1.36c.19.75.79 1.33 1.55 1.48z" fill="#f0d0b4"/></g><g><path d="m24 15v3c0 1.38-.56 2.63-1.46 3.54-.35.35-.75.64-1.19.87-.7.38-1.5.59-2.35.59s-1.65-.21-2.35-.59c-1.58-.84-2.65-2.5-2.65-4.41v-3l.32-.11c1.76-.58 3.36-1.57 4.68-2.89 1.32 1.32 2.92 2.31 4.68 2.89z" fill="#f0d0b4"/></g></g><g><path d="m61.836 21.928c-.79-.197-1.447-.764-1.758-1.516-.312-.753-.248-1.62.172-2.319l.615-1.027-3.932-3.932-1.025.614c-.699.421-1.568.485-2.324.172-.75-.311-1.315-.967-1.512-1.754l-.291-1.166h-5.563l-.291 1.167c-.197.788-.763 1.443-1.512 1.754-.755.311-1.625.249-2.325-.172l-1.024-.614-3.931 3.931.58.969c.442.735.509 1.648.181 2.441-.184.444-.505.807-.896 1.073v-18.549c0-1.103-.897-2-2-2h-32c-1.103 0-2 .897-2 2v30c0 1.103.897 2 2 2v26c0 1.103.897 2 2 2h56c1.103 0 2-.897 2-2v-38.781zm-22.093-.686c.514-1.241.469-2.65-.105-3.85l1.75-1.75c1.177.581 2.569.633 3.793.127 1.22-.506 2.165-1.525 2.584-2.769h2.468c.42 1.243 1.365 2.263 2.585 2.769 1.223.506 2.616.455 3.793-.127l1.746 1.746c-.582 1.177-.634 2.568-.128 3.79s1.526 2.168 2.77 2.588v1.234h-4c0-4.411-3.589-8-8-8s-8 3.589-8 8h-4v-1.237c1.232-.399 2.246-1.319 2.744-2.521zm7.257 3.758c0-1.103.897-2 2-2s2 .897 2 2zm2-4c-2.206 0-4 1.794-4 4h-2c0-3.309 2.691-6 6-6s6 2.691 6 6h-2c0-2.206-1.794-4-4-4zm-46-18h32v33.146c0 .47-.383.854-.854.854-.326 0-.619-.181-.764-.473l-.935-1.869c-.316-.632-.831-1.115-1.447-1.393v-1.814c0-1.828-.706-3.546-1.986-4.848l-.014-11.603c0-5.514-4.486-10-10-10s-10 4.486-10 10v11.589c-1.289 1.303-2 3.028-2 4.863v1.548h-4zm18.189 25h-4.379l-1.125-2.025c.78-.385 1.375-1.096 1.591-1.961l.063-.253c.529.153 1.085.239 1.661.239s1.132-.086 1.659-.239l.063.253c.216.865.811 1.576 1.591 1.961zm-1.111 2-1.078 1.941-1.078-1.941zm-1.078-16.637c1.178 1.013 2.541 1.815 4 2.352v2.285c0 2.206-1.794 4-4 4s-4-1.794-4-4v-2.286c1.458-.535 2.821-1.338 4-2.351zm4.437 10.905c-.377-.076-.681-.365-.774-.738l-.166-.664c1.513-1.091 2.503-2.863 2.503-4.866v-3.721l-1-.333c-1.485-.495-2.853-1.326-4-2.392v-2.554h-2v2.553c-1.147 1.066-2.514 1.897-4 2.392l-1 .334v3.721c0 2.003.99 3.775 2.503 4.866l-.166.664c-.093.373-.397.663-.774.738l-2.002.4c-.546.109-1.064.298-1.561.529v-10.197c0-4.411 3.589-8 8-8s8 3.589 8 8.001l.012 10.202c-.5-.234-1.023-.425-1.573-.535zm-12.997 3.706c.688-.688 1.558-1.154 2.513-1.345l.727-.145 3.621 6.516h-8.301v-1.549c0-1.313.511-2.548 1.44-3.477zm13.88-1.491.727.145c.956.191 1.825.657 2.513 1.345.929.929 1.44 2.164 1.44 3.477v1.55h-8.301zm-19.32 8.517h24.764c.381 0 .724.212.894.553l.935 1.869c.487.974 1.465 1.578 2.553 1.578 1.574 0 2.854-1.28 2.854-2.854v-9.146h24v28h-26v6h-30zm32 26v-4h24v4z"/><path d="m59 29h-18v6h18zm-8 2h2v2h-2zm-2 2h-2v-2h2zm-6-2h2v2h-2zm14 2h-2v-2h2z"/><path d="m7 55h2v4h-2z"/><path d="m11 55h2v4h-2z"/><path d="m15 55h2v4h-2z"/><path d="m19 55h2v4h-2z"/><path d="m23 55h2v4h-2z"/><path d="m27 55h2v4h-2z"/><path d="m7 53h22v-16h-22zm2-14h18v12h-18z"/><path d="m41 51h2v2h-2z"/><path d="m45 51h2v2h-2z"/><path d="m49 51h2v2h-2z"/><path d="m53 51h2v2h-2z"/><path d="m57 51h2v2h-2z"/><path d="m39 45h6v2h-6z"/><path d="m47 45h12v2h-12z"/><path d="m39 41h6v2h-6z"/><path d="m47 41h12v2h-12z"/><path d="m39 37h6v2h-6z"/><path d="m47 37h12v2h-12z"/></g></g></svg>