<svg id="_x33_0" enable-background="new 0 0 64 64" height="512" viewBox="0 0 64 64" width="512" xmlns="http://www.w3.org/2000/svg"><g><g><g><path d="m27.09 13.13c-.9.55-1.96.86-3.09.86-.33 0-.67 0-1 0-.01 0-.01 0-.02 0-2.48 0-4.91 0-5.98 0-.01 0-.01 0-.02 0-1.19 0-2.21-.7-2.69-1.71-1.39.77-2.29 2.23-2.29 3.86v.86h-.67c-.92 0-1.75.37-2.35.98-.61.6-.98 1.43-.98 2.35 0 1.05.49 2.04 1.33 2.67l2.67 2v7l-2.56-1.54c-2.31-1.38-4.17-3.32-5.45-5.59-1.29-2.26-1.99-4.85-1.99-7.55 0-8.46 6.86-15.32 15.32-15.32h6.68c1.66 0 3.16.67 4.24 1.76 1.09 1.08 1.76 2.58 1.76 4.24 0 2.18-1.17 4.09-2.91 5.13z" fill="#656d78"/></g><g><path d="m12 62h-10v-8.82c0-6.09 3.06-11.72 8.05-15.04l1.95 5.86 7 .54v4.46l12.39 2.86c.41 1.61.61 3.29.61 4.98v5.16z" fill="#ff826e"/></g><g><path d="m31.39 51.86-12.39-2.86v-4.46l4.23.32 7.71 5.4c.18.53.33 1.06.45 1.6z" fill="#fc6e51"/></g><g><path d="m23.23 44.86-4.23-.32-7-.54-1.95-5.86c.62-.42 1.27-.8 1.95-1.14z" fill="#fc6e51"/></g><g><path d="m27.09 13.14c.16.27 2.91 4.98 2.91 8.86l-2 1v4c0 .34-.03.68-.1 1-.46 2.28-2.48 4-4.9 4h-3v3.13c0 1.18.53 2.31 1.44 3.07l3 2.5c3.05 2.54 5.29 5.87 6.5 9.56l-7.71-5.4-11.23-7.86v-5-7l-2.67-2c-.84-.63-1.33-1.62-1.33-2.67 0-.92.37-1.75.98-2.35.6-.61 1.43-.98 2.35-.98h.67v-.86c0-1.63.9-3.09 2.29-3.86.48 1.01 1.5 1.71 2.69 1.71h.02 5.98.02 1c1.13 0 2.19-.31 3.09-.86z" fill="#f0d0b4"/></g><g><path d="m46 15c7.73 0 14 6.27 14 14s-6.27 14-14 14-14-6.27-14-14 6.27-14 14-14z" fill="#ffc729"/></g><g><circle cx="46" cy="29" fill="#fcd770" r="10"/></g></g><g><path d="m23 17h-2c0 1.654 1.346 3 3 3s3-1.346 3-3h-2c0 .551-.449 1-1 1s-1-.449-1-1z"/><path d="m25.084 39.935-3.004-2.504c-.686-.572-1.08-1.411-1.08-2.304v-2.127h1.999.005c1.602 0 3.107-.624 4.239-1.756 1.133-1.133 1.757-2.64 1.757-4.244v-3.382l2-1v-.618c0-3.262-1.735-6.935-2.598-8.562.189-.153.372-.316.547-.49 1.323-1.322 2.051-3.078 2.051-4.951 0-3.858-3.139-6.997-6.997-6.997h-6.679c-9.001 0-16.324 7.323-16.324 16.324 0 5.701 3.037 11.064 7.925 13.998l2.075 1.244v3.826c-6.185 3.343-10 9.719-10 16.789v9.819h32v-6.164c0-6.549-2.885-12.709-7.916-16.901zm3.893-18.541-1.977.988v4.618h-1.764c-.998 0-1.895-.555-2.341-1.447l-1.789.895c.788 1.575 2.37 2.553 4.13 2.553h1.212c-.173.297-.37.581-.619.83-.754.753-1.757 1.169-2.826 1.169-.001 0-.002 0-.003 0h-6v2h2v2.127c0 1.488.656 2.888 1.799 3.841l3.004 2.504c2.019 1.682 3.656 3.714 4.857 5.97l-15.66-10.963v-11.979l-3.066-2.3c-.585-.438-.934-1.136-.934-1.867 0-1.286 1.047-2.333 2.333-2.333h1.667v-1.858c0-.944.392-1.826 1.057-2.457.042.046.073.098.117.142.753.752 1.754 1.166 2.819 1.166h.01c1.219-.003 4.188-.001 6.997.002h.006c.933 0 1.839-.182 2.676-.528.729 1.392 2.099 4.314 2.295 6.927zm-17.044 16.78 7.733 5.413-6.927-.533-1.497-4.49c.225-.137.458-.264.691-.39zm8.067 7.444 2.886.222 6.457 4.52-9.343-2.156zm-10.045-16.012c-4.29-2.573-6.955-7.28-6.955-12.282 0-7.898 6.426-14.324 14.324-14.324h6.679c2.755 0 4.997 2.242 4.997 5 0 1.335-.52 2.589-1.464 3.533-.943.943-2.196 1.461-3.53 1.461-.001 0-.003 0-.004 0-.333 0-.669-.001-1.004-.001v-.001c-.001 0-.003 0-.005 0-.531 0-1.03-.207-1.406-.582-.379-.376-.587-.879-.587-1.414 0-1.1.896-1.996 1.996-1.996v-2c-2.204 0-3.996 1.792-3.996 3.996 0 .715.201 1.393.55 1.995-1.086 0-2.002 0-2.553.001-.001 0-.003 0-.005 0-.531 0-1.03-.207-1.406-.582-.378-.376-.586-.879-.586-1.414 0-1.1.896-1.996 1.996-1.996h.004l-.004-2c-2.204 0-3.996 1.792-3.996 3.996 0 .301.041.595.105.882-1.279.984-2.065 2.495-2.104 4.135-2.234.17-4.001 2.043-4.001 4.32 0 1.356.648 2.652 1.733 3.466l2.267 1.701v4.734zm21.045 31.394h-18v-6.172c0-2.092-.814-4.058-2.293-5.535l-1.414 1.414c1.101 1.101 1.707 2.564 1.707 4.121v6.172h-8v-7.819c0-5.343 2.437-10.24 6.527-13.437l1.734 5.203 6.739.518v4.331l12.565 2.9c.284 1.348.435 2.733.435 4.14z"/><path d="m47 24.184v-2.184h-2v2h-2v3c0 1.654 1.346 3 3 3 .551 0 1 .449 1 1v1h-1c-.551 0-1-.449-1-1v-1h-2v1c0 1.302.839 2.402 2 2.816v2.184h2v-2h2v-3c0-1.654-1.346-3-3-3-.551 0-1-.449-1-1v-1h1c.551 0 1 .449 1 1v1h2v-1c0-1.302-.839-2.402-2-2.816z"/><path d="m46 18c-6.065 0-11 4.935-11 11s4.935 11 11 11 11-4.935 11-11-4.935-11-11-11zm0 20c-4.962 0-9-4.037-9-9 0-4.962 4.038-9 9-9s9 4.038 9 9c0 4.963-4.038 9-9 9z"/><path d="m46 14c-8.271 0-15 6.729-15 15s6.729 15 15 15 15-6.729 15-15-6.729-15-15-15zm0 28c-7.168 0-13-5.832-13-13s5.832-13 13-13 13 5.832 13 13-5.832 13-13 13z"/><path d="m59 11h2v2h-2z"/><path d="m59 15h2v2h-2z"/><path d="m61 13h2v2h-2z"/><path d="m57 13h2v2h-2z"/><path d="m45 5h2v2h-2z"/><path d="m45 9h2v2h-2z"/><path d="m47 7h2v2h-2z"/><path d="m43 7h2v2h-2z"/><path d="m54 44h2v2h-2z"/><path d="m54 48h2v2h-2z"/><path d="m56 46h2v2h-2z"/><path d="m52 46h2v2h-2z"/><path d="m34 42h2v2h-2z"/><path d="m34 46h2v2h-2z"/><path d="m36 44h2v2h-2z"/><path d="m32 44h2v2h-2z"/><path d="m35 9h2v2h-2z"/><path d="m35 13h2v2h-2z"/><path d="m37 11h2v2h-2z"/><path d="m33 11h2v2h-2z"/></g></g></svg>