<svg id="_x33_0" enable-background="new 0 0 64 64" height="512" viewBox="0 0 64 64" width="512" xmlns="http://www.w3.org/2000/svg"><g><g><g><path d="m55 2c3.87 0 7 3.13 7 7s-3.13 7-7 7c-2.86 0-5.31-1.71-6.4-4.16-.39-.87-.6-1.83-.6-2.84 0-3.87 3.13-7 7-7z" fill="#ffc729"/></g><g><path d="m11.69 14.93c.2.31.31.68.31 1.07 0 1.1-.9 2-2 2s-2-.9-2-2 .9-2 2-2c.71 0 1.33.37 1.69.93z" fill="#fcd770"/></g><g><path d="m21 6c1.66 0 3 1.34 3 3 0 .48-.12.94-.32 1.34-.49.99-1.5 1.66-2.68 1.66-1.07 0-2-.55-2.53-1.39-.3-.46-.47-1.02-.47-1.61 0-1.66 1.34-3 3-3z" fill="#fcd770"/></g><g><path d="m39.74 15.78c.17.37.26.79.26 1.22 0 1.66-1.34 3-3 3s-3-1.34-3-3c0-.48.12-.94.32-1.34.49-.99 1.5-1.66 2.68-1.66 1.23 0 2.28.73 2.74 1.78z" fill="#fcd770"/></g><g><circle cx="55" cy="9" fill="#fcd770" r="3"/></g><g><path d="m31.83 24h13.93c.08 0 .16.01.24.03v5.97h-13.98c-.01-.16-.02-.31-.02-.47v-4.53c0-.35-.06-.69-.18-1z" fill="#ff826e"/></g><g><path d="m46 30v5.97c-.08.02-.16.03-.24.03h-9.76c-2.31-1.16-3.82-3.45-3.98-6z" fill="#4fc1e9"/></g><g><path d="m8 25v11h-2c-2.21 0-4-1.79-4-4v-4c0-2.21 1.79-4 4-4h2.17.01c-.12.31-.18.65-.18 1z" fill="#aab2bd"/></g><g><path d="m55.11 28.55-3.11-1.55-5.79-2.89c-.07-.03-.14-.06-.21-.08v5.97 5.97c.07-.02.14-.05.21-.08l5.79-2.89 3.11-1.55c.54-.28.89-.84.89-1.45s-.35-1.17-.89-1.45z" fill="#aab2bd"/></g><g><path d="m32.02 30c.16 2.55 1.67 4.84 3.98 6v3.49c0 2.27-.77 4.48-2.19 6.25l-1.81 2.26h-6.17-.01c-.4-1.17-1.51-2-2.82-2s-2.42.83-2.82 2h-.01-10.17c-1.3-1.96-2-4.25-2-6.61v-5.39-11c0-.35.06-.69.18-1 .4-1.17 1.51-2 2.82-2 .83 0 1.58.34 2.12.88s.88 1.29.88 2.12v-2c0-1.66 1.34-3 3-3 .83 0 1.58.34 2.12.88s.88 1.29.88 2.12c0-1.66 1.34-3 3-3 .83 0 1.58.34 2.12.88s.88 1.29.88 2.12v2c0-1.66 1.34-3 3-3 .83 0 1.58.34 2.12.88.31.31.56.69.7 1.12.12.31.18.65.18 1v4.53c0 .16.01.31.02.47z" fill="#f0d0b4"/></g><g><path d="m30 56v6h-18v-6h6.68c.8 0 1.52-.48 1.84-1.21l1.3-3.03c.36.15.76.24 1.18.24s.82-.09 1.18-.24l1.3 3.03c.32.73 1.04 1.21 1.84 1.21z" fill="#b4dd7f"/></g><g><path d="m25.83 48h6.17v7c0 .55-.45 1-1 1h-1-2.68c-.8 0-1.52-.48-1.84-1.21l-1.3-3.03c1.07-.46 1.82-1.52 1.82-2.76 0-.35-.06-.69-.18-1z" fill="#a0d468"/></g><g><path d="m21.82 51.76-1.3 3.03c-.32.73-1.04 1.21-1.84 1.21h-6.68-1c-.55 0-1-.45-1-1v-7h10.17.01c-.12.31-.18.65-.18 1 0 1.24.75 2.3 1.82 2.76z" fill="#a0d468"/></g><g><path d="m25.82 48c.12.31.18.65.18 1 0 1.24-.75 2.3-1.82 2.76-.36.15-.76.24-1.18.24s-.82-.09-1.18-.24c-1.07-.46-1.82-1.52-1.82-2.76 0-.35.06-.69.18-1 .4-1.17 1.51-2 2.82-2s2.42.83 2.82 2z" fill="#e6e9ed"/></g><g><path d="m56 40h6v22h-6z" fill="#ffeaa7"/></g><g><path d="m46 54h6v8h-6z" fill="#ffeaa7"/></g><g><path d="m36 50h6v12h-6z" fill="#ffeaa7"/></g></g><g><path d="m37 39.492v-2.492h8.764c.309 0 .618-.073.895-.211l8.895-4.447c.891-.446 1.446-1.344 1.446-2.342s-.555-1.896-1.447-2.342l-8.895-4.447c-.276-.138-.586-.211-.894-.211h-13.32c-.694-1.19-1.97-2-3.444-2-.829 0-1.6.254-2.239.687-.547-1.559-2.017-2.687-3.761-2.687-1.201 0-2.266.542-3 1.382-.734-.84-1.799-1.382-3-1.382-1.744 0-3.214 1.128-3.761 2.687-.639-.433-1.41-.687-2.239-.687-1.474 0-2.75.81-3.444 2h-1.556c-2.757 0-5 2.243-5 5v4c0 2.757 2.243 5 5 5h1v4.395c0 2.449.695 4.821 2 6.887v6.718c0 1.103.897 2 2 2v6h20v-6c1.103 0 2-.897 2-2v-6.648l1.59-1.987c1.554-1.944 2.41-4.385 2.41-6.873zm-31-4.492c-1.654 0-3-1.346-3-3v-4c0-1.654 1.346-3 3-3h1v10zm41-9.382 4 2v4.764l-4 2zm-2 9.382h-8.732c-1.575-.853-2.674-2.304-3.082-4h11.814zm10-5c0 .236-.131.447-.342.553l-1.658.829v-2.764l1.658.829c.211.106.342.317.342.553zm-10-5v4h-12v-4zm-24.437 27.149-.962 2.244c-.159.369-.519.607-.919.607h-7.682v-6h8c0 1.285.619 2.417 1.563 3.149zm2.437-1.149c-1.103 0-2-.897-2-2s.897-2 2-2 2 .897 2 2-.897 2-2 2zm6 10h-16v-4h5.682c1.201 0 2.283-.714 2.757-1.818l.961-2.242c.197.029.394.06.6.06s.403-.031.6-.061l.961 2.243c.474 1.104 1.556 1.818 2.757 1.818h1.682zm2-6h-3.682c-.4 0-.761-.238-.919-.605l-.962-2.245c.944-.733 1.563-1.865 1.563-3.15h4zm.519-8h-5.075c-.694-1.19-1.97-2-3.444-2s-2.75.81-3.444 2h-8.998c-1.017-1.695-1.558-3.62-1.558-5.605v-16.395c0-1.103.897-2 2-2s2 .897 2 2v8h2v-10c0-1.103.897-2 2-2s2 .897 2 2v10h2v-10c0-1.103.897-2 2-2s2 .897 2 2v10h2v-8c0-1.103.897-2 2-2s2 .897 2 2v4.528c0 2.928 1.518 5.581 4 7.064v2.9c0 2.036-.7 4.033-1.973 5.622z"/><path d="m55 61h-2v-8h-8v8h-2v-12h-8v14h28v-24h-8zm-14 0h-4v-10h4zm6-6h4v6h-4zm10-14h4v20h-4z"/><path d="m55 13c2.206 0 4-1.794 4-4s-1.794-4-4-4-4 1.794-4 4 1.794 4 4 4zm0-6c1.103 0 2 .897 2 2s-.897 2-2 2-2-.897-2-2 .897-2 2-2z"/><path d="m10 19c1.654 0 3-1.346 3-3 0-.232-.032-.455-.082-.671l5.363-3.413c.714.667 1.666 1.084 2.719 1.084 1.2 0 2.266-.542 3-1.382l9.091 4.546c-.058.27-.091.549-.091.836 0 2.206 1.794 4 4 4s4-1.794 4-4c0-.224-.031-.44-.066-.654l7.229-3.213c1.404 2.313 3.939 3.867 6.837 3.867 4.411 0 8-3.589 8-8s-3.589-8-8-8-8 3.589-8 8c0 .803.122 1.577.343 2.309l-7.228 3.212c-.733-.919-1.85-1.521-3.115-1.521-1.2 0-2.266.542-3 1.382l-9.091-4.546c.058-.27.091-.549.091-.836 0-2.206-1.794-4-4-4s-4 1.794-4 4c0 .43.086.837.212 1.225l-5.375 3.421c-.509-.399-1.142-.646-1.837-.646-1.654 0-3 1.346-3 3s1.346 3 3 3zm45-16c3.309 0 6 2.691 6 6s-2.691 6-6 6-6-2.691-6-6 2.691-6 6-6zm-18 12c1.103 0 2 .897 2 2s-.897 2-2 2-2-.897-2-2 .897-2 2-2zm-16-8c1.103 0 2 .897 2 2s-.897 2-2 2-2-.897-2-2 .897-2 2-2zm-11 8c.552 0 1 .449 1 1s-.448 1-1 1-1-.449-1-1 .448-1 1-1z"/><path d="m51 21h2v2h-2z"/><path d="m55 21h2v2h-2z"/><path d="m59 21h2v2h-2z"/></g></g></svg>