<svg id="_x33_0" enable-background="new 0 0 64 64" height="512" viewBox="0 0 64 64" width="512" xmlns="http://www.w3.org/2000/svg"><g><g><g><path d="m22 46v8c0 4.42-3.58 8-8 8h-4c-4.42 0-8-3.58-8-8v-8h10z" fill="#aab2bd"/></g><g><path d="m22 42v4h-10v-4h1c.55 0 1-.45 1-1v-7c4.42 0 8 3.58 8 8z" fill="#ccd1d9"/></g><g><path d="m12 42v4h-10v-4c0-4.42 3.58-8 8-8v7c0 .55.45 1 1 1z" fill="#ccd1d9"/></g><g><path d="m14 34v7c0 .55-.45 1-1 1h-1-1c-.55 0-1-.45-1-1v-7h2z" fill="#ffeaa7"/></g><g><path d="m61 6h-7c0 .6-.37 1.14-.94 1.35l-6.89 2.59c-.05.02-.11.04-.17.04-.06.02-.12.02-.18.02h-1.82v6h-12v-6h-4v10 19h4l.26.07c.31-1.26-.05-2.61-.99-3.56l-.41-.41 4.24-4.24.41.41c1.09 1.08 2.71 1.4 4.12.81.02-.01.03-.02.05-.02 1.4-.58 2.32-1.95 2.32-3.48v-.58h6v.58c0 1.53.92 2.9 2.32 3.48.02 0 .03.01.05.02 1.41.59 3.03.27 4.12-.81l.41-.41 4.24 4.24-.41.41c-.94.95-1.3 2.3-.99 3.56l.26-.07h4v-19-13c0-.55-.45-1-1-1z" fill="#f0d0b4"/></g><g><path d="m32 10h12v6h-12z" fill="#e6e9ed"/></g><g><path d="m22 2v8h-2c-2.21 0-4-1.79-4-4 0-1.1.45-2.1 1.17-2.83.73-.72 1.73-1.17 2.83-1.17z" fill="#aab2bd"/></g><g><path d="m53.06 4.65c.57.21.94.75.94 1.35s-.37 1.14-.94 1.35l-6.89 2.59c-.05.02-.11.04-.17.04v-3.98-3.98c.06 0 .12.02.17.04z" fill="#aab2bd"/></g><g><path d="m26 6v4h-4v-8h4z" fill="#ffeaa7"/></g><g><path d="m46 2.02v3.98h-20v-4h19.82c.06 0 .12 0 .18.02z" fill="#b4dd7f"/></g><g><path d="m46 9.98c-.06.02-.12.02-.18.02h-1.82-12-4-2v-4h20z" fill="#ff826e"/></g><g><path d="m62 42v6h-.58c-1.53 0-2.9.92-3.48 2.32 0 .02-.01.03-.02.05-.59 1.41-.27 3.03.81 4.12l.41.41-4.24 4.24-.41-.41c-1.09-1.08-2.71-1.4-4.12-.81-.02.01-.03.02-.05.02-1.4.58-2.32 1.95-2.32 3.48v.58h-6v-.58c0-1.53-.92-2.9-2.32-3.48-.02 0-.03-.01-.05-.02-1.41-.59-3.03-.27-4.12.81l-.41.41-4.24-4.24.41-.41c1.08-1.09 1.4-2.71.81-4.12-.01-.02-.02-.03-.02-.05-.58-1.4-1.95-2.32-3.48-2.32h-.58v-6h.58c1.53 0 2.9-.92 3.48-2.32 0-.02.01-.03.02-.05.08-.18.14-.37.18-.56.31-1.26-.05-2.61-.99-3.56l-.41-.41 4.24-4.24.41.41c1.09 1.08 2.71 1.4 4.12.81.02-.01.03-.02.05-.02 1.4-.58 2.32-1.95 2.32-3.48v-.58h6v.58c0 1.53.92 2.9 2.32 3.48.02 0 .03.01.05.02 1.41.59 3.03.27 4.12-.81l.41-.41 4.24 4.24-.41.41c-.94.95-1.3 2.3-.99 3.56.04.19.1.38.18.56.01.02.02.03.02.05.58 1.4 1.95 2.32 3.48 2.32zm-8 3c0-4.97-4.03-9-9-9s-9 4.03-9 9 4.03 9 9 9 9-4.03 9-9z" fill="#ffc729"/></g><g><path d="m45 36c4.97 0 9 4.03 9 9s-4.03 9-9 9-9-4.03-9-9 4.03-9 9-9zm5 9c0-2.76-2.24-5-5-5s-5 2.24-5 5 2.24 5 5 5 5-2.24 5-5z" fill="#fcd770"/></g></g><g><path d="m45 39c-3.309 0-6 2.691-6 6s2.691 6 6 6 6-2.691 6-6-2.691-6-6-6zm0 10c-2.206 0-4-1.794-4-4s1.794-4 4-4 4 1.794 4 4-1.794 4-4 4z"/><path d="m45 35c-5.514 0-10 4.486-10 10s4.486 10 10 10 10-4.486 10-10-4.486-10-10-10zm0 18c-4.411 0-8-3.589-8-8s3.589-8 8-8 8 3.589 8 8-3.589 8-8 8z"/><path d="m58.846 39.247c-.436-1.045-.204-2.232.589-3.025l1.123-1.12-5.658-5.658-1.12 1.12c-.794.793-1.979 1.027-3.074.57-1.037-.428-1.706-1.428-1.706-2.55v-1.584h-8v1.584c0 1.121-.669 2.122-1.753 2.57-1.045.435-2.231.204-3.026-.59l-1.12-1.12-5.658 5.658 1.122 1.119c.794.794 1.025 1.981.57 3.074-.429 1.036-1.43 1.705-2.551 1.705h-1.584v8h1.584c1.121 0 2.122.669 2.57 1.753.436 1.045.204 2.232-.589 3.025l-1.123 1.12 5.659 5.659 1.119-1.122c.794-.794 1.979-1.024 3.074-.57 1.037.429 1.706 1.43 1.706 2.551v1.584h8v-1.584c0-1.121.669-2.122 1.753-2.57 1.045-.434 2.232-.203 3.025.589l1.12 1.123 5.659-5.659-1.122-1.119c-.794-.794-1.025-1.981-.57-3.074.429-1.037 1.43-1.706 2.551-1.706h1.584v-8h-1.584c-1.121 0-2.122-.669-2.57-1.753zm2.154 7.771c-1.762.153-3.299 1.27-4 2.966-.695 1.666-.4 3.547.74 4.903l-2.853 2.854c-1.357-1.14-3.241-1.433-4.946-.723-1.658.686-2.771 2.221-2.924 3.982h-4.035c-.153-1.762-1.27-3.299-2.966-4-1.665-.696-3.547-.399-4.903.74l-2.854-2.853c1.14-1.357 1.434-3.241.723-4.946-.686-1.658-2.221-2.771-3.982-2.924v-4.035c1.762-.153 3.299-1.27 4-2.966.695-1.666.4-3.547-.74-4.903l2.854-2.854c1.358 1.141 3.241 1.433 4.945.723 1.657-.685 2.771-2.22 2.924-3.982h4.035c.152 1.763 1.27 3.299 2.966 4 1.665.695 3.545.4 4.903-.741l2.854 2.854c-1.14 1.356-1.434 3.24-.723 4.945.686 1.658 2.221 2.771 3.982 2.924z"/><circle cx="45" cy="58" r="1"/><path d="m54 53c-.256 0-.512.098-.707.293-.391.391-.391 1.024 0 1.414.195.195.451.293.707.293s.512-.098.707-.293c.391-.391.391-1.024 0-1.414-.195-.195-.451-.293-.707-.293z"/><circle cx="58" cy="45" r="1"/><path d="m54 35c-.256 0-.512.098-.707.293-.391.391-.391 1.024 0 1.414.195.195.451.293.707.293s.512-.098.707-.293c.391-.391.391-1.024 0-1.414-.195-.195-.451-.293-.707-.293z"/><circle cx="45" cy="32" r="1"/><path d="m36 37c.256 0 .512-.098.707-.293.391-.391.391-1.024 0-1.414-.195-.195-.451-.293-.707-.293s-.512.098-.707.293c-.391.391-.391 1.024 0 1.414.195.195.451.293.707.293z"/><circle cx="32" cy="45" r="1"/><path d="m36 53c-.256 0-.512.098-.707.293-.391.391-.391 1.024 0 1.414.195.195.451.293.707.293s.512-.098.707-.293c.391-.391.391-1.024 0-1.414-.195-.195-.451-.293-.707-.293z"/><path d="m61 5h-6.221c-.263-.582-.745-1.056-1.364-1.288l-6.895-2.585c-.225-.085-.461-.127-.702-.127h-25.818c-2.414 0-4.434 1.721-4.899 4h-9.101c-2.757 0-5 2.243-5 5s2.243 5 5 5h15c1.103 0 2 .897 2 2s-.897 2-2 2h-16c-2.206 0-4 1.794-4 4s1.794 4 4 4h5c.552 0 1 .449 1 1v5h-1c-4.963 0-9 4.037-9 9v12c0 4.963 4.037 9 9 9h4c4.963 0 9-4.037 9-9v-12c0-4.963-4.037-9-9-9h-1v-5c0-1.654-1.346-3-3-3h-5c-1.103 0-2-.897-2-2s.897-2 2-2h16c2.206 0 4-1.794 4-4s-1.794-4-4-4h-15c-1.654 0-3-1.346-3-3s1.346-3 3-3h9.101c.465 2.279 2.484 4 4.899 4h7v28h2v-28h2v6h14v-6h.818c.24 0 .477-.042.703-.127l6.894-2.585c.619-.232 1.101-.706 1.364-1.288h6.221v32h2v-32c0-1.103-.897-2-2-2zm-50 36v-6h2v6zm-2-5.92v5.92c0 1.103.897 2 2 2v2h-8v-3c0-3.519 2.614-6.432 6-6.92zm5 25.92h-4c-3.859 0-7-3.141-7-7v-7h18v7c0 3.859-3.141 7-7 7zm7-19v3h-8v-2c1.103 0 2-.897 2-2v-5.92c3.386.488 6 3.401 6 6.92zm24-37h-18v-2h18zm-20 4h-2v-6h2zm2-2h18v2h-18zm20-3.557 2 .75v3.614l-2 .75zm-30 2.557c0-1.654 1.346-3 3-3h1v6h-1c-1.654 0-3-1.346-3-3zm26 9h-10v-4h10zm9.713-8.585-1.713.642v-2.114l1.713.642c.172.065.287.231.287.415s-.115.35-.287.415z"/><path d="m31 19h14v2h-14z"/><path d="m31 23h14v2h-14z"/><path d="m47 23h2v2h-2z"/><path d="m51 23h2v2h-2z"/><path d="m55 23h2v2h-2z"/><path d="m47 19h12v2h-12z"/><path d="m47 15h12v2h-12z"/><path d="m49 11h10v2h-10z"/></g></g></svg>