<svg id="_x33_0" enable-background="new 0 0 64 64" height="512" viewBox="0 0 64 64" width="512" xmlns="http://www.w3.org/2000/svg"><g><g><g><path d="m42 19v5h-4v2.59c0 .78-.63 1.41-1.41 1.41-.38 0-.74-.15-1-.41l-3.59-3.59h-5c-.55 0-1-.45-1-1v-6c0-.55.45-1 1-1h3.59 10.41l-1 2z" fill="#e6e9ed"/></g><g><path d="m36 5v6c0 .55-.45 1-1 1h-3v2.59c0 .78-.63 1.41-1.41 1.41-.38 0-.74-.15-1-.41l-3.59-3.59h-5l-.17-.34c1.85-.74 3.17-2.54 3.17-4.66 0-1.13-.37-2.17-1-3h12c.55 0 1 .45 1 1z" fill="#e6e9ed"/></g><g><path d="m19 12c-2.01 0-4.26 0-6 0-.07 0-.13 0-.2-.01l-.8 4.01h-.91c-1.71 0-3.09 1.38-3.09 3.09 0 1.17.66 2.24 1.71 2.76l2.29 1.15v5l-4.76-1.78c-1.95-.74-3.24-2.6-3.24-4.69v-1.53l-.95-1.43c-.69-1.02-1.05-2.22-1.05-3.47v-.06c0-1.91.9-3.72 2.43-4.87l.25-.18c-.45-.8-.68-1.7-.68-2.62 0-2.96 2.41-5.37 5.37-5.37h9.63c1.38 0 2.63.56 3.54 1.46.17.17.32.35.46.54.63.83 1 1.87 1 3 0 2.12-1.32 3.92-3.17 4.66-.57.22-1.19.34-1.83.34z" fill="#b27946"/></g><g><path d="m9.81 54.19c2.35 2.35 5.6 3.81 9.19 3.81 1.03 0 2.04-.12 3-.35v4.35h-14v-10.07h.01c.51.82 1.12 1.58 1.8 2.26z" fill="#fcd770"/></g><g><path d="m16 41 6 2v.05 6.6c.85-.29 1.62-.78 2.24-1.41 1.09-1.08 1.76-2.58 1.76-4.24h6v1c0 6.15-4.27 11.3-10 12.65-.96.23-1.97.35-3 .35-3.59 0-6.84-1.46-9.19-3.81-.68-.68-1.29-1.44-1.8-2.26-1.27-2-2.01-4.38-2.01-6.93v-3.29c0-4.11 2.32-7.87 6-9.71v5l4 .89z" fill="#fcd770"/></g><g><path d="m22 43-6-2v-3.11l5.26 1.17c.47 1.23.73 2.56.74 3.94z" fill="#ffc729"/></g><g><path d="m18 34.51 1.13 1.09c.91 1.01 1.63 2.18 2.13 3.46l-5.26-1.17-4-.89v-5c2.28.23 4.35 1.14 6 2.51z" fill="#ffc729"/></g><g><path d="m56 55.21v6.79h-12c5.09 0 9.55-2.72 12-6.79z" fill="#b4dd7f"/></g><g><path d="m46 55.65v-6.65c0-.55-.45-1-1-1h-3v-4.95c0-.02 0-.03 0-.05l6-2v-3.11l4-.89v-5c1.84.92 3.34 2.32 4.38 4 1.04 1.69 1.62 3.66 1.62 5.71v6.29c0 2.63-.73 5.1-2 7.21-2.45 4.07-6.91 6.79-12 6.79h-2v-6h2c.7 0 1.37-.12 2-.34z" fill="#b4dd7f"/></g><g><path d="m38 56.17v-7.17c0-.55.45-1 1-1h3 3c.55 0 1 .45 1 1v6.65.01c-.63.22-1.3.34-2 .34h-2-3c-.35 0-.69.06-1 .18z" fill="#e6e9ed"/></g><g><path d="m48 37.89v3.11l-6 2c.01-1.38.27-2.71.74-3.94z" fill="#a0d468"/></g><g><path d="m52 32v5l-4 .89-5.26 1.17c.69-1.78 1.81-3.34 3.26-4.55 1.65-1.37 3.72-2.28 6-2.51z" fill="#a0d468"/></g><g><path d="m51.2 11.99c-.07.01-.13.01-.2.01-1.74 0-3.99 0-6 0-.64 0-1.26-.12-1.83-.34-1.85-.74-3.17-2.54-3.17-4.66 0-1.38.56-2.63 1.46-3.54.91-.9 2.16-1.46 3.54-1.46h4.02c7.17 0 12.98 5.81 12.98 12.98 0 2.46-.7 4.81-1.94 6.82-1.24 2.02-3.04 3.69-5.23 4.79l-2.83 1.41v-5l2.29-1.15c1.05-.52 1.71-1.59 1.71-2.76 0-1.71-1.38-3.09-3.09-3.09h-.91z" fill="#656d78"/></g><g><path d="m22 24c0 2.21-1.79 4-4 4v6.51c-1.65-1.37-3.72-2.28-6-2.51v-4-5l-2.29-1.15c-1.05-.52-1.71-1.59-1.71-2.76 0-1.71 1.38-3.09 3.09-3.09h.91l.8-4.01c.07.01.13.01.2.01h6c.64 0 1.26-.12 1.83-.34l.17.34 3 6-2 1z" fill="#f0d0b4"/></g><g><path d="m32 41v3h-6v-3c0-1.66 1.34-3 3-3 .83 0 1.58.34 2.12.88s.88 1.29.88 2.12z" fill="#f0d0b4"/></g><g><path d="m42 56v6h-3c-1.66 0-3-1.34-3-3 0-.83.34-1.58.88-2.12.31-.31.69-.56 1.12-.7.31-.12.65-.18 1-.18z" fill="#f0d0b4"/></g><g><path d="m52 28v4c-2.28.23-4.35 1.14-6 2.51v-6.51c-2.21 0-4-1.79-4-4v-5l-2-1 1-2 2.17-4.34c.57.22 1.19.34 1.83.34h6c.07 0 .13 0 .2-.01l.8 4.01h.91c1.71 0 3.09 1.38 3.09 3.09 0 1.17-.66 2.24-1.71 2.76l-2.29 1.15z" fill="#f0d0b4"/></g></g><g><circle cx="19" cy="16" r="1"/><circle cx="45" cy="16" r="1"/><path d="m55.272 27.482c4.767-2.383 7.728-7.174 7.728-12.503 0-7.708-6.271-13.979-13.979-13.979h-4.021c-3.309 0-6 2.691-6 6 0 2.148 1.137 4.03 2.837 5.09l-1.455 2.91h-7.424c.024-.135.042-.272.042-.414v-1.586h2c1.103 0 2-.897 2-2v-6c0-1.103-.897-2-2-2h-11.54c-1.1-1.224-2.689-2-4.46-2h-9.627c-3.514 0-6.373 2.859-6.373 6.373 0 .803.166 1.585.456 2.322-1.541 1.337-2.456 3.299-2.456 5.407 0 1.439.42 2.83 1.214 4.022l.786 1.179v1.232c0 2.487 1.564 4.745 3.893 5.618l4.107 1.54v2.713c-3.715 2.106-6 5.994-6 10.302v3.292c0 2.624.739 5.073 2 7.174v10.826h50v-7.548c1.265-2.198 2-4.738 2-7.452v-6.292c0-4.307-2.285-8.196-6-10.302v-2.788zm-10.272-24.482h4.021c6.605 0 11.979 5.374 11.979 11.979 0 4.566-2.537 8.672-6.622 10.714l-1.378.689v-2.764l1.739-.87c1.395-.697 2.261-2.099 2.261-3.658 0-2.255-1.835-4.09-4.09-4.09h-.09l-.451-2.253c.542-.198 1.043-.501 1.462-.922.754-.757 1.169-1.765 1.169-2.84 0-1.064-.415-2.065-1.168-2.818-.752-.752-1.753-1.167-2.817-1.167h-.001-.014l.014 2h.001c.53 0 1.028.207 1.403.582s.582.873.582 1.403c0 .542-.208 1.049-.586 1.429-.376.378-.877.586-1.41.586-.001 0-.001 0-.001 0h-6.006c-2.204 0-3.997-1.794-3.997-4s1.794-4 4-4zm0 51.899c-.323.066-.658.101-1 .101h-5v-6h6zm-6-7.899c-1.103 0-2 .897-2 2v6.556c-1.19.694-2 1.97-2 3.444 0 .732.212 1.409.556 2h-12.556v-2.59c5.775-1.726 10-7.081 10-13.41v-4c0-2.206-1.794-4-4-4s-4 1.794-4 4v3c0 1.633-.786 3.085-2 3.998v-4.948c0-3.566-1.532-6.78-4-9.001v-5.15c2.279-.465 4-2.484 4-4.899v-4.382l2-1v4.382c0 1.103.897 2 2 2h4.586l3.292 3.292c.449.45 1.071.708 1.708.708 1.331 0 2.414-1.083 2.414-2.414v-1.586h2.101c.399 1.956 1.943 3.5 3.899 3.899v5.15c-2.468 2.221-4 5.435-4 9.001v3.95zm-8-4h-4v-2c0-1.103.897-2 2-2s2 .897 2 2zm-17.381-30h5.383c.449 0 .884-.054 1.305-.147l2.35 4.7-1.657.829v4.618h-.764c-.998 0-1.896-.555-2.342-1.447l-1.789.895c.789 1.574 2.372 2.552 4.131 2.552h.579c-.414 1.161-1.514 2-2.816 2h-3v2h2v3.599c-1.21-.705-2.555-1.208-4-1.461v-8.756l-2.845-1.422c-.712-.356-1.154-1.073-1.154-1.87 0-1.152.938-2.09 2.09-2.09h1.73zm-.619 20.17c2.721.574 5.002 2.216 6.424 4.455l-6.424-1.427zm4 5.965 3.497.777c.174.536.303 1.091.386 1.661l-3.883-1.294zm26.503.778 3.497-.778v1.144l-3.883 1.295c.083-.571.212-1.125.386-1.661zm1.073-2.288c1.422-2.239 3.703-3.881 6.424-4.455v3.028zm-.884-24.772c.421.093.856.147 1.305.147h5.383l.799 4h1.73c1.152 0 2.09.938 2.09 2.09 0 .797-.442 1.513-1.155 1.869l-2.844 1.423v8.756c-1.445.253-2.79.757-4 1.461v-3.599h2v-2h-3c-1.302 0-2.402-.839-2.816-2h.579c1.76 0 3.343-.978 4.131-2.553l-1.789-.895c-.446.893-1.343 1.448-2.341 1.448h-.764v-4.618l-1.658-.829zm-2.692 6.765v3.382h-4v3.586c0 .338-.469.531-.707.293l-3.879-3.879h-5.414v-6h12.382l-.724 1.447zm-14-4.618c-1.103 0-2 .897-2 2v.764l-2.382-4.764h2.968l2 2zm8-10v6h-4v3.586c0 .337-.469.532-.707.293l-3.879-3.879h-2.954c.954-1.063 1.54-2.462 1.54-4 0-.702-.128-1.373-.35-2zm-27.404 20.28c-1.553-.582-2.596-2.087-2.596-3.745v-1.838l-1.122-1.683c-.574-.861-.878-1.868-.878-2.972 0-1.333.538-2.61 1.458-3.553l.71 1.065 1.664-1.109-1.098-1.646c-.48-.721-.734-1.56-.734-2.426 0-2.411 1.962-4.373 4.373-4.373h9.627c2.206 0 4 1.794 4 4s-1.793 4-3.997 4h-.003c-1.103 0-2-.897-2-2s.897-2 2-2v-2c-2.206 0-4 1.794-4 4 0 .732.212 1.409.556 2h-2.559c-.001 0-.001 0-.001 0-.533 0-1.034-.208-1.41-.585-.378-.38-.586-.888-.586-1.43 0-.53.207-1.029.582-1.404s.873-.581 1.403-.581h.001.014l-.014-2s0 0-.001 0c-1.064 0-2.065.415-2.817 1.167-.753.753-1.168 1.754-1.168 2.818 0 1.074.415 2.083 1.168 2.84.419.421.92.725 1.462.922l-.45 2.253h-.09c-2.255 0-4.09 1.835-4.09 4.09 0 1.559.866 2.961 2.261 3.658l1.739.87v2.939zm-.596 16.428c0-3.182 1.5-6.088 4-7.925v4.019l4 .889v3.03l6 2v5.179c-.323.066-.657.1-1 .1-2.757 0-5-2.243-5-5v-1h-2v1c0 3.859 3.141 7 7 7 3.519 0 6.432-2.614 6.92-6h4.08c0 6.617-5.383 12-12 12s-12-5.383-12-12zm2 13.071c2.543 2.6 6.084 4.221 10 4.221.681 0 1.345-.065 2-.16v2.16h-12zm28 4.221c0-1.103.897-2 2-2h2v4h-2c-1.103 0-2-.897-2-2zm18 2h-3.548c1.324-.762 2.517-1.721 3.548-2.836zm2-19.292v6.292c0 7.168-5.832 13-13 13h-1v-4h1c3.859 0 7-3.141 7-7v-5h-2v5c0 1.627-.793 3.061-2 3.974v-4.974c0-1.103-.897-2-2-2h-2v-3.28l6-2v-3.03l4-.889v-4.019c2.5 1.838 4 4.744 4 7.926z"/><path d="m27 7h2v2h-2z"/><path d="m31 7h2v2h-2z"/><path d="m29 19h2v2h-2z"/><path d="m33 19h2v2h-2z"/><path d="m37 19h2v2h-2z"/></g></g></svg>