<svg id="_x33_0" enable-background="new 0 0 64 64" height="512" viewBox="0 0 64 64" width="512" xmlns="http://www.w3.org/2000/svg"><g><g><g><path d="m6 45v-3.74c0-7.01 5.18-12.94 12.13-13.88l1.87 5.62 2.22-1.33.78 2.33-1 4h-4v6h6v6h-13c-2.76 0-5-2.24-5-5z" fill="#fcd770"/></g><g><path d="m45 37 7.91-11.86 1.15.8 2.94 2.06-7.34 13.86c-.51.96-1.27 1.75-2.17 2.29-.9.55-1.95.85-3.04.85-1.57 0-3.07-.62-4.18-1.73l-2.27-2.27v9h-4v-12h-6l-1-4 .78-2.33 2.22 1.33 1.88-5.63c3.33.44 6.38 2.06 8.62 4.57z" fill="#fcd770"/></g><g><path d="m31.88 27.37-1.88 5.63-2.22-1.33-2.78-1.67 4-3 2.77.35c.04 0 .07.01.11.02z" fill="#ffc729"/></g><g><path d="m25 30-2.78 1.67-2.22 1.33-1.87-5.62h.02l2.85-.38z" fill="#ffc729"/></g><g><path d="m27 34 1 4h-6l1-4z" fill="#4fc1e9"/></g><g><path d="m27.78 31.67-.78 2.33h-4l-.78-2.33 2.78-1.67z" fill="#3bafda"/></g><g><path d="m27.34 8.87-.34.13h-6l-.77.52c-1.39.92-2.23 2.48-2.23 4.16v.32h-1c-.8 0-1.52.31-2.05.81l-.71-2.85c-.16-.64-.24-1.29-.24-1.95 0-2.21.9-4.21 2.35-5.66s3.45-2.35 5.66-2.35h5.98c4.42 0 8.01 3.59 8.01 8.01 0 .66-.08 1.31-.24 1.95l-.71 2.85c-.53-.5-1.25-.81-2.05-.81h-1.21c-.3-.89-.9-1.67-1.73-2.17l-.49-.29c-1.04-.62-1.81-1.57-2.23-2.67z" fill="#656d78"/></g><g><path d="m4 54h44v8h-44z" fill="#d3a06c"/></g><g><path d="m50 50v4h-2-44-2v-4h9 13 3 7 4z" fill="#b27946"/></g><g><path d="m30 47c0-.83-.34-1.58-.88-2.12s-1.29-.88-2.12-.88h-3-6v-6h4 6 6v12h-7c1.66 0 3-1.34 3-3z" fill="#e6e9ed"/></g><g><path d="m56.65 23.35 2.35 2.65c0 .55-.22 1.05-.59 1.41-.36.37-.86.59-1.41.59l-2.94-2.06z" fill="#aab2bd"/></g><g><path d="m52 18.12 4.65 5.23-2.59 2.59-1.15-.8-4.5-3.16c1.98-.2 3.53-1.84 3.58-3.86z" fill="#aab2bd"/></g><g><path d="m52 18c0 .04 0 .08-.01.12-.05 2.02-1.6 3.66-3.58 3.86h-.01c-.13.01-.27.02-.4.02-2.21 0-4-1.79-4-4s1.79-4 4-4 4 1.79 4 4z" fill="#ccd1d9"/></g><g><path d="m29.12 44.88c.54.54.88 1.29.88 2.12 0 1.66-1.34 3-3 3h-3v-6h3c.83 0 1.58.34 2.12.88z" fill="#f0d0b4"/></g><g><path d="m35.05 14.81c.59.55.95 1.33.95 2.19 0 .83-.34 1.58-.88 2.12s-1.29.88-2.12.88h-1.1c.07-.32.1-.66.1-1v-3.74c0-.44-.07-.86-.21-1.26h1.21c.8 0 1.52.31 2.05.81z" fill="#f0d0b4"/></g><g><path d="m28.21 23.85.79 3.15-4 3-4-3 .79-3.15c.39.1.79.15 1.21.15h4c.42 0 .82-.05 1.21-.15z" fill="#f0d0b4"/></g><g><path d="m18.1 20h-1.1c-.83 0-1.58-.34-2.12-.88s-.88-1.29-.88-2.12c0-.86.36-1.64.95-2.19.53-.5 1.25-.81 2.05-.81h1v5c0 .34.03.68.1 1z" fill="#f0d0b4"/></g><g><path d="m32 15.26v3.74c0 .34-.03.68-.1 1-.38 1.89-1.83 3.39-3.69 3.85-.39.1-.79.15-1.21.15h-4c-.42 0-.82-.05-1.21-.15-1.86-.46-3.31-1.96-3.69-3.85-.07-.32-.1-.66-.1-1v-5-.32c0-1.68.84-3.24 2.23-4.16l.77-.52h6l.34-.13c.42 1.1 1.19 2.05 2.23 2.67l.49.29c.83.5 1.43 1.28 1.73 2.17.14.4.21.82.21 1.26z" fill="#f0d0b4"/></g></g><g><path d="m23 19v2h2c1.615 0 3.067-.897 3.789-2.342l.105-.211-1.789-.895-.105.212c-.381.762-1.147 1.236-2 1.236z"/><circle cx="22" cy="15" r="1"/><circle cx="28" cy="15" r="1"/><path d="m25.707 11.293c-1.101-1.101-1.707-2.564-1.707-4.121v-.172h-2v.172c0 2.092.814 4.058 2.293 5.535z"/><path d="m60.95 28.535-1.25-1.25c.187-.391.3-.823.3-1.285v-.38l-7.029-7.908c-.152-2.621-2.313-4.712-4.971-4.712-2.757 0-5 2.243-5 5s2.243 5 5 5c.034 0 .065-.009.099-.01l3.436 2.405-6.648 9.972-3.639-4.094c-2.419-2.721-5.74-4.468-9.351-4.919l-2.092-.262-.4-1.599c1.509-.663 2.69-1.93 3.246-3.494h.349c2.206 0 4-1.794 4-4 0-.925-.329-1.767-.858-2.446l.589-2.355c.179-.714.269-1.449.269-2.184 0-4.97-4.043-9.014-9.014-9.014h-5.973c-4.97 0-9.013 4.044-9.013 9.014 0 .735.09 1.471.269 2.186l.589 2.355c-.529.678-.858 1.52-.858 2.445 0 2.206 1.794 4 4 4h.35c.555 1.563 1.737 2.831 3.246 3.494l-.401 1.605-2.177.29c-7.422.99-13.018 7.382-13.018 14.868v3.743c0 1.538.586 2.937 1.54 4h-5.54v6h2v6h-2v2h62v-29.515c0-1.869-.728-3.627-2.05-4.95zm-3.685-1.57-1.656-1.159.995-.996 1.343 1.511c-.106.312-.363.556-.682.644zm-12.265-8.965c0-1.654 1.346-3 3-3s3 1.346 3 3-1.346 3-3 3-3-1.346-3-3zm7.482 2.173 2.791 3.14-1.328 1.328-3.385-2.369c.829-.499 1.496-1.225 1.922-2.099zm-12.73 12.429 3.987 4.486-1.572 2.358 1.664 1.109 9.342-14.012 2.529 1.77-6.924 13.078c-.851 1.609-2.511 2.609-4.333 2.609-1.31 0-2.541-.51-3.467-1.437l-1.978-1.977v-3.586h-2v12h-2v-12h-6.219l-.74-2.96.292-.874 2.222 1.333 2.001-6.005c2.775.548 5.305 1.981 7.196 4.108zm-12.752 12.398c1.103 0 2 .897 2 2s-.897 2-2 2h-2v-4zm0-2h-8v-4h14v10h-2.556c.344-.591.556-1.268.556-2 0-2.206-1.794-4-4-4zm-2-11.834 1.575.945-.296.889h-2.559l-.296-.888zm-1.219 3.834h2.438l.5 2h-3.438zm6.764-6.799-1.1 3.3-2.656-1.593 2.487-1.865zm2.455-9.201v-3.735c0-.089-.013-.176-.018-.265h.018c1.103 0 2 .897 2 2s-.897 2-2 2zm-18-2c0-1.103.897-2 2-2v4c-1.103 0-2-.897-2-2zm4 2v-5.324c0-1.34.666-2.584 1.781-3.328l.773-.516-1.109-1.664-.773.516c-1.483.99-2.433 2.57-2.63 4.316h-.042c-.495 0-.964.102-1.402.267l-.388-1.552c-.14-.557-.21-1.129-.21-1.701 0-3.868 3.146-7.014 7.014-7.014h5.973c3.867 0 7.013 3.146 7.013 7.014 0 .572-.07 1.145-.209 1.701l-.388 1.552c-.439-.165-.908-.267-1.403-.267h-.557c-.421-.824-1.058-1.535-1.871-2.022l-.485-.291c-1.287-.773-2.087-2.186-2.087-3.687h-2c0 2.199 1.171 4.269 3.059 5.401l.485.291c.898.539 1.456 1.525 1.456 2.573v3.735c0 2.206-1.794 4-4 4h-4c-2.206 0-4-1.794-4-4zm4 6h4c.156 0 .31-.012.463-.023l.405 1.622-2.868 2.151-2.869-2.152.406-1.622c.153.012.307.024.463.024zm-2.273 3.045 2.483 1.862-2.656 1.593-1.095-3.287zm-13.727 16.955v-3.743c0-6.205 4.44-11.531 10.453-12.736l1.993 5.978 2.222-1.333.292.874-.741 2.96h-4.219v6h-4v-6h-2v6h-2v2h14v4h-12c-2.206 0-4-1.794-4-4zm-4 6h46v2h-46zm2 4h42v6h-42zm56 6h-12v-6h2v-6h-12v-5.586l.564.564c1.303 1.303 3.037 2.022 4.881 2.022 2.564 0 4.902-1.407 6.102-3.674l7.093-13.399c.227-.05.44-.13.645-.228l1.25 1.25c.945.946 1.465 2.201 1.465 3.536z"/><path d="m9 19h2v2h-2z"/><path d="m5 19h2v2h-2z"/><path d="m1 19h2v2h-2z"/></g></g></svg>