<svg id="_x33_0" enable-background="new 0 0 64 64" height="512" viewBox="0 0 64 64" width="512" xmlns="http://www.w3.org/2000/svg"><g><g><g><path d="m11 51 2.61-2.09 1.39 2.09-2 8 3 3h-14v-5.8c0-2.96 1.05-5.72 2.82-7.89 1.19-1.44 2.7-2.62 4.43-3.42z" fill="#e6e9ed"/></g><g><path d="m18.39 48.91 2.61 2.09 1.75-6.11c1.73.8 3.24 1.98 4.43 3.42 1.77 2.17 2.82 4.93 2.82 7.89v5.8h-14l3-3-2-8z" fill="#e6e9ed"/></g><g><path d="m16 47 4-3c.97.19 1.89.5 2.75.89l-1.75 6.11-2.61-2.09z" fill="#ccd1d9"/></g><g><path d="m12 44 4 3-2.39 1.91-2.61 2.09-1.75-6.11c.86-.39 1.78-.7 2.75-.89z" fill="#ccd1d9"/></g><g><path d="m17 51 2 8-3 3-3-3 2-8z" fill="#fcd770"/></g><g><path d="m18.39 48.91-1.39 2.09h-2l-1.39-2.09 2.39-1.91z" fill="#ffc729"/></g><g><path d="m6.37 26.5c.63-2.14 2.07-3.99 4.09-5.06 1.53-.81 3.41-1.44 5.54-1.44s4.01.63 5.54 1.44c1.39.74 2.5 1.84 3.27 3.16.6 1.03.99 2.19 1.13 3.4.04.33.06.68.06 1.02 0 .65-.1 1.29-.31 1.91l-.63 1.89c-.53-.5-1.26-.82-2.06-.82h-1v-1c0-1.66-1.34-3-3-3h-6c-1.66 0-3 1.34-3 3v1h-1c-.8 0-1.53.32-2.06.82l-.63-1.89c-.21-.62-.31-1.26-.31-1.91 0-.87.13-1.71.37-2.52z" fill="#b27946"/></g><g><path d="m43 51 2.61-2.09 1.39 2.09-2 8 3 3h-14v-5.8c0-2.96 1.05-5.72 2.82-7.89 1.19-1.44 2.7-2.62 4.43-3.42z" fill="#4fc1e9"/></g><g><path d="m50.39 48.91 2.61 2.09 1.75-6.11c4.34 1.99 7.25 6.37 7.25 11.31v5.8h-14l3-3-2-8z" fill="#4fc1e9"/></g><g><path d="m44 44 4 3-2.39 1.91-2.61 2.09-1.75-6.11c.86-.39 1.78-.7 2.75-.89z" fill="#3bafda"/></g><g><path d="m48 47 4-3c.97.19 1.89.5 2.75.89l-1.75 6.11-2.61-2.09z" fill="#3bafda"/></g><g><path d="m49 51 2 8-3 3-3-3 2-8z" fill="#ff826e"/></g><g><path d="m50.39 48.91-1.39 2.09h-2l-1.39-2.09 2.39-1.91z" fill="#fc6e51"/></g><g><path d="m57.73 26.44c.18.69.27 1.41.27 2.16 0 .93-.15 1.85-.44 2.72l-.5 1.5c-.53-.5-1.26-.82-2.06-.82h-1c-3.15 0-6.11-1.48-8-4-.63-1.89-2.11-3.37-4-4l.36-.48c.83-1.11 1.9-1.99 3.1-2.59 1.21-.61 2.56-.93 3.94-.93 2.38 0 4.52.96 6.08 2.52 1.07 1.07 1.86 2.41 2.25 3.92z" fill="#656d78"/></g><g><path d="m46 28-.97.24c-1.74.44-2.97 1.98-3.03 3.76h-1c-.77 0-1.46.29-1.99.77l-.01-.01s-.25-.69-.5-1.63c-.25-.93-.5-2.13-.5-3.13 0-1.76 1.2-3.3 2.91-3.73l1.09-.27c1.89.63 3.37 2.11 4 4z" fill="#656d78"/></g><g><circle cx="32" cy="28" fill="#fcd770" r="2"/></g><g><path d="m34 9c0-1.1-.9-2-2-2s-2 .9-2 2 .9 2 2 2 2-.9 2-2zm2.94.01c0 .35.18.67.49.85l1.57.91-1.98 3.46-1.55-.9c-.31-.18-.68-.18-.99 0 0 0 0 0-.01.01-.3.17-.49.5-.49.85v1.81h-3.96v-1.81c0-.35-.19-.68-.49-.85-.01-.01-.01-.01-.01-.01-.31-.18-.68-.18-.99 0l-1.55.9-1.98-3.46 1.57-.91c.31-.18.49-.5.49-.85 0-.01 0-.01 0-.01s0 0 0-.01c0-.35-.18-.67-.49-.85l-1.57-.91 1.98-3.46 1.55.9c.31.18.68.18.99 0 0 0 0 0 .01-.01.3-.17.49-.5.49-.85v-1.81h3.96v1.81c0 .35.19.68.49.85.01.01.01.01.01.01.31.18.68.18.99 0l1.55-.9 1.98 3.46-1.57.91c-.31.18-.49.5-.49.85v.01s0 0 0 .01z" fill="#fcd770"/></g><g><path d="m25.06 32.82c.58.55.94 1.32.94 2.18 0 .83-.34 1.58-.88 2.12s-1.29.88-2.12.88h-1v-6h1c.8 0 1.53.32 2.06.82z" fill="#f0d0b4"/></g><g><path d="m18 42c.45 0 .87-.07 1.27-.21v.01l.73 2.2-4 3-4-3 .73-2.2v-.01c.4.14.82.21 1.27.21z" fill="#f0d0b4"/></g><g><path d="m12.73 41.79c-1.59-.53-2.73-2.03-2.73-3.79v-6-1c0-1.66 1.34-3 3-3h6c1.66 0 3 1.34 3 3v1 6c0 1.76-1.14 3.26-2.73 3.79-.4.14-.82.21-1.27.21h-4c-.45 0-.87-.07-1.27-.21z" fill="#f0d0b4"/></g><g><path d="m10 32v6h-1c-.83 0-1.58-.34-2.12-.88s-.88-1.29-.88-2.12c0-.86.36-1.63.94-2.18.53-.5 1.26-.82 2.06-.82z" fill="#f0d0b4"/></g><g><path d="m57.06 32.82c.58.55.94 1.32.94 2.18 0 .83-.34 1.58-.88 2.12s-1.29.88-2.12.88h-1v-6h1c.8 0 1.53.32 2.06.82z" fill="#f0d0b4"/></g><g><path d="m52 44-4 3-4-3 .73-2.2v-.01c.4.14.82.21 1.27.21h4c.45 0 .87-.07 1.27-.21v.01z" fill="#f0d0b4"/></g><g><path d="m54 32v6c0 1.76-1.14 3.26-2.73 3.79-.4.14-.82.21-1.27.21h-4c-.45 0-.87-.07-1.27-.21-1.59-.53-2.73-2.03-2.73-3.79v-5.88c0-.04 0-.08 0-.12.06-1.78 1.29-3.32 3.03-3.76l.97-.24c1.89 2.52 4.85 4 8 4z" fill="#f0d0b4"/></g><g><path d="m42 32v.12 5.88h-1c-.83 0-1.58-.34-2.12-.88s-.88-1.29-.88-2.12c0-.89.39-1.7 1.01-2.23.53-.48 1.22-.77 1.99-.77z" fill="#f0d0b4"/></g></g><g><path d="m45 39h3c1.615 0 3.067-.897 3.789-2.342l.105-.211-1.789-.895-.105.212c-.381.762-1.147 1.236-2 1.236h-3z"/><path d="m52.77 43.147-.279-.838c1.215-.705 2.119-1.89 2.408-3.309h.101c2.206 0 4-1.794 4-4 0-.901-.31-1.724-.815-2.393l.322-.966c.327-.981.493-2.002.493-3.037 0-.599-.062-1.183-.168-1.752 2.613-1.983 4.168-5.046 4.168-8.352 0-5.79-4.71-10.5-10.5-10.5h-12.834l.696-.404-2.979-5.198-2.393 1.409-.007-2.807h-5.966l-.044 2.774-2.356-1.377-2.979 5.198.706.405h-12.844c-5.79 0-10.5 4.71-10.5 10.5 0 3.361 1.58 6.435 4.246 8.412-.149.684-.246 1.385-.246 2.108 0 .76.122 1.509.361 2.227l.453 1.36c-.504.669-.814 1.492-.814 2.393 0 2.206 1.794 4 4 4h.101c.289 1.419 1.193 2.604 2.408 3.31l-.279.838c-5.962 1.466-10.23 6.863-10.23 13.05v6.802h62v-6.802c0-6.187-4.268-11.584-10.23-13.051zm.767 2.333-1.086 3.8-2.818-2.255 2.589-1.942c.45.108.889.239 1.315.397zm-33.315-.396c.45.108.89.238 1.316.397l-1.086 3.8-2.818-2.255zm-4.222 3.197 1.051.84-.586.879h-.93l-.586-.879zm-.219 3.719h.438l1.673 6.693-1.892 1.893-1.893-1.893zm2.296-.813.541-.811 2.931 2.344 1.819-6.367c3.402 2.016 5.632 5.722 5.632 9.845v4.802h-10.586l1.693-1.693zm2.693-8.04-.279-.838c1.215-.705 2.119-1.89 2.408-3.309h.101c2.206 0 4-1.794 4-4 0-.901-.31-1.724-.815-2.393l.453-1.359c.24-.72.362-1.469.362-2.228 0-.007-.001-.013-.001-.02h2.186c.414 1.161 1.514 2 2.816 2s2.402-.839 2.816-2h2.248c.155 1.36.563 2.777.807 3.539-.538.681-.872 1.528-.872 2.461 0 2.206 1.794 4 4 4h.101c.289 1.419 1.193 2.604 2.408 3.31l-.279.838c-5.962 1.466-10.23 6.863-10.23 13.05v4.802h-2v-4.802c0-6.187-4.268-11.584-10.23-13.051zm2.23-10.147c1.103 0 2 .897 2 2s-.897 2-2 2zm8-5c0-.552.449-1 1-1s1 .448 1 1-.449 1-1 1-1-.448-1-1zm8 0c0-1.307.885-2.44 2.153-2.758l.778-.195c1.126.441 2.067 1.253 2.669 2.288-1.758.514-3.058 1.926-3.458 3.664h-.142c-.503 0-.979.104-1.422.273-.265-.92-.578-2.227-.578-3.272zm2 9c-1.103 0-2-.897-2-2s.897-2 2-2zm2.549 12.28-1.086-3.8c.426-.159.866-.289 1.316-.397l2.589 1.942zm-8.549 6.918c0-4.123 2.23-7.83 5.632-9.846l1.819 6.367 2.931-2.344.541.811-2.03 8.12 1.693 1.694h-10.586zm13 4.388-1.893-1.893 1.674-6.693h.438l1.673 6.693zm.465-10.586h-.93l-.586-.879 1.051-.84 1.051.84zm2.358-6.367-2.823 2.117-2.823-2.117.231-.693c.196.024.389.06.592.06h4c.203 0 .396-.036.593-.06zm2.177-5.633c0 1.654-1.346 3-3 3h-4c-1.654 0-3-1.346-3-3v-5.877c0-1.379.935-2.576 2.272-2.91l.348-.088c1.861 2.184 4.53 3.564 7.38 3.829zm-6.134-10.522c-.603-1.64-1.781-3.004-3.288-3.853 1.469-1.649 3.594-2.625 5.818-2.625 4.193 0 7.604 3.411 7.604 7.604 0 .819-.131 1.628-.39 2.404l-.098.293c-.467-.191-.977-.301-1.512-.301h-1c-2.783 0-5.439-1.317-7.134-3.522zm8.134 9.522v-4c1.103 0 2 .897 2 2s-.897 2-2 2zm-27.651-31.858.679.396c.582.339 1.298.354 1.896.048l.105-.058c.609-.355.988-1.015.988-1.72v-.808h1.966v.809c0 .705.378 1.364.937 1.688l.166.094c.595.304 1.309.286 1.889-.053l.677-.396.987 1.724-.716.414c-.606.353-.983 1.009-.983 1.727 0 .704.377 1.36.983 1.713l.715.415-.987 1.724-.679-.396c-.613-.356-1.378-.354-2.001.01-.609.355-.988 1.015-.988 1.72v.807h-1.966v-.809c0-.705-.378-1.364-.996-1.725-.616-.359-1.379-.363-1.996-.004l-.677.396-.987-1.724.715-.415c.606-.353.983-1.009.983-1.727 0-.704-.377-1.36-.984-1.714l-.714-.414zm-24.349 13.358c0-4.687 3.813-8.5 8.5-8.5h12.834l-.696.404 2.979 5.198 2.4-1.411v2.809h5.966l-.018-2.811 2.418 1.413 2.979-5.198-.696-.404h12.834c4.687 0 8.5 3.813 8.5 8.5 0 2.423-1.031 4.688-2.796 6.287-1.479-3.401-4.869-5.787-8.808-5.787-3.065 0-5.994 1.464-7.834 3.917l-.149.199-.745.187c-1.827.456-3.176 1.913-3.552 3.697h-2.3c-.414-1.161-1.514-2-2.816-2s-2.402.839-2.816 2h-2.412c-.572-2.754-2.277-5.128-4.763-6.442-3.908-2.066-8.111-2.066-12.018 0-1.824.964-3.224 2.503-4.074 4.338-1.841-1.602-2.917-3.902-2.917-6.396zm4 16.5c0-1.103.897-2 2-2v4c-1.103 0-2-.897-2-2zm2-4c-.535 0-1.045.11-1.512.301l-.23-.689c-.171-.512-.258-1.049-.258-1.592 0-2.849 1.504-5.414 3.926-6.694 3.325-1.758 6.822-1.758 10.148 0 2.422 1.279 3.926 3.845 3.926 6.694 0 .544-.087 1.08-.259 1.594l-.229.688c-.467-.192-.977-.302-1.512-.302 0-2.206-1.794-4-4-4v2c1.103 0 2 .897 2 2v7c0 1.654-1.346 3-3 3h-4c-1.654 0-3-1.346-3-3v-7c0-1.103.897-2 2-2v-2c-2.206 0-4 1.794-4 4zm5 12h4c.203 0 .396-.036.593-.06l.231.693-2.824 2.117-2.823-2.117.231-.693c.196.024.389.06.592.06zm-2.222 2.084 2.589 1.942-2.818 2.255-1.086-3.8c.426-.159.865-.29 1.315-.397zm-8.778 11.114c0-4.123 2.23-7.83 5.632-9.846l1.819 6.367 2.931-2.344.541.811-2.03 8.12 1.693 1.694h-10.586zm58 4.802h-10.586l1.693-1.693-2.03-8.12.541-.811 2.931 2.344 1.819-6.367c3.402 2.016 5.632 5.722 5.632 9.845z"/><path d="m13 39h3c1.615 0 3.067-.897 3.789-2.342l.105-.211-1.789-.895-.105.212c-.381.762-1.147 1.236-2 1.236h-3z"/><path d="m18.527 31.896.154.052.638-1.896-.157-.052c-1.293-.432-2.162-1.637-2.162-3h-2c0 2.226 1.418 4.193 3.527 4.896z"/><path d="m32 12c1.654 0 3-1.346 3-3s-1.346-3-3-3-3 1.346-3 3 1.346 3 3 3zm0-4c.551 0 1 .448 1 1s-.449 1-1 1-1-.448-1-1 .449-1 1-1z"/></g></g></svg>