<svg id="_x33_0" enable-background="new 0 0 64 64" height="512" viewBox="0 0 64 64" width="512" xmlns="http://www.w3.org/2000/svg"><g><g><g><path d="m22 16v4l-12 3v-3.22c0-.46.31-.86.76-.97l3.24-.81 4-1z" fill="#d3a06c"/></g><g><path d="m54 19.78v3.22l-12-3v-4l4 1 4 1 3.24.81c.45.11.76.51.76.97z" fill="#d3a06c"/></g><g><path d="m18 36.6c-.53.21-1.06.42-1.58.65-2.24.98-4.39 2.16-6.42 3.55v-17.8l12-3v15.3.01c-1.36.36-2.69.79-4 1.29z" fill="#cf9e76"/></g><g><path d="m54 40.8c-2.5-1.71-5.18-3.12-8-4.2-1.31-.5-2.64-.93-4-1.29v-.01-15.3l12 3z" fill="#cf9e76"/></g><g><path d="m42 11v3h-20v-3c0-.55.45-1 1-1h5 4 4 5c.55 0 1 .45 1 1z" fill="#fcd770"/></g><g><path d="m42 16v4 15.3.01c-3.23-.86-6.59-1.31-10-1.31l-10 1.31v-.01-15.3-4-2h20z" fill="#ffeaa7"/></g><g><path d="m22 35.31 10-1.31c-7.73 0-14 6.27-14 14s6.27 14 14 14c-10.84 0-21.19-4.51-28.57-12.46l-1.43-1.54 1.43-1.54c1.99-2.15 4.19-4.04 6.57-5.66 2.03-1.39 4.18-2.57 6.42-3.55.52-.23 1.05-.44 1.58-.65 1.31-.5 2.64-.93 4-1.29z" fill="#e6e9ed"/></g><g><path d="m32 34c3.41 0 6.77.45 10 1.31 1.36.36 2.69.79 4 1.29 2.82 1.08 5.5 2.49 8 4.2 2.38 1.62 4.58 3.51 6.57 5.66l1.43 1.54-1.43 1.54c-3.69 3.98-8.12 7.09-12.99 9.21-4.86 2.12-10.16 3.25-15.58 3.25 7.73 0 14-6.27 14-14s-6.27-14-14-14z" fill="#e6e9ed"/></g><g><path d="m26 18h12v4h-12z" fill="#69d6f4"/></g><g><path d="m26 26h12v4h-12z" fill="#69d6f4"/></g><g><circle cx="32" cy="48" fill="#69d6f4" r="14"/></g></g><g><path d="m61.3 45.776c-1.912-2.059-4.028-3.894-6.3-5.488v-20.507c0-.92-.623-1.718-1.516-1.94l-2.484-.621v-4.22h-2v3.72l-2-.5v-7.22h-2v6.72l-2-.5v-4.22c0-1.103-.897-2-2-2h-4v-8h-2v8h-2v-4h-2v4h-2v-6h-2v6h-4c-1.103 0-2 .897-2 2v4.22l-2 .5v-6.72h-2v7.22l-2 .5v-3.72h-2v4.22l-2.484.621c-.893.222-1.516 1.02-1.516 1.94v20.507c-2.272 1.594-4.388 3.429-6.3 5.488l-2.064 2.224 2.064 2.224c7.539 8.119 18.219 12.776 29.3 12.776s21.761-4.657 29.3-12.776l2.064-2.224zm-10.3-7.948v-10.828h-2v9.82c-.659-.31-1.325-.601-2-.874v-10.946h-2v10.197c-.661-.228-1.327-.438-2-.632v-13.285l10 2.5v15.199c-.656-.404-1.323-.786-2-1.151zm-28-3.782v-19.046h18v19.046c-2.933-.681-5.949-1.046-9-1.046s-6.067.365-9 1.046zm30-14.265v1.938l-10-2.5v-1.939zm-12-8.781v2h-18v-2zm-20 6.28v1.939l-10 2.5v-1.939zm-10 6.5 10-2.5v13.285c-.673.193-1.339.404-2 .632v-10.197h-2v10.946c-.675.273-1.341.565-2 .874v-9.82h-2v10.828c-.677.365-1.344.747-2 1.151zm-6.835 25.082-.801-.862.801-.862c5.051-5.44 11.588-9.233 18.693-11.003-3.555 2.745-5.858 7.036-5.858 11.865s2.303 9.12 5.858 11.866c-7.105-1.77-13.642-5.564-18.693-11.004zm27.835-13.862c7.168 0 13 5.832 13 13s-5.832 13-13 13-13-5.832-13-13 5.832-13 13-13zm27.835 13.862c-5.051 5.44-11.588 9.233-18.693 11.003 3.555-2.745 5.858-7.036 5.858-11.865s-2.303-9.12-5.858-11.866c7.105 1.77 13.642 5.564 18.693 11.003l.801.863z"/><path d="m39 47h-2v8h-2v-16h-2v16h-2v-12h-2v12h-2v-4h-2v6h14z"/><path d="m25 31h14v-6h-14zm6-2v-2h2v2zm6 0h-2v-2h2zm-10-2h2v2h-2z"/><path d="m25 17v6h14v-6zm8 2v2h-2v-2zm-6 0h2v2h-2zm10 2h-2v-2h2z"/></g></g></svg>