<svg id="_x33_0" enable-background="new 0 0 64 64" height="512" viewBox="0 0 64 64" width="512" xmlns="http://www.w3.org/2000/svg"><g><g><g><path d="m62 3v4c0 .55-.45 1-1 1h-1-56-1c-.55 0-1-.45-1-1v-4c0-.55.45-1 1-1h58c.55 0 1 .45 1 1z" fill="#aab2bd"/></g><g><path d="m32 55v7h-29c-.55 0-1-.45-1-1v-4c0-.55.45-1 1-1h1 17.96c1.13 1.24 2.76 2 4.53 2h.09c1.55 0 3.04-.62 4.14-1.72z" fill="#aab2bd"/></g><g><path d="m4 8v48h55.91l.09-48z" fill="#e6e9ed"/></g><g><path d="m14 26v4h-6v-4h4z" fill="#b4dd7f"/></g><g><path d="m22 26v4h-4v-4h2z" fill="#b4dd7f"/></g><g><path d="m30 26 .16.03c-.11.65-.16 1.31-.16 1.97s.05 1.32.16 1.97l-.16.03h-4v-4h2z" fill="#b4dd7f"/></g><g><path d="m26 11.67v6.66h-6-6v-6.66z" fill="#fcd770"/></g><g><path d="m27.58 48.63-.85 1.28-.56-1.35c.38-2.18 1.42-4.2 3.01-5.77l.77-.76c1.31-1.3 2.05-3.07 2.05-4.91 0-.74-.12-1.48-.35-2.18l-1.02-3.04c-.21-.63-.37-1.28-.47-1.93-.11-.65-.16-1.31-.16-1.97s.05-1.32.16-1.97c.1-.65.26-1.3.47-1.93l.21-.61c1.89-5.67 7.19-9.49 13.16-9.49s11.27 3.82 13.16 9.49l.21.61c.42 1.26.63 2.58.63 3.9s-.21 2.64-.63 3.9l-1.02 3.04c-.23.7-.35 1.44-.35 2.18 0 1.84.74 3.61 2.05 4.91l.77.76c.4.4.77.82 1.09 1.27.51.69.93 1.43 1.26 2.22.54 1.29.83 2.7.83 4.13 0 .54-.08 1.07-.23 1.58-.81-3.67-3.83-6.57-7.69-7.12l-3.28-.47c-.28-.04-.54-.11-.8-.2-1.29-.47-2.28-1.58-2.56-2.98l-.26-1.33c2.75-.55 4.82-2.98 4.82-5.89v-6.68c0-.69-.22-1.34-.61-1.88s-.94-.96-1.6-1.18c-1.23-.41-2.24-1.22-2.9-2.26h-7.89c-1.66 0-3 1.34-3 3v9c0 2.91 2.07 5.34 4.82 5.88l-.24 1.22c-.28 1.4-1.28 2.52-2.58 2.98-.3.11-.61.18-.94.21l-2.72.28c-2.75.27-5.23 1.76-6.76 4.06z" fill="#b27946"/></g><g><path d="m61.77 51.99c.15.65.23 1.32.23 2.01v8h-6-14v-6.15c0-1.13.64-2.17 1.66-2.68l.34-.17.63-.32c2.03-1.01 3.6-2.68 4.51-4.68.53-1.17.83-2.46.86-3.8.26.09.52.16.8.2l3.28.47c3.86.55 6.88 3.45 7.69 7.12z" fill="#ff826e"/></g><g><path d="m32 55-1.28 1.28c-1.1 1.1-2.59 1.72-4.14 1.72h-.09c-1.77 0-3.4-.76-4.53-2-.58-.64-1.03-1.41-1.3-2.27-.55-1.76-1.19-3.83-1.79-5.73-.47-1.52-.91-2.93-1.25-4-.38-1.22-.62-2-.62-2l5.68-1.9h.01l3.48 8.46.56 1.35.85-1.28c1.53-2.3 4.01-3.79 6.76-4.06l2.72-.28c.33-.03.64-.1.94-.21.02 1.38.33 2.71.9 3.92.71 1.51 1.83 2.82 3.26 3.77l1.84 1.23-.34.17c-1.02.51-1.66 1.55-1.66 2.68v6.15h-10z" fill="#ff826e"/></g><g><path d="m38.9 48h10.24c-.91 2-2.48 3.67-4.51 4.68l-.63.32-1.84-1.23c-1.43-.95-2.55-2.26-3.26-3.77z" fill="#ffeaa7"/></g><g><path d="m21.76 37.86.92 2.24-5.68 1.9-2.79-.56c-.85-.17-1.54-.71-1.91-1.44-.19-.38-.3-.81-.3-1.25 0-.76.31-1.45.8-1.95.5-.49 1.19-.8 1.95-.8h4.24c1.22 0 2.31.73 2.77 1.86z" fill="#f0d0b4"/></g><g><path d="m50 44.2c-.03 1.34-.33 2.63-.86 3.8h-10.24c-.57-1.21-.88-2.54-.9-3.92 1.3-.46 2.3-1.58 2.58-2.98l.24-1.22c.38.08.78.12 1.18.12h4c.4 0 .8-.04 1.18-.11l.26 1.33c.28 1.4 1.27 2.51 2.56 2.98z" fill="#f0d0b4"/></g><g><path d="m47.18 39.89c-.38.07-.78.11-1.18.11h-4c-.4 0-.8-.04-1.18-.12-2.75-.54-4.82-2.97-4.82-5.88v-9c0-1.66 1.34-3 3-3h7.89c.66 1.04 1.67 1.85 2.9 2.26.66.22 1.21.64 1.6 1.18s.61 1.19.61 1.88v6.68c0 2.91-2.07 5.34-4.82 5.89z" fill="#f0d0b4"/></g><g><path d="m40 32h8c0 1.1-.45 2.1-1.17 2.83-.73.72-1.73 1.17-2.83 1.17-2.21 0-4-1.79-4-4z" fill="#ff826e"/></g></g><g><path d="m39 32c0 2.757 2.243 5 5 5s5-2.243 5-5v-1h-10zm7.829 1c-.413 1.164-1.525 2-2.829 2s-2.416-.836-2.829-2z"/><path d="m43.553 25.895.895-1.789c-.893-.447-1.448-1.344-1.448-2.342v-.764h-2v.764c0 1.759.979 3.342 2.553 4.131z"/><path d="m45 57h2v2h-2z"/><path d="m63 7v-4c0-1.103-.897-2-2-2h-58c-1.103 0-2 .897-2 2v4c0 1.103.897 2 2 2v46c-1.103 0-2 .897-2 2v4c0 1.103.897 2 2 2h60v-9c0-.684-.075-1.354-.207-2.005.129-.533.207-1.066.207-1.588 0-2.331-.712-4.62-2-6.541v-34.866c1.103 0 2-.897 2-2zm-60-4h58l.002 4h-58.002zm0 54h18.551c1.3 1.251 3.07 2 5.028 2 1.638 0 3.186-.575 4.421-1.622v3.622h-28zm13.936-16.033-2.531-.507c-.814-.162-1.405-.883-1.405-1.713 0-.963.784-1.747 1.747-1.747h4.244c.813 0 1.539.486 1.849 1.238l.517 1.256zm1.311 1.671 3.873-1.291 4.955 12.034 1.85-.762-1.07-2.599.559-.84c1.37-2.055 3.565-3.374 6.022-3.619l2.648-.265c.373 2.959 2.005 5.632 4.521 7.309l.595.397c-.755.739-1.2 1.754-1.2 2.852v5.146h-8v-9h-2v2.586l-.989.992c-.916.916-2.135 1.422-3.52 1.422-2.249 0-4.208-1.436-4.874-3.571zm23.314-1.343.063-.314c.125.007.249.019.376.019h4c.127 0 .251-.012.377-.019l.088.439c.292 1.463 1.224 2.677 2.478 3.377-.07.763-.236 1.501-.493 2.203h-8.89c-.282-.731-.45-1.507-.517-2.304 1.275-.69 2.218-1.905 2.518-3.401zm2.626 10.494-.114.057-1.357-.905c-.798-.533-1.478-1.195-2.038-1.941h6.728c-.815 1.157-1.901 2.13-3.219 2.789zm16.813 9.211h-4v-11h-2v11h-12v-5.146c0-.763.424-1.448 1.105-1.789l.976-.487c3.204-1.603 5.344-4.661 5.81-8.155l3.048.435c4.025.576 7.061 4.076 7.061 8.142zm-6.778-17.122-3.278-.468c-1.257-.18-2.269-1.137-2.518-2.382l-.088-.439c2.712-.965 4.662-3.55 4.662-6.589v-6.676c0-1.82-1.161-3.432-2.889-4.009-1.861-.619-3.111-2.353-3.111-4.315h-2c0 2.824 1.8 5.321 4.479 6.213.91.304 1.521 1.152 1.521 2.111v6.676c0 2.757-2.243 5-5 5h-4c-2.757 0-5-2.243-5-5v-9c0-1.103.897-2 2-2v-2c-2.206 0-4 1.794-4 4v9c0 3.039 1.95 5.624 4.662 6.59l-.062.312c-.261 1.302-1.322 2.265-2.644 2.396l-2.719.272c-2.546.255-4.857 1.447-6.545 3.313.49-1.266 1.218-2.422 2.193-3.386l.771-.762c1.49-1.472 2.344-3.519 2.344-5.616 0-.851-.136-1.69-.405-2.498l-1.014-3.04c-.386-1.157-.581-2.362-.581-3.581s.195-2.424.582-3.582l.204-.615c1.756-5.266 6.664-8.803 12.214-8.803s10.458 3.537 12.213 8.802l.206.617c.386 1.157.581 2.362.581 3.581s-.195 2.424-.581 3.581l-1.015 3.041c-.268.807-.404 1.647-.404 2.497 0 2.097.854 4.144 2.345 5.617l.771.762c1.077 1.065 1.875 2.377 2.358 3.798-1.569-1.801-3.757-3.061-6.252-3.418zm4.778-15.878v13.561l-.249-.246c-1.112-1.101-1.751-2.63-1.751-4.196 0-.636.102-1.263.302-1.865l1.014-3.04c.454-1.362.684-2.779.684-4.214s-.23-2.852-.684-4.213l-.206-.617c-2.027-6.083-7.698-10.17-14.11-10.17s-12.083 4.087-14.111 10.171l-.204.615c-.133.4-.241.806-.336 1.214h-.349v-4h-8v-1.667h6v-8.666h-14v8.666h6v1.667h-8v4h-4v6h8v-6h-2v-2h6v2h-2v6h6v-6h-2v-2h6v2h-2v6h4.349c.095.408.202.814.336 1.214l1.013 3.039c.2.603.302 1.23.302 1.866 0 1.565-.639 3.095-1.751 4.195l-.771.762c-1.036 1.024-1.855 2.22-2.441 3.532l-3.348-8.132c-.62-1.504-2.071-2.476-3.698-2.476h-4.244c-2.066 0-3.747 1.681-3.747 3.747 0 .086.017.168.022.253h-4.022v2h4.768c.539.712 1.321 1.237 2.244 1.422l2.21.442.043.136h-9.265v2h9.889l.624 2h-10.513v2h11.138l1.569 5.024c.106.34.242.663.393.976h-15.1v-46h54zm-29.96 1h-2.04v-2h2.04c-.025.332-.04.665-.04 1s.015.668.04 1zm-14.04-11.667v-4.666h10v4.666zm-2 9.667v2h-4v-2zm8 0v2h-2v-2z"/><path d="m7 51h2v2h-2z"/><path d="m11 51h2v2h-2z"/><path d="m15 51h2v2h-2z"/></g></g></svg>