<svg id="_x33_0" enable-background="new 0 0 64 64" height="512" viewBox="0 0 64 64" width="512" xmlns="http://www.w3.org/2000/svg"><g><g><g><path d="m13.28 12c-.47 0-.94.05-1.39.14v-.01c-.03-.03-.06-.05-.08-.08l-.32-.31 4.25-4.25.31.32c.7.69 1.79.8 2.61.25.01-.01.01-.02.02-.02.82-.55 1.14-1.59.77-2.5l-.17-.41 5.54-2.3.17.41c.38.91 1.34 1.42 2.31 1.23.01 0 .02-.01.03-.01.97-.19 1.67-1.03 1.67-2.02v-.44h6v.44c0 .99.7 1.83 1.67 2.02.01 0 .02.01.03.01.97.19 1.93-.32 2.31-1.23l.17-.41 5.54 2.3-.17.41c-.37.91-.05 1.95.77 2.5.01 0 .01.01.02.02.82.55 1.91.44 2.61-.25l.31-.32 4.25 4.25-.32.31c-.44.44-.64 1.03-.59 1.62l-3.6-.67c-.84 0-1.66.1-2.44.31v-.01c-3.56-3.29-8.33-5.3-13.56-5.3-4.56 0-8.76 1.52-12.12 4.09-.38-.06-.77-.09-1.16-.09z" fill="#fcd770"/></g><g><path d="m62 45.02v2.98h-6-6-2l2.86-10 1.14-4 1.16.23c.51.1 1 .24 1.48.41 4.35 1.52 7.36 5.65 7.36 10.38z" fill="#ff826e"/></g><g><path d="m40.66 34.91c.69-.3 1.42-.53 2.18-.68l1.16-.23 1.14 4 2.86 10h-4-.54c.34-.59.54-1.27.54-2v-4.58c0-2.65-1.3-5.05-3.35-6.5z" fill="#ff826e"/></g><g><path d="m50.86 38-2.86 10-2.86-10z" fill="#ffeaa7"/></g><g><path d="m12 34 4 14h-2-6-6v-2.98c0-5.25 3.7-9.76 8.84-10.79z" fill="#b4dd7f"/></g><g><path d="m21.16 34.23c.76.15 1.49.38 2.18.68l.01.01c-2.05 1.45-3.35 3.85-3.35 6.5v4.58c0 .73.2 1.41.54 2h-.54-4l4-14z" fill="#b4dd7f"/></g><g><path d="m26 44v4 2h-2c-1.48 0-2.77-.8-3.46-2-.34-.59-.54-1.27-.54-2v-4.58c0-2.65 1.3-5.05 3.35-6.5.85-.62 1.84-1.07 2.91-1.31l2.74-.61 3 5h-5c-.55 0-1 .45-1 1z" fill="#4fc1e9"/></g><g><path d="m38 44v-5c0-.55-.45-1-1-1h-5l3-5 2.74.61c1.07.24 2.06.69 2.91 1.31 2.05 1.45 3.35 3.85 3.35 6.5v4.58c0 .73-.2 1.41-.54 2-.69 1.2-1.98 2-3.46 2h-2v-2z" fill="#4fc1e9"/></g><g><path d="m20 34-4 14-4-14 4 2z" fill="#e6e9ed"/></g><g><circle cx="16" cy="60" fill="#ff826e" r="2"/></g><g><circle cx="48" cy="60" fill="#ff826e" r="2"/></g><g><circle cx="32" cy="60" fill="#ff826e" r="2"/></g><g><path d="m38 52h-6-6v-2-2h12v2z" fill="#aab2bd"/></g><g><path d="m38 44v4h-12v-4-5c0-.55.45-1 1-1h5 5c.55 0 1 .45 1 1z" fill="#ccd1d9"/></g><g><path d="m10 21.9v.1h-1c-.81 0-1.54.32-2.08.84l-.15-.3c-.51-1.01-.77-2.13-.77-3.26 0-3.55 2.54-6.5 5.89-7.14.45-.09.92-.14 1.39-.14h5.44c.39 0 .78.03 1.16.09 1.21.19 2.32.68 3.25 1.4-.7.79-1.13 1.82-1.13 2.96 0 .37.04.73.13 1.08l.71 2.84c-.51.37-.84.96-.84 1.63l-.2 2h-.07c-2.39 0-4.68-.95-6.37-2.64l-.19-.19c-.75-.75-1.77-1.17-2.83-1.17h-.44c-1.05 0-1.9.85-1.9 1.9z" fill="#656d78"/></g><g><path d="m41.2 20.4.45-1.34c.23-.7.35-1.44.35-2.18 0-.59-.07-1.16-.22-1.71 1.1-.87 2.38-1.52 3.78-1.86.78-.21 1.6-.31 2.44-.31l3.6.67c1.31.51 2.49 1.28 3.47 2.26 1.81 1.81 2.93 4.31 2.93 7.07v5.53c0 2.49-1.28 4.79-3.36 6.11-.48-.17-.97-.31-1.48-.41l-1.16-.23-.81-2.43c1.18-.6 2.03-1.77 2.17-3.17l.64-6.4h-.53c-2.94 0-5.84-.68-8.47-2h-1.1c-1.05 0-1.9.85-1.9 1.9-.03-.61-.34-1.15-.8-1.5z" fill="#656d78"/></g><g><path d="m26 19.9v.1h-2c-.43 0-.83.14-1.16.37l-.71-2.84c-.09-.35-.13-.71-.13-1.08 0-1.14.43-2.17 1.13-2.96.05-.07.11-.13.17-.19.81-.8 1.92-1.3 3.15-1.3h1.55c1.96-1.3 4.25-2 6.61-2h.51c3.21 0 5.91 2.2 6.66 5.17.15.55.22 1.12.22 1.71 0 .74-.12 1.48-.35 2.18l-.45 1.34c-.34-.25-.75-.4-1.2-.4h-2c0-.03 0-.06 0-.1 0-1.05-.85-1.9-1.9-1.9h-4.1-4.1c-1.05 0-1.9.85-1.9 1.9z" fill="#b27946"/></g><g><path d="m10 22c0 .03.01.06.01.09l.59 5.91h-1.6c-.83 0-1.58-.34-2.12-.88s-.88-1.29-.88-2.12c0-.85.35-1.62.92-2.16.54-.52 1.27-.84 2.08-.84z" fill="#f0d0b4"/></g><g><path d="m20 34-4 2-4-2 .81-2.43c.55.28 1.16.43 1.81.43h2.76c.65 0 1.26-.15 1.81-.43z" fill="#f0d0b4"/></g><g><path d="m21.8 24-.44 4.4c-.14 1.4-.99 2.57-2.17 3.17-.55.28-1.16.43-1.81.43h-2.76c-.65 0-1.26-.15-1.81-.43-1.18-.6-2.03-1.77-2.17-3.17l-.04-.4-.59-5.91c0-.03-.01-.06-.01-.09s0-.06 0-.1c0-1.05.85-1.9 1.9-1.9h.44c1.06 0 2.08.42 2.83 1.17l.19.19c1.69 1.69 3.98 2.64 6.37 2.64z" fill="#f0d0b4"/></g><g><path d="m44.81 31.57c.55.28 1.16.43 1.81.43h2.76c.65 0 1.26-.15 1.81-.43l.81 2.43-1.14 4h-5.72l-1.14-4z" fill="#f0d0b4"/></g><g><path d="m54 22-.64 6.4c-.14 1.4-.99 2.57-2.17 3.17-.55.28-1.16.43-1.81.43h-2.76c-.65 0-1.26-.15-1.81-.43-1.18-.6-2.03-1.77-2.17-3.17l-.63-6.31c0-.03-.01-.06-.01-.09s0-.06 0-.1c0-1.05.85-1.9 1.9-1.9h1.1c2.63 1.32 5.53 2 8.47 2z" fill="#f0d0b4"/></g><g><path d="m32 30c0 1.1.9 2 2 2h.75l.25 1-3 5-3-5 .77-3.09c.28.06.56.09.85.09z" fill="#f0d0b4"/></g><g><path d="m32 18h4.1c1.05 0 1.9.85 1.9 1.9v.1l-.01.09-.59 5.91-.04.4c-.06.64-.28 1.23-.6 1.75-.24-.1-.49-.15-.76-.15h-2c-.55 0-1.05.22-1.41.59-.37.36-.59.86-.59 1.41h-1.38c-.29 0-.57-.03-.85-.09-1.66-.36-2.96-1.76-3.13-3.51l-.04-.4-.59-5.91c0-.03-.01-.06-.01-.09s0-.06 0-.1c0-1.05.85-1.9 1.9-1.9z" fill="#f0d0b4"/></g><g><path d="m26 20c0 .03.01.06.01.09l.59 5.91h-2.6c-1.1 0-2-.9-2-2v-2c0-.67.33-1.26.84-1.63.33-.23.73-.37 1.16-.37z" fill="#aab2bd"/></g><g><path d="m42 21.9v.1 2c0 1.1-.9 2-2 2h-2.6l.59-5.91.01-.09h2c.45 0 .86.15 1.2.4.46.35.77.89.8 1.5z" fill="#aab2bd"/></g><g><path d="m36.76 28.15c.72.3 1.24 1.02 1.24 1.85 0 .55-.22 1.05-.59 1.41-.36.37-.86.59-1.41.59h-1.25-.75c-1.1 0-2-.9-2-2 0-.55.22-1.05.59-1.41.36-.37.86-.59 1.41-.59h2c.27 0 .52.05.76.15z" fill="#aab2bd"/></g></g><g><path d="m31 43h2v2h-2z"/><path d="m47 19v.171c0 2.091.814 4.057 2.293 5.536l1.414-1.414c-1.101-1.101-1.707-2.564-1.707-4.122v-.171z"/><path d="m56.538 34.384c1.558-1.529 2.462-3.614 2.462-5.856v-5.528c0-4.382-2.582-8.163-6.3-9.93.052-.113.111-.224.201-.314l1.018-1.02-5.655-5.655-1.02 1.019c-.355.356-.92.411-1.373.107-.422-.282-.588-.824-.396-1.288l.553-1.333-7.392-3.061-.551 1.33c-.192.465-.695.731-1.225.625-.498-.099-.86-.536-.86-1.04v-1.44h-8v1.44c0 .504-.362.941-.897 1.046-.497.094-.997-.167-1.189-.632l-.551-1.33-7.392 3.061.553 1.332c.192.465.026 1.007-.425 1.308-.423.283-.987.229-1.344-.127l-1.02-1.018-5.511 5.511c-3.056 1.22-5.224 4.204-5.224 7.69 0 1.171.265 2.339.747 3.407-.466.655-.747 1.449-.747 2.312 0 2.206 1.794 4 4 4h.743c.25 1.225.928 2.266 1.876 2.981l-.384 1.153-.588.118c-5.59 1.117-9.647 6.065-9.647 11.766v3.982h6v8h-2v2h4v-10h4v2h2v-2h4v2h2v-1.026c.838.635 1.87 1.026 3 1.026h1v8h-4v2h6v-8h4v4.184c-1.161.414-2 1.514-2 2.816 0 1.654 1.346 3 3 3s3-1.346 3-3c0-1.302-.839-2.402-2-2.816v-4.184h4v8h6v-2h-4v-8h1c1.13 0 2.162-.391 3-1.026v1.026h2v-2h4v2h2v-2h4v10h4v-2h-2v-8h6v-3.982c0-4.545-2.583-8.605-6.462-10.634zm-24.538 26.616c-.551 0-1-.449-1-1s.449-1 1-1 1 .449 1 1-.449 1-1 1zm25-38v5.528c0 1.998-.946 3.832-2.536 5.005-.363-.11-.733-.206-1.111-.282l-.588-.118-.384-1.153c1.078-.812 1.83-2.04 1.974-3.483l.64-6.398-1.99-.199-.64 6.398c-.154 1.54-1.437 2.702-2.985 2.702h-2.76c-1.548 0-2.832-1.162-2.985-2.702l-.635-6.393c0-.499.406-.905.905-.905h1.095v-2h-1.095c-.468 0-.903.121-1.295.319.256-.788.39-1.606.39-2.436 0-.438-.045-.865-.114-1.284 1.505-1.045 3.259-1.599 5.114-1.599 4.962 0 9 4.038 9 9zm-20 24h-10v-8h10zm-17.899 0h-1.775l1.688-5.909c-.004.109-.014.217-.014.326v4.583c0 .342.035.677.101 1zm1.116-10.119.491-1.719.253.051c.138.028.272.071.409.104-.44.477-.826 1.001-1.153 1.564zm-4.217 7.479-2.414-8.449 2.414 1.207 2.414-1.207zm7.2-10.566c-.601-.224-1.216-.416-1.847-.543l-.588-.118-.384-1.153c1.078-.812 1.83-2.04 1.974-3.483l.189-1.891c.433.244.925.394 1.456.394h1.743c.328 1.61 1.397 2.91 2.838 3.553l-.401 1.605-2.132.474c-1.036.23-1.994.628-2.848 1.162zm7.984-4.794h-.564c-1.548 0-2.832-1.162-2.985-2.702l-.635-6.393c0-.499.406-.905.905-.905h1.095v-2h-1.095c-1.284 0-2.363.843-2.746 2h-1.159c-.157 0-.307.023-.458.046l-.439-1.757c-.068-.273-.103-.554-.103-.837 0-1.903 1.549-3.452 3.452-3.452h1.851l.252-.168c1.798-1.199 3.89-1.832 6.05-1.832h.512c3.244 0 5.883 2.639 5.883 5.883 0 .634-.102 1.26-.302 1.86l-.106.317c-.191-.039-.389-.06-.592-.06h-1.159c-.383-1.157-1.462-2-2.746-2h-5.095v4h2v-2h3.095c.499 0 .905.406.9.995l-.63 6.303c-.025.25-.084.49-.167.722-.067-.004-.13-.02-.198-.02h-2c-1.302 0-2.402.839-2.816 2zm-8.184-7c0-.551.449-1 1-1h1.095l.4 4h-1.495c-.551 0-1-.449-1-1zm15.905-1h1.095c.551 0 1 .449 1 1v2c0 .551-.449 1-1 1h-1.495zm-4.905 8h2c.551 0 1 .449 1 1s-.449 1-1 1h-2c-.551 0-1-.449-1-1s.449-1 1-1zm4.034-1.192c.102-.263.185-.532.241-.808h1.725c.352 0 .686-.072 1-.184v3.184c0 .551-.449 1-1 1h-1.171c.11-.313.171-.649.171-1 0-.867-.376-1.644-.966-2.192zm2.174-16.934c1.181.566 2.308 1.247 3.358 2.054-.442.195-.869.428-1.285.683-.486-1.058-1.196-1.992-2.073-2.737zm-12.504.126h-1.251c-1.304 0-2.501.461-3.44 1.227-.282-.172-.57-.326-.867-.462 2.96-1.807 6.327-2.765 9.854-2.765.464 0 .925.031 1.384.065-2.018.19-3.957.844-5.68 1.935zm2.829 19.992c.03 0 .057.008.087.008h.564c.397 1.114 1.427 1.919 2.659 1.984l-1.843 3.072-1.929-3.216zm9.467 2.008c1.239 0 2.305-.755 2.762-1.83.251.306.541.573.857.81l-.384 1.153-.588.118c-.63.126-1.245.318-1.847.543-.507-.317-1.055-.579-1.63-.794zm3.039 2.212.253-.051.491 1.719c-.327-.563-.713-1.087-1.153-1.565.137-.032.271-.075.409-.103zm1.947 5.879 1.688 5.909h-1.775c.066-.323.101-.658.101-1v-4.583c0-.109-.01-.217-.014-.326zm1.483-2.091h3.063l-1.532 5.36zm3.634-2h-4.206l-.851-2.977.393-1.179c.381.092.772.156 1.181.156h2.76c.409 0 .8-.064 1.181-.156l.393 1.179zm-34.33-28.128c1.017.694 2.387.72 3.467-.002 1.054-.704 1.551-1.978 1.298-3.182l3.792-1.57c.67 1.028 1.924 1.574 3.194 1.324 1.247-.245 2.197-1.231 2.424-2.442h4.104c.228 1.211 1.181 2.198 2.456 2.448 1.244.247 2.492-.302 3.163-1.33l3.791 1.57c-.253 1.204.248 2.479 1.325 3.199 1.055.708 2.424.682 3.439-.016l2.901 2.901c-.13.189-.229.394-.312.606-.9-.238-1.84-.378-2.815-.378-.739 0-1.463.08-2.171.221-3.831-3.361-8.714-5.221-13.829-5.221-4.513 0-8.79 1.413-12.407 4.07-.29-.03-.578-.07-.874-.07h-5.074zm-2.492 4.128h5.438c1.064 0 2.082.265 2.996.764-.453.794-.715 1.71-.715 2.688 0 .446.055.891.163 1.322l.571 2.282c-.43.501-.7 1.139-.723 1.844h-.005l-.105 1.058c-1.824-.187-3.515-.987-4.829-2.301l-.192-.192c-.946-.945-2.201-1.465-3.537-1.465h-.438c-1.284 0-2.363.843-2.746 2h-.159c-.586 0-1.139.134-1.641.362-.234-.668-.359-1.374-.359-2.081 0-3.463 2.818-6.281 6.281-6.281zm-6.281 12c0-1.103.897-2 2-2h.095l.4 4h-.495c-1.103 0-2-.897-2-2zm4-3.095c0-.499.406-.905.905-.905h.438c.79 0 1.563.32 2.121.878l.192.192c1.633 1.633 3.732 2.632 6.044 2.873l-.335 3.355c-.154 1.54-1.437 2.702-2.985 2.702h-2.76c-1.548 0-2.832-1.162-2.985-2.702zm3.62 11.095h2.76c.409 0 .8-.064 1.181-.156l.216.649-2.777 1.389-2.777-1.389.216-.649c.381.092.772.156 1.181.156zm-11.62 12.018c0-4.75 3.381-8.875 8.039-9.806l.253-.051 3.382 11.839h-11.674zm21 3.982c-1.654 0-3-1.346-3-3v-4.583c0-3.306 2.254-6.116 5.481-6.833l2.032-.451 1.721 2.867h-3.234c-1.103 0-2 .897-2 2v4h-2v2h2v4zm3 2v-2h10v2zm13-2h-1v-4h2v-2h-2v-4c0-1.103-.897-2-2-2h-3.234l1.72-2.867 2.032.451c3.228.717 5.482 3.527 5.482 6.833v4.583c0 1.654-1.346 3-3 3zm21-2h-11.674l3.382-11.839.253.051c4.658.932 8.039 5.056 8.039 9.806z"/><path d="m16 57c-1.654 0-3 1.346-3 3s1.346 3 3 3 3-1.346 3-3-1.346-3-3-3zm0 4c-.551 0-1-.449-1-1s.449-1 1-1 1 .449 1 1-.449 1-1 1z"/><path d="m48 57c-1.654 0-3 1.346-3 3s1.346 3 3 3 3-1.346 3-3-1.346-3-3-3zm0 4c-.551 0-1-.449-1-1s.449-1 1-1 1 .449 1 1-.449 1-1 1z"/><path d="m43 53h2v2h-2z"/><path d="m49 53h2v2h-2z"/><path d="m61 57h2v2h-2z"/><path d="m19 53h2v2h-2z"/><path d="m13 53h2v2h-2z"/><path d="m1 57h2v2h-2z"/></g></g></svg>