<svg id="_x33_0" enable-background="new 0 0 64 64" height="512" viewBox="0 0 64 64" width="512" xmlns="http://www.w3.org/2000/svg"><g><g><g><path d="m22.87 7.57c-.55.66-.87 1.52-.87 2.43 0 .36.03.75.29 2.25-7.28 3.59-12.29 11.09-12.29 19.75 0 8.97 5.36 16.68 13.06 20.11-.86.62-1.63 1.35-2.3 2.16-.33.4-.64.83-.91 1.27-1.75-.07-3.49.58-4.77 1.87l-.05.05-8.49-8.49.05-.05c1.22-1.22 1.88-2.86 1.88-4.53 0-.82-.16-1.65-.49-2.44-.99-2.39-3.32-3.95-5.91-3.95h-.07v-12h.07c1.29 0 2.53-.39 3.55-1.08 1.04-.69 1.86-1.68 2.36-2.87.99-2.39.44-5.14-1.39-6.97l-.05-.05 8.49-8.49.05.05c1.22 1.22 2.86 1.88 4.53 1.88.82 0 1.65-.16 2.44-.49.28-.12.56-.26.82-.41z" fill="#fcd770"/></g><g><path d="m41.95 7.98c2.39.99 5.14.44 6.97-1.39l.05-.05 8.49 8.49-.05.05c-1.22 1.22-1.88 2.86-1.88 4.53 0 .82.16 1.65.49 2.44.99 2.39 3.32 3.95 5.91 3.95h.07v12h-.07c-1.29 0-2.53.39-3.55 1.08-1.04.69-1.86 1.68-2.36 2.87-.99 2.39-.44 5.14 1.39 6.97l.05.05-8.49 8.49-.05-.05c-1.28-1.29-3.02-1.94-4.77-1.87-.84-1.34-1.93-2.51-3.21-3.43 7.7-3.43 13.06-11.14 13.06-20.11 0-8.62-4.95-16.08-12.17-19.69h-.01c.12-.56.18-1.13.18-1.71l-.47-2.81c.14.06.28.13.42.19z" fill="#fcd770"/></g><g><path d="m46 36h-7.54c.96-1.06 1.54-2.46 1.54-4 0-1.1-.45-2.1-1.17-2.83-.36-.36-.79-.65-1.27-.85l1.16-3.48c4.35 1.91 7.28 6.25 7.28 11.16z" fill="#ff826e"/></g><g><path d="m22 35.34c0 .22.01.44.04.65l-.04.01h-4c0-4.91 2.93-9.25 7.28-11.16l1.72 5.17v.01c-1.34.07-2.54.65-3.44 1.54-.96.97-1.56 2.3-1.56 3.78z" fill="#ff826e"/></g><g><path d="m27 30.01 5-4.01 2.9 2.33c-.11.07-.21.16-.31.26-.37.36-.59.86-.59 1.41h-6.66c-.11 0-.23 0-.34.02z" fill="#ff826e"/></g><g><path d="m38.72 24.84-1.16 3.48c-.47-.21-1-.32-1.56-.32-.4 0-.77.12-1.09.33h-.01l-2.9-2.33 4-2 .19.04c.88.18 1.73.45 2.53.8z" fill="#fc6e51"/></g><g><path d="m32 26-5 4.01-1.72-5.17c.8-.35 1.65-.62 2.53-.8l.19-.04z" fill="#fc6e51"/></g><g><path d="m25 12c-1.02 0-1.92.51-2.46 1.28l-.25-1.03c-.26-1.5-.29-1.89-.29-2.25 0-.91.32-1.77.87-2.43.51-.63 1.22-1.1 2.04-1.3l1.09-.27.36-.48c.83-1.11 1.9-1.99 3.1-2.59 1.21-.61 2.56-.93 3.94-.93 2.38 0 4.52.96 6.08 2.52.91.91 1.62 2.03 2.05 3.27l.47 2.81c0 .58-.06 1.15-.18 1.71-.06.34-.15.68-.26 1.01l-.02.07h-.01c-.53-.84-1.46-1.39-2.53-1.39h-1.17-.01c-.4-1.17-1.51-2-2.82-2h-6c-1.31 0-2.42.83-2.82 2z" fill="#656d78"/></g><g><path d="m34.91 28.33c.32-.21.69-.33 1.09-.33.56 0 1.09.11 1.56.32.48.2.91.49 1.27.85.72.73 1.17 1.73 1.17 2.83 0 1.54-.58 2.94-1.54 4-.07.08-.14.16-.22.24l-.24.23c-1.06.95-2.46 1.53-4 1.53-1.3 0-2.57-.41-3.62-1.17l-.5-.37c-.42-.3-.92-.46-1.43-.46-1.21 0-2.2.86-2.41 2h-1.04c-.9 0-1.7.39-2.24 1.02l-.01-.01-.59-2.37c-.06-.22-.1-.43-.12-.65-.03-.21-.04-.43-.04-.65 0-1.48.6-2.81 1.56-3.78.9-.89 2.1-1.47 3.44-1.54.11-.02.23-.02.34-.02h6.66c0-.55.22-1.05.59-1.41.1-.1.2-.19.31-.26z" fill="#656d78"/></g><g><path d="m27 56 2.61-2.09 1.39 2.09-2 6h-11c0-2.35.67-4.57 1.85-6.46.27-.44.58-.87.91-1.27.67-.81 1.44-1.54 2.3-2.16.69-.5 1.43-.92 2.22-1.27z" fill="#b4dd7f"/></g><g><path d="m34.39 53.91 2.61 2.09 1.72-5.16c.79.35 1.53.77 2.22 1.27 1.28.92 2.37 2.09 3.21 3.43 1.18 1.89 1.85 4.11 1.85 6.46h-11l-2-6z" fill="#b4dd7f"/></g><g><path d="m32 52 4-2 .19.04c.88.18 1.73.45 2.53.8l-1.72 5.16-2.61-2.09z" fill="#a0d468"/></g><g><path d="m28 50 4 2-2.39 1.91-2.61 2.09-1.72-5.16c.8-.35 1.65-.62 2.53-.8z" fill="#a0d468"/></g><g><path d="m33 56 2 6h-6l2-6z" fill="#ff826e"/></g><g><path d="m34.39 53.91-1.39 2.09h-2l-1.39-2.09 2.39-1.91z" fill="#fc6e51"/></g><g><path d="m39 38c1.66 0 3 1.34 3 3 0 .83-.34 1.58-.88 2.12s-1.29.88-2.12.88h-1v-6z" fill="#f0d0b4"/></g><g><path d="m34 48c.45 0 .87-.07 1.27-.21v.01l.73 2.2-4 2-4-2 .73-2.2v-.01c.4.14.82.21 1.27.21z" fill="#f0d0b4"/></g><g><path d="m26.04 38c.21-1.14 1.2-2 2.41-2 .51 0 1.01.16 1.43.46l.5.37c1.05.76 2.32 1.17 3.62 1.17 1.54 0 2.94-.58 4-1.53v1.53 6c0 1.76-1.14 3.26-2.73 3.79-.4.14-.82.21-1.27.21h-4c-.45 0-.87-.07-1.27-.21-1.59-.53-2.73-2.03-2.73-3.79v-5.55c0-.15.01-.3.04-.45z" fill="#f0d0b4"/></g><g><path d="m25 38h1.04c-.03.15-.04.3-.04.45v5.55h-1c-.83 0-1.58-.34-2.12-.88s-.88-1.29-.88-2.12c0-.76.29-1.45.76-1.98.54-.63 1.34-1.02 2.24-1.02z" fill="#f0d0b4"/></g><g><path d="m39 12c1.07 0 2 .55 2.53 1.39.3.46.47 1.02.47 1.61 0 .83-.34 1.58-.88 2.12s-1.29.88-2.12.88h-1v-5c0-.35-.06-.69-.18-1h.01z" fill="#f0d0b4"/></g><g><path d="m34 22c.45 0 .87-.07 1.27-.21v.01l.73 2.2-4 2-4-2 .73-2.2v-.01c.4.14.82.21 1.27.21z" fill="#f0d0b4"/></g><g><path d="m38 13v5c0 1.76-1.14 3.26-2.73 3.79-.4.14-.82.21-1.27.21h-4c-.45 0-.87-.07-1.27-.21-1.59-.53-2.73-2.03-2.73-3.79v-5c0-.35.06-.69.18-1 .4-1.17 1.51-2 2.82-2h6c1.31 0 2.42.83 2.82 2 .12.31.18.65.18 1z" fill="#f0d0b4"/></g><g><path d="m25 12h1.18c-.12.31-.18.65-.18 1v5h-1c-.83 0-1.58-.34-2.12-.88s-.88-1.29-.88-2.12c0-.64.2-1.23.54-1.72.54-.77 1.44-1.28 2.46-1.28z" fill="#f0d0b4"/></g></g><g><path d="m34 41.764c-.381.762-1.147 1.236-2 1.236h-3v2h3c1.615 0 3.067-.897 3.789-2.342l.105-.211-1.789-.895z"/><path d="m34.527 13.896.154.052.637-1.896-.156-.052c-1.293-.432-2.162-1.637-2.162-3h-2c0 2.226 1.418 4.193 3.527 4.896z"/><path d="m62.934 25h-1c-2.192 0-4.15-1.31-4.989-3.336-.837-2.023-.377-4.332 1.219-5.928l.707-.707-9.192-9.192-.754-.66-.707.707c-1.549 1.549-3.855 2.01-5.885 1.17-.008-.003-.016-.008-.024-.011-1.42-3.536-4.876-6.043-8.913-6.043-3.066 0-5.995 1.464-7.834 3.917l-.149.199-.745.187c-.957.239-1.774.762-2.4 1.452-.195.11-.394.214-.604.301-2.023.835-4.332.377-5.928-1.219l-.707-.707-9.192 9.192-.66.754.707.707c1.549 1.549 2.009 3.857 1.172 5.882-.838 2.025-2.796 3.335-5.056 3.335h-1v13l.066 1h1c2.193 0 4.151 1.31 4.989 3.336.837 2.023.377 4.332-1.219 5.928l-.706.707 9.192 9.192.754.66.707-.707c.649-.648 1.453-1.116 2.32-1.368-.707 1.621-1.103 3.399-1.103 5.252v1h30v-1c0-1.852-.395-3.628-1.102-5.248.872.256 1.688.734 2.366 1.411l.707.707 9.192-9.192.66-.754-.707-.707c-1.549-1.549-2.009-3.857-1.172-5.882.838-2.025 2.796-3.335 5.056-3.335h1v-13zm-26.166 24.14-.277-.83c1.216-.705 2.119-1.89 2.409-3.31h.1c2.206 0 4-1.794 4-4s-1.794-4-4-4v-.105c1.236-1.264 2-2.991 2-4.895 0-1.336-.521-2.591-1.465-3.535-.235-.235-.49-.444-.76-.625l.526-1.58c3.434 1.947 5.699 5.63 5.699 9.74h2c0-6.142-4.281-11.489-10.232-12.86l-.277-.83c1.216-.705 2.119-1.89 2.409-3.31h.1c2.206 0 4-1.794 4-4 0-.335-.054-.656-.132-.968 6.288 3.795 10.132 10.531 10.132 17.968 0 8.108-4.692 15.484-11.987 18.959-1.273-.836-2.701-1.464-4.245-1.819zm-13.781 1.819c-7.295-3.474-11.987-10.851-11.987-18.959 0-7.447 3.842-14.172 10.131-17.964-.078.31-.131.63-.131.964 0 2.206 1.794 4 4 4h.101c.289 1.419 1.193 2.604 2.408 3.309l-.277.83c-5.952 1.373-10.232 6.72-10.232 12.861h2c0-4.11 2.266-7.793 5.7-9.741l.989 2.967c-2.697.731-4.689 3.193-4.689 6.117 0 .517.063 1.033.189 1.537l.479 1.914c-.42.633-.668 1.391-.668 2.206 0 2.206 1.794 4 4 4h.101c.289 1.419 1.193 2.604 2.408 3.309l-.277.83c-1.544.357-2.972.985-4.245 1.82zm2.013-33.959c-1.103 0-2-.897-2-2s.897-2 2-2zm14 22c1.103 0 2 .897 2 2s-.897 2-2 2zm-5-2c-1.097 0-2.146-.34-3.033-.983l-.501-.362c-.592-.428-1.29-.655-2.021-.655-1.382 0-2.568.823-3.117 2h-.328c-.582 0-1.131.131-1.631.356l-.239-.959c-.086-.346-.13-.7-.13-1.054 0-2.395 1.948-4.343 4.343-4.343h5.841c.414 1.162 1.515 2.002 2.817 2.002h.999v-2h-.999c-.552 0-1.001-.448-1.001-1s.448-1.001 1-1.001h.002c.801 0 1.553.312 2.119.878s.879 1.319.879 2.121c0 2.757-2.243 5-5 5zm.777 12.493-2.777 1.389-2.777-1.389.184-.553c.197.024.39.06.593.06h4c.203 0 .396-.036.593-.06zm-.777-2.493h-4c-1.654 0-3-1.346-3-3v-5.555c0-.797.648-1.445 1.445-1.445.307 0 .6.095.849.275l.5.361c1.231.892 2.685 1.364 4.206 1.364 1.073 0 2.09-.243 3-.676v5.676c0 1.654-1.346 3-3 3zm-9-4c-1.103 0-2-.897-2-2s.897-2 2-2zm2.869-17.947 2.288 1.144-2.659 2.135-.967-2.9c.435-.152.879-.282 1.338-.379zm5.316 3.947h-3.324l2.14-1.718 1.449 1.159c-.108.176-.195.362-.265.559zm2.817-1.999s-.001 0-.002 0c-.33 0-.643.067-.94.166l-1.214-.971 2.286-1.143c.458.098.903.227 1.337.378l-.553 1.659c-.299-.055-.604-.089-.914-.089zm-1.409-4.061.184.553-2.777 1.389-2.777-1.389.184-.553c.197.024.39.06.593.06h4c.203 0 .396-.036.593-.06zm-6.725 28.112 2.286 1.143-2.659 2.128-.965-2.894c.435-.151.88-.279 1.338-.377zm3.852 5.948h.559l1.333 4h-3.226zm.745-2h-.93l-.586-.878 1.051-.841 1.051.84zm1.381-2.805 2.286-1.143c.458.097.904.226 1.338.377l-.965 2.894zm7.154-37.195c0 1.103-.897 2-2 2v-4c1.103 0 2 .897 2 2zm-15.848-7.758 1.435-.358.575-.768c1.464-1.951 3.794-3.116 6.234-3.116 4.193 0 7.604 3.411 7.604 7.604 0 .307-.037.61-.073.913-.574-.319-1.225-.517-1.927-.517h-.556c-.694-1.19-1.97-2-3.444-2v2c1.103 0 2 .897 2 2v5c0 1.654-1.346 3-3 3h-4c-1.654 0-3-1.346-3-3v-5c0-1.103.897-2 2-2v-2c-1.474 0-2.75.81-3.444 2h-.556c-.669 0-1.291.181-1.846.472-.099-.558-.154-1.058-.154-1.472 0-1.307.886-2.44 2.152-2.758zm-10.077 48.846-7.158-7.158c1.617-2.082 2.014-4.877.986-7.358-1.021-2.471-3.258-4.165-5.903-4.508v-10.123c2.618-.328 4.876-2.026 5.903-4.512 1.021-2.468.635-5.244-.99-7.354l7.157-7.158c1.706 1.324 3.888 1.814 5.988 1.388-.032.229-.058.459-.058.695 0 .507.059 1.086.167 1.721-7.52 4.015-12.167 11.709-12.167 20.279 0 8.549 4.757 16.364 12.24 20.329-.717.666-1.359 1.407-1.912 2.213-1.54.054-3.014.593-4.253 1.546zm9.623-3.835 1.807 5.423 2.877-2.301.515.773-1.617 4.852h-9.235c.333-3.704 2.499-6.959 5.653-8.747zm11.022 8.747-1.617-4.852.515-.773 2.877 2.301 1.807-5.423c3.154 1.787 5.32 5.043 5.653 8.747zm25.28-23.941c-2.618.328-4.876 2.026-5.903 4.512-1.021 2.468-.635 5.244.99 7.354l-7.158 7.159c-1.219-.943-2.71-1.48-4.255-1.54-.554-.806-1.197-1.549-1.914-2.215 7.483-3.965 12.24-11.78 12.24-20.329 0-8.523-4.614-16.202-12.079-20.231.048-.386.079-.774.079-1.165 0-.444-.041-.878-.1-1.306 2.099.437 4.287-.046 6.024-1.384l7.158 7.157c-1.617 2.082-2.014 4.877-.986 7.359 1.022 2.47 3.26 4.163 5.903 4.506v10.123z"/></g></g></svg>