<svg id="_x33_0" enable-background="new 0 0 64 64" height="512" viewBox="0 0 64 64" width="512" xmlns="http://www.w3.org/2000/svg"><g><g><g><path d="m22 44-12.97 16.68c-.64-.71-1.03-1.65-1.03-2.68v-25.55c0-.13.03-.26.08-.38l7.92 6.79z" fill="#dfb28b"/></g><g><path d="m56 32.45v25.55c0 1.03-.39 1.97-1.03 2.68l-12.97-16.68 6-5.14 7.92-6.79c.05.12.08.25.08.38z" fill="#dfb28b"/></g><g><path d="m16 25v13.86l-7.92-6.79c.05-.14.14-.27.26-.37z" fill="#cf9e76"/></g><g><path d="m55.92 32.07-7.92 6.79v-13.86l7.66 6.7c.12.1.21.23.26.37z" fill="#cf9e76"/></g><g><path d="m42 44 12.97 16.68c-.73.81-1.79 1.32-2.97 1.32h-40c-1.18 0-2.24-.51-2.97-1.32l12.97-16.68z" fill="#d3a06c"/></g><g><path d="m48 6v4h-32v-4c0-2.21 1.79-4 4-4h24c2.21 0 4 1.79 4 4z" fill="#969faa"/></g><g><path d="m48 25v13.86l-6 5.14h-20l-6-5.14v-13.86-15h32z" fill="#69d6f4"/></g><g><circle cx="41" cy="54" fill="#fcd770" r="2"/></g><g><circle cx="32" cy="54" fill="#fcd770" r="2"/></g><g><circle cx="24" cy="54" fill="#fcd770" r="2"/></g></g><g><path d="m39 25v1c0 3.859-3.14 7-7 7s-7-3.141-7-7v-2c0-2.757 2.243-5 5-5s5 2.243 5 5v2c0 .552-.449 1-1 1s-1-.448-1-1v-2c0-1.654-1.346-3-3-3s-3 1.346-3 3v2c0 1.654 1.346 3 3 3 .771 0 1.468-.301 2-.78.532.48 1.229.78 2 .78 1.654 0 3-1.346 3-3v-2c0-3.859-3.14-7-7-7s-7 3.141-7 7v2c0 4.963 4.038 9 9 9s9-4.037 9-9v-1zm-9 2c-.551 0-1-.448-1-1v-2c0-.552.449-1 1-1s1 .448 1 1v2c0 .552-.449 1-1 1z"/><path d="m23 5h10v2h-10z"/><path d="m35 5h2v2h-2z"/><path d="m39 5h2v2h-2z"/><path d="m32 51c-1.654 0-3 1.346-3 3s1.346 3 3 3 3-1.346 3-3-1.346-3-3-3zm0 4c-.551 0-1-.448-1-1s.449-1 1-1 1 .448 1 1-.449 1-1 1z"/><path d="m24 51c-1.654 0-3 1.346-3 3s1.346 3 3 3 3-1.346 3-3-1.346-3-3-3zm0 4c-.551 0-1-.448-1-1s.449-1 1-1 1 .448 1 1-.449 1-1 1z"/><path d="m41 51c-1.654 0-3 1.346-3 3s1.346 3 3 3 3-1.346 3-3-1.346-3-3-3zm0 4c-.551 0-1-.448-1-1s.449-1 1-1 1 .448 1 1-.449 1-1 1z"/><path d="m49 24.546v-18.546c0-2.757-2.243-5-5-5h-24c-2.757 0-5 2.243-5 5v18.546l-7.317 6.403c-.434.379-.683.928-.683 1.505v25.546c0 2.757 2.243 5 5 5h40c2.757 0 5-2.243 5-5v-25.546c0-.577-.249-1.126-.683-1.506zm5.849 34.346-11.474-14.754 11.625-9.965v23.827c0 .313-.061.608-.151.892zm-45.698 0c-.089-.284-.151-.579-.151-.892v-23.827l11.625 9.965zm13.219-15.892-5.37-4.603v-27.397h30v27.397l-5.37 4.603zm32.102-11.008-5.472 4.691v-9.479zm-34.472-28.992h24c1.654 0 3 1.346 3 3v3h-30v-3c0-1.654 1.346-3 3-3zm-5 33.683-5.472-4.691 5.472-4.788zm-3 24.317c-.586 0-1.129-.175-1.591-.467l12.08-15.533h19.021l12.081 15.533c-.462.292-1.005.467-1.591.467z"/><path d="m9 9h2v8h-2z"/><path d="m5 5h2v16h-2z"/><path d="m1 1h2v24h-2z"/><path d="m53 9h2v8h-2z"/><path d="m57 5h2v16h-2z"/><path d="m61 1h2v24h-2z"/></g></g></svg>