<svg id="_x33_0" enable-background="new 0 0 64 64" height="512" viewBox="0 0 64 64" width="512" xmlns="http://www.w3.org/2000/svg"><g><g><g><path d="m46 6c1.25 1.67 2 3.75 2 6v4 10 1c0 .55-.45 1-1 1h-1c-.69 0-1.36-.09-2-.25v4.25c2.76.55 5.16 2 6.92 4 .09.1.17.21.26.31 1.77 2.17 2.82 4.93 2.82 7.89v1.8 10h4v-50z" fill="#cf9e76"/></g><g><path d="m62 4v56c0 .55-.22 1.05-.59 1.41-.36.37-.86.59-1.41.59-1.1 0-2-.9-2-2v-4-10-10-10-10-10-2c0-.55.22-1.05.59-1.41.36-.37.86-.59 1.41-.59 1.1 0 2 .9 2 2z" fill="#b27946"/></g><g><path d="m42 26.92c-2.39-1.37-4-3.96-4-6.92v-7c0-1.66-1.34-3-3-3h-3-4-2c-2.21 0-4-1.79-4-4s1.79-4 4-4h12c3.27 0 6.17 1.57 8 4 1.25 1.67 2 3.75 2 6v4 10 1c0 .55-.45 1-1 1h-1c-.69 0-1.36-.09-2-.25-.71-.19-1.38-.46-2-.82z" fill="#656d78"/></g><g><path d="m51.18 36.31c-.09-.1-.17-.21-.26-.31-1.76-2-4.16-3.45-6.92-4v1.38c0 1.63-.34 3.19-.96 4.62h-.01-1.03c3.31 0 6 2.69 6 6 0 2.61-1.67 4.84-4 5.66v6.34l-2-2-2 2v-6.34c-2.33-.82-4-3.05-4-5.66 0-.16.01-.33.02-.48-2.28-1.24-4.04-3.2-5.06-5.52-.61-1.39-.94-2.92-.96-4.5v-.17l-2.53.85c-3.27 1.09-5.47 4.14-5.47 7.59v1.23l-4-6-6 2 6.33 13.44c.51 1.08 1.31 1.98 2.28 2.59.97.62 2.12.97 3.32.97 1.34 0 2.65-.44 3.72-1.24l.35-.26v7.5h8 12 6v-6-10-1.8c0-2.96-1.05-5.72-2.82-7.89z" fill="#b4dd7f"/></g><g><path d="m30.96 38h11.04c-3.15 0-5.73 2.43-5.98 5.52-2.28-1.24-4.04-3.2-5.06-5.52z" fill="#ffeaa7"/></g><g><path d="m44 49.66v6.34l-2-2-2 2v-6.34c.63.22 1.3.34 2 .34s1.37-.12 2-.34z" fill="#fcd770"/></g><g><path d="m42 38c3.31 0 6 2.69 6 6 0 2.61-1.67 4.84-4 5.66-.63.22-1.3.34-2 .34s-1.37-.12-2-.34c-2.33-.82-4-3.05-4-5.66 0-.16.01-.33.02-.48.25-3.09 2.83-5.52 5.98-5.52z" fill="#fc6e51"/></g><g><circle cx="42" cy="44" fill="#ff826e" r="2"/></g><g><path d="m18 35v2l-6 2-4.69-2.34c-.8-.41-1.31-1.23-1.31-2.13v-.05c0-1.37 1.11-2.48 2.47-2.48h1.53 4 1c1.66 0 3 1.34 3 3z" fill="#f0d0b4"/></g><g><path d="m32 10h3c1.66 0 3 1.34 3 3v7c0 2.96 1.61 5.55 4 6.92v.01c.62.36 1.29.63 2 .82v4.25 1.38c0 1.63-.34 3.19-.96 4.62h-.01-1.03-11.04c-.61-1.39-.94-2.92-.96-4.5v-.17l1.95-.65c1.22-.4 2.05-1.55 2.05-2.84v-4.44l-2.56.51c-.29.06-.59.09-.89.09-1.96 0-3.64-1.25-4.27-3h1.72c2.21 0 4-1.79 4-4h-6v-9h2z" fill="#f0d0b4"/></g><g><path d="m26 19h6c0 2.21-1.79 4-4 4h-1.72-.01c-.17-.48-.27-1.01-.27-1.55z" fill="#ff826e"/></g><g><path d="m16 28v2c0 1.1-.9 2-2 2-1.29 0-2.71 0-4 0-1.1 0-2-.9-2-2v-2h2 4z" fill="#ccd1d9"/></g><g><path d="m12 8c-5.52 0-10 3.48-10 9 0 5 5 7 6 11h2 4 2c1-4 6-6 6-11 0-5.52-4.48-9-10-9z" fill="#ffeaa7"/></g><g><path d="m17.41 14.59c.37.36.59.86.59 1.41s-.22 1.05-.59 1.41c-.36.37-.86.59-1.41.59h-2v-2c0-1.1.9-2 2-2 .55 0 1.05.22 1.41.59z" fill="#fcd770"/></g><g><path d="m10 16v2h-2c-1.1 0-2-.9-2-2 0-.55.22-1.05.59-1.41.36-.37.86-.59 1.41-.59s1.05.22 1.41.59c.37.36.59.86.59 1.41z" fill="#fcd770"/></g></g><g><path d="m42 41c-1.654 0-3 1.346-3 3s1.346 3 3 3 3-1.346 3-3-1.346-3-3-3zm0 4c-.551 0-1-.448-1-1s.449-1 1-1 1 .448 1 1-.449 1-1 1z"/><path d="m32 14c-.551 0-1-.448-1-1h-2c0 1.654 1.346 3 3 3s3-1.346 3-3h-2c0 .552-.449 1-1 1z"/><path d="m43 15h2v4h-2z"/><path d="m41 11h2v2h-2z"/><path d="m60 1c-1.654 0-3 1.346-3 3v1h-10.521c-2.02-2.441-5.071-4-8.479-4h-12c-2.757 0-5 2.243-5 5 0 2.414 1.721 4.434 4 4.899v10.551c0 3.061 2.489 5.55 5.549 5.55.365 0 .731-.036 1.089-.107l1.362-.273v3.218c0 .862-.549 1.624-1.368 1.897l-4.479 1.493c-3.101 1.033-5.339 3.634-5.968 6.747l-2.185-3.278v-1.697c0-1.615-.966-3.001-2.345-3.632.213-.412.345-.873.345-1.368v-1.871c.397-1.438 1.443-2.646 2.549-3.922 1.618-1.868 3.451-3.984 3.451-7.207 0-5.794-4.626-10-11-10s-11 4.206-11 10c0 3.223 1.833 5.339 3.451 7.207 1.106 1.276 2.152 2.484 2.549 3.922v1.871c0 .439.1.853.27 1.229-1.321.494-2.27 1.769-2.27 3.303 0 1.287.716 2.444 1.867 3.02l4.375 2.188 6.178 13.127c1.182 2.51 3.739 4.133 6.514 4.133 1.062 0 2.11-.257 3.066-.707v6.707h28v-6h2v3c0 1.654 1.346 3 3 3s3-1.346 3-3v-56c0-1.654-1.346-3-3-3zm-3 6v8h-8v-3c0-1.801-.444-3.498-1.214-5zm-4.108 30h4.108v8h-2v-.802c0-2.622-.771-5.099-2.108-7.198zm-1.557-2c-1.684-1.792-3.855-3.137-6.335-3.794v-2.265c.329.037.662.059 1 .059h1c1.103 0 2-.897 2-2h8v8zm-16.012 6.899c-1.084-.793-1.987-1.783-2.69-2.899h4.477c-.814.796-1.436 1.787-1.787 2.899zm5.677 9.021c.328.047.66.08 1 .08s.672-.033 1-.08v2.666l-1-1-1 1zm1 4.494 3 3v-8.099c.749-.357 1.426-.839 2-1.425v12.11h-10v-12.111c.574.587 1.251 1.068 2 1.425v8.099zm0-6.414c-2.757 0-5-2.243-5-5s2.243-5 5-5 5 2.243 5 5-2.243 5-5 5zm7-24v-8h8v8zm-26-19c0-1.654 1.346-3 3-3h12c4.962 0 9 4.037 9 9v15h-1c-1.075 0-2.089-.251-3-.685v-5.315h-2v3.889c-1.235-1.263-2-2.988-2-4.889v-7c0-2.206-1.794-4-4-4h-.584c.371-.671.584-1.433.584-2.236v-1.764h-2v1.764c0 .934-.499 1.766-1.294 2.236h-1.29c.371-.671.584-1.433.584-2.236v-1.764h-2v1.764c0 .934-.499 1.766-1.294 2.236h-1.706c-1.654 0-3-1.346-3-3zm5 16h-.944c-.029-.18-.056-.362-.056-.55v-1.45h3.829c-.413 1.164-1.525 2-2.829 2zm4.265 11.632c1.636-.545 2.735-2.069 2.735-3.794v-3.618l1.196-.239-.393-1.961-4.557.912c-.228.045-.462.068-.697.068-.96 0-1.829-.387-2.469-1.008 2.719-.044 4.92-2.263 4.92-4.992v-1h-6v-7h8c1.103 0 2 .897 2 2v7c0 3.91 2.51 7.236 6 8.475v3.525.819.564c0 1.247-.228 2.458-.652 3.616h-10.686c-.345-.943-.557-1.936-.62-2.961zm-23.265-3.632v-1h6.013l-.013 1c0 .552-.449 1-1 1h-4c-.551 0-1-.448-1-1zm0-13h-1c-.551 0-1-.448-1-1s.449-1 1-1 1 .448 1 1zm4 10h-2v-8h2zm-7.038-4.103c-1.523-1.758-2.962-3.419-2.962-5.897 0-4.71 3.701-8 9-8s9 3.29 9 8c0 2.478-1.439 4.139-2.962 5.897-1.073 1.238-2.176 2.515-2.769 4.103h-.269v-8h1c1.654 0 3-1.346 3-3s-1.346-3-3-3-3 1.346-3 3v1h-2v-1c0-1.654-1.346-3-3-3s-3 1.346-3 3 1.346 3 3 3h1v8h-.268c-.594-1.588-1.697-2.864-2.77-4.103zm9.038-5.897v-1c0-.552.449-1 1-1s1 .448 1 1-.449 1-1 1zm-7.239 18.763c-.469-.235-.761-.706-.761-1.282 0-.816.661-1.481 1.472-1.481h6.531c1.101 0 1.997.897 1.997 2v1.28l-4.923 1.641zm19.239 8.237v9.993c-.884.647-1.969 1.007-3.066 1.007-2.004 0-3.85-1.172-4.704-2.985l-5.846-12.422 4.207-1.403 3.409 5.113v4.697h2v-6.234c0-3.018 1.923-5.686 4.787-6.641l1.289-.43c.407 3.867 2.591 7.348 5.925 9.388v16.917h-6v-17zm26 17h-4v-17c0-3.041-1.953-5.629-4.669-6.592.44-1.294.669-2.642.669-4.024v-.088c4.7 1.486 8 5.885 8 10.902zm2-6v-8h2v8zm6 5c0 .552-.449 1-1 1s-1-.448-1-1v-56c0-.552.449-1 1-1s1 .448 1 1z"/><path d="m11 1h2v4h-2z"/><path d="m4.5 2.379h2v4.243h-2z" transform="matrix(.707 -.707 .707 .707 -1.571 5.207)"/><path d="m16.379 3.5h4.243v2h-4.243z" transform="matrix(.707 -.707 .707 .707 2.237 14.4)"/></g></g></svg>