<svg id="_x33_0" enable-background="new 0 0 64 64" height="512" viewBox="0 0 64 64" width="512" xmlns="http://www.w3.org/2000/svg"><g><g><g><path d="m11 4c-.55 0-1 .45-1 1v23 8c0-1.1.9-2 2-2 .55 0 1.05.22 1.41.59.37.36.59.86.59 1.41v4 4 2.17c0 .62-.09 1.24-.26 1.83-.3 1.12-.9 2.16-1.74 3v11h10l.01-52c.05-.65.41-1.25.98-1.58l7.58-4.42z" fill="#e6e9ed"/></g><g><path d="m4 51h8v11h-8z" fill="#4fc1e9"/></g><g><path d="m10 36c0-1.1.9-2 2-2 .55 0 1.05.22 1.41.59.37.36.59.86.59 1.41v4 4 2.17c0 .62-.09 1.24-.26 1.83-.3 1.12-.9 2.16-1.74 3h-8v-17c0-3.31 2.69-6 6-6z" fill="#f0d0b4"/></g><g><path d="m22.01 10c-.01.05-.01.1-.01.15v19.85h-8v-20z" fill="#f0d0b4"/></g><g><path d="m61 2h-26.46c-.19 0-.38.03-.56.08l-1.75 3.92h12.77c.55 0 1 .45 1 1v15 3c0 .55-.45 1-1 1h-3-12-3c-.55 0-1-.45-1-1v-14.99c-.08-.01-.16-.01-.24-.01h-3.75c-.01.05-.01.1-.01.15v19.85 6 4 2 2 4 14h20 19c.55 0 1-.45 1-1v-31-8-19c0-.55-.45-1-1-1z" fill="#ffeaa7"/></g><g><path d="m50 6h8v4h-8z" fill="#e6e9ed"/></g><g><path d="m58 38v12h-10v-8h4v-4z" fill="#b4dd7f"/></g><g><path d="m52 38v4h-4-2v-8h6z" fill="#ff826e"/></g><g><path d="m36 10c-2.21 0-4 1.79-4 4s1.79 4 4 4c-3.31 0-6 2.69-6 6v2h-3c-.55 0-1-.45-1-1v-14.99c1.39.03 2.75.37 4 .99l2.23-5h12.77c.55 0 1 .45 1 1v15 3c0 .55-.45 1-1 1h-3v-2c0-1.66-.67-3.16-1.76-4.24-1.08-1.09-2.58-1.76-4.24-1.76 2.21 0 4-1.79 4-4s-1.79-4-4-4z" fill="#e6e9ed"/></g><g><path d="m33.98 2.08-1.75 3.92-2.23 5c-1.25-.62-2.61-.96-4-.99-.08-.01-.16-.01-.24-.01h-3.75c.05-.65.41-1.25.98-1.58l7.58-4.42 2.96-1.73c.14-.08.29-.15.45-.19z" fill="#ff826e"/></g><g><path d="m42 24v2h-12v-2c0-3.31 2.69-6 6-6 1.66 0 3.16.67 4.24 1.76 1.09 1.08 1.76 2.58 1.76 4.24z" fill="#b4dd7f"/></g><g><circle cx="36" cy="14" fill="#f0d0b4" r="4"/></g></g><g><path d="m61 1h-26.459c-.531 0-1.054.142-1.512.408l-2.729 1.592h-19.3c-1.103 0-2 .897-2 2v22.08c-3.387.488-6 3.401-6 6.92v29h58c1.103 0 2-.897 2-2v-58c0-1.103-.897-2-2-2zm-28 13c0-1.654 1.346-3 3-3s3 1.346 3 3-1.346 3-3 3-3-1.346-3-3zm8 11h-10v-1c0-2.757 2.243-5 5-5s5 2.243 5 5zm-1.779-7.208c1.079-.918 1.779-2.268 1.779-3.792 0-2.757-2.243-5-5-5s-5 2.243-5 5c0 1.524.7 2.874 1.779 3.792-2.242 1.168-3.779 3.51-3.779 6.208v1h-2v-13.897c.885.132 1.753.392 2.553.792l.935.467 2.39-5.362h12.122v18h-2v-1c0-2.698-1.537-5.04-3.779-6.208zm-9.73-8.105c-1.188-.452-2.458-.687-3.727-.687h-1.779l7.854-4.582zm-2.619-4.687-4.384 2.558c-.569.332-.982.85-1.231 1.442h-8.257v22h8v4h-6.184c-.414-1.161-1.514-2-2.816-2-.352 0-.686.072-1 .184v-28.184zm-5.872 6v18h-6v-18zm-6 35.172v-1.172h6v2h-6.047c.029-.274.047-.549.047-.828zm0-3.172v-2h6v2zm0-4v-2h6v2zm-6-9.899v13.899h2v-7c0-.552.449-1 1-1s1 .448 1 1v10.172c0 1.424-.513 2.767-1.441 3.828h-6.559v-16c0-2.414 1.721-4.434 4-4.899zm-4 22.899h6v9h-6zm8 9v-9.602c.641-.712 1.137-1.524 1.475-2.398h6.525v12zm48 0h-38v-50h2v14c0 1.103.897 2 2 2h18c1.103 0 2-.897 2-2v-18c0-1.103-.897-2-2-2h-11.231l.892-2h26.339z"/><path d="m59 5h-10v6h10zm-2 4h-6v-2h6z"/><path d="m49 13h10v2h-10z"/><path d="m49 17h10v2h-10z"/><path d="m49 21h10v2h-10z"/><path d="m49 25h2v2h-2z"/><path d="m53 25h2v2h-2z"/><path d="m57 25h2v2h-2z"/><path d="m25 31h16v28h2v-28h16v-2h-34z"/><path d="m53 33h-8v10h2v8h12v-14h-6zm-6 2h4v6h-4zm10 4v10h-8v-6h4v-4z"/><path d="m25 33h4v2h-4z"/><path d="m31 33h8v2h-8z"/><path d="m25 37h14v2h-14z"/><path d="m25 41h14v2h-14z"/><path d="m25 45h12v2h-12z"/><path d="m25 49h10v2h-10z"/><path d="m25 57h2v2h-2z"/><path d="m29 57h2v2h-2z"/><path d="m33 57h2v2h-2z"/><path d="m45 57h2v2h-2z"/><path d="m49 57h2v2h-2z"/><path d="m53 57h2v2h-2z"/><path d="m1 15h6v2h-6z"/><path d="m4 8.172h2v5.657h-2z" transform="matrix(.707 -.707 .707 .707 -6.314 6.757)"/><path d="m2.172 20h5.657v2h-5.657z" transform="matrix(.707 -.707 .707 .707 -13.385 9.686)"/></g></g></svg>