<svg id="_x33_0" enable-background="new 0 0 64 64" height="512" viewBox="0 0 64 64" width="512" xmlns="http://www.w3.org/2000/svg"><g><g><g><path d="m62 45v15c0 1.1-.9 2-2 2h-7l1.94-2.49c3.34-4.29 5.74-9.23 7.06-14.51z" fill="#e6e9ed"/></g><g><path d="m2 14v46c0 1.1.9 2 2 2h49v-1.88c0-2.42-1.65-4.53-4-5.12l1.95-1.08c4.61-2.57 8.43-6.34 11.05-10.92v-29z" fill="#e6e9ed"/></g><g><path d="m62 45c-1.32 5.28-3.72 10.22-7.06 14.51l-1.94 2.49v-1.88c0-2.42-1.65-4.53-4-5.12l1.95-1.08c4.61-2.57 8.43-6.34 11.05-10.92z" fill="#ff826e"/></g><g><path d="m60 6h-56c-1.1 0-2 .9-2 2v6h26 8 26v-6c0-1.1-.9-2-2-2z" fill="#b4dd7f"/></g><g><path d="m12 6v3c0 .55-.45 1-1 1h-2c-.55 0-1-.45-1-1v-3-3c0-.55.45-1 1-1h2c.55 0 1 .45 1 1z" fill="#ccd1d9"/></g><g><path d="m20 6v3c0 .55-.45 1-1 1h-2c-.55 0-1-.45-1-1v-3-3c0-.55.45-1 1-1h2c.55 0 1 .45 1 1z" fill="#ccd1d9"/></g><g><path d="m48 6v3c0 .55-.45 1-1 1h-2c-.55 0-1-.45-1-1v-3-3c0-.55.45-1 1-1h2c.55 0 1 .45 1 1z" fill="#ccd1d9"/></g><g><path d="m56 6v3c0 .55-.45 1-1 1h-2c-.55 0-1-.45-1-1v-3-3c0-.55.45-1 1-1h2c.55 0 1 .45 1 1z" fill="#ccd1d9"/></g><g><path d="m54 32v8h-1.23c-1.83 0-3.43 1.15-4.14 2.85 0 .01-.01.03-.02.05-.71 1.7-.4 3.66.91 4.96l.86.87-5.65 5.65-.87-.86c-1.3-1.31-3.26-1.62-4.96-.91-.02.01-.04.02-.05.02-1.7.71-2.85 2.31-2.85 4.14v1.23h-8v-1.23c0-1.83-1.15-3.43-2.85-4.14-.01 0-.03-.01-.05-.02-1.7-.71-3.66-.4-4.96.91l-.87.86-5.65-5.65.86-.87c1.31-1.3 1.62-3.26.91-4.96-.01-.02-.02-.04-.02-.05-.71-1.7-2.31-2.85-4.14-2.85h-1.23v-8h1.23c1.83 0 3.43-1.15 4.14-2.85 0-.01.01-.03.02-.05.71-1.7.4-3.66-.91-4.96l-.86-.87 5.65-5.65.87.86c1.3 1.31 3.26 1.62 4.96.91.02-.01.04-.02.05-.02 1.7-.71 2.85-2.31 2.85-4.14v-1.23h8v1.23c0 1.83 1.15 3.43 2.85 4.14.01 0 .03.01.05.02 1.7.71 3.66.4 4.96-.91l.87-.86 5.65 5.65-.86.87c-1.31 1.3-1.62 3.26-.91 4.96.01.02.02.04.02.05.71 1.7 2.31 2.85 4.14 2.85z" fill="#ffc729"/></g><g><circle cx="32" cy="36" fill="#fcd770" r="14"/></g></g><g><path d="m31 25v2h-4v5c0 2.757 2.243 5 5 5 1.654 0 3 1.346 3 3v3h-3c-1.654 0-3-1.346-3-3v-3h-2v3c0 2.414 1.721 4.434 4 4.899v2.101h2v-2h4v-5c0-2.757-2.243-5-5-5-1.654 0-3-1.346-3-3v-3h3c1.654 0 3 1.346 3 3v3h2v-3c0-2.414-1.721-4.434-4-4.899v-2.101z"/><path d="m17 36c0 8.271 6.729 15 15 15s15-6.729 15-15-6.729-15-15-15-15 6.729-15 15zm28 0c0 7.168-5.832 13-13 13s-13-5.832-13-13 5.832-13 13-13 13 5.832 13 13z"/><path d="m60 5h-3v-2c0-1.103-.897-2-2-2h-2c-1.103 0-2 .897-2 2v2h-2v-2c0-1.103-.897-2-2-2h-2c-1.103 0-2 .897-2 2v2h-22v-2c0-1.103-.897-2-2-2h-2c-1.103 0-2 .897-2 2v2h-2v-2c0-1.103-.897-2-2-2h-2c-1.103 0-2 .897-2 2v2h-3c-1.654 0-3 1.346-3 3v52c0 1.654 1.346 3 3 3h56c1.654 0 3-1.346 3-3v-52c0-1.654-1.346-3-3-3zm-6.077 54.185c-.264-1.759-1.253-3.306-2.699-4.277l.214-.119c3.435-1.908 6.438-4.475 8.865-7.528-1.36 4.207-3.417 8.113-6.154 11.634zm-.923-56.185h2l.002 6h-2.002zm-8 0h2l.002 6h-2.002zm-28 0h2l.002 6h-2.002zm-8 0h2l.002 6h-2.002zm-5 4h3v2c0 1.103.897 2 2 2h2c1.103 0 2-.897 2-2v-2h2v2c0 1.103.897 2 2 2h2c1.103 0 2-.897 2-2v-2h22v2c0 1.103.897 2 2 2h2c1.103 0 2-.897 2-2v-2h2v2c0 1.103.897 2 2 2h2c1.103 0 2-.897 2-2v-2h3c.552 0 1 .448 1 1v5h-58v-5c0-.552.448-1 1-1zm34.519 13.313c2.11.879 4.485.438 6.05-1.124l.159-.159 4.242 4.243-.159.159c-1.563 1.563-2.003 3.938-1.101 6.104.868 2.105 2.856 3.464 5.063 3.464h.227v6h-.227c-2.207 0-4.195 1.359-5.086 3.519-.881 2.112-.439 4.486 1.124 6.05l.159.159-4.243 4.243-.159-.159c-1.563-1.563-3.938-2.003-6.104-1.102-2.105.868-3.464 2.856-3.464 5.063v.227h-6v-.227c0-2.207-1.359-4.195-3.519-5.086-2.113-.88-4.487-.44-6.05 1.124l-.159.159-4.243-4.243.159-.159c1.563-1.563 2.005-3.938 1.102-6.104-.868-2.105-2.856-3.464-5.063-3.464h-.227v-6h.227c2.207 0 4.195-1.359 5.086-3.519.88-2.111.439-4.486-1.123-6.05l-.159-.159 4.242-4.243.159.159c1.563 1.563 3.938 2.002 6.104 1.102 2.105-.868 3.464-2.856 3.464-5.063v-.227h6v.227c0 2.207 1.359 4.195 3.519 5.086zm-35.519 39.687v-45h24v.227c0 1.395-.874 2.656-2.288 3.24-1.359.564-2.878.297-3.866-.692l-1.573-1.573-7.073 7.07 1.575 1.573c.987.987 1.259 2.506.665 3.927-.557 1.354-1.819 2.228-3.213 2.228h-2.227v10h2.227c1.395 0 2.656.874 3.24 2.288.567 1.361.295 2.879-.692 3.866l-1.573 1.573 7.071 7.071 1.573-1.573c.988-.987 2.508-1.26 3.927-.666 1.353.558 2.227 1.82 2.227 3.214v2.227h10v-2.227c0-1.395.874-2.656 2.288-3.24 1.359-.565 2.877-.297 3.866.692l1.573 1.573 7.071-7.071-1.573-1.573c-.987-.987-1.26-2.505-.666-3.927.558-1.353 1.82-2.227 3.214-2.227h2.227v-10h-2.227c-1.395 0-2.656-.874-3.24-2.288-.567-1.36-.296-2.879.691-3.866l1.575-1.573-7.072-7.071-1.573 1.573c-.987.988-2.507 1.261-3.927.666-1.353-.558-2.227-1.82-2.227-3.214v-.227h24v27.717c-2.522 4.323-6.155 7.892-10.533 10.324l-4.166 2.314 2.457.614c1.909.478 3.242 2.186 3.242 4.154v.877h-48c-.552 0-1-.448-1-1zm57 1h-4.955l.682-.877c2.16-2.778 3.923-5.781 5.273-8.976v8.853c0 .552-.448 1-1 1z"/></g></g></svg>