<svg id="_x33_0" enable-background="new 0 0 64 64" height="512" viewBox="0 0 64 64" width="512" xmlns="http://www.w3.org/2000/svg"><g><g><g><path d="m3 4h10.53c-.95 1.06-1.53 2.46-1.53 4 0 .76.11 1.42.29 2h-8.29-1c-.55 0-1-.45-1-1v-4c0-.55.45-1 1-1z" fill="#ccd1d9"/></g><g><path d="m36 8c0 .7.12 1.37.34 2h-12.63c.18-.58.29-1.24.29-2 0-1.54-.58-2.94-1.53-4h15.06c-.95 1.06-1.53 2.46-1.53 4z" fill="#ccd1d9"/></g><g><path d="m42 55.59v4.41h-39c-.55 0-1-.45-1-1v-4c0-.55.45-1 1-1h1 36.5l.62.71c.28.32.57.61.88.88z" fill="#ccd1d9"/></g><g><path d="m44 34c-1.81 0-3.43-.8-4.53-2.07-.92-1.05-1.47-2.43-1.47-3.93v-2-3l-2-1c0-4 2.91-8.85 2.91-8.85l.01-.01c-1.19-.7-2.11-1.82-2.58-3.14h-12.63c-.75 2.45-2.71 3.57-2.71 6v1c0 1.66-1.34 3-3 3-.83 0-1.58-.34-2.12-.88s-.88-1.29-.88-2.12v-1c0-2.43-1.96-3.55-2.71-6h-8.29v44h36.5l-7.7-8.8-1.8-2.06c-.65-.73-1-1.68-1-2.66v-.44c0-1.37.68-2.58 1.73-3.31.66-.46 1.45-.73 2.31-.73 1.24 0 2.41.57 3.17 1.54l1.43 1.82 4.13 5.25c.69-1.9 1.8-3.61 3.23-4.99v-5.62z" fill="#e6e9ed"/></g><g><path d="m51.97 11.46h-.01c-.09.64-.4 1.22-.84 1.66-.54.54-1.29.88-2.12.88h-7c-1.13 0-2.18-.31-3.08-.86-1.19-.7-2.11-1.82-2.58-3.14-.22-.63-.34-1.3-.34-2 0-1.54.58-2.94 1.53-4 .08-.08.15-.16.23-.24 1.08-1.09 2.58-1.76 4.24-1.76h4.67c8.47 0 15.33 6.86 15.33 15.33 0 2.41-.57 4.76-1.62 6.86s-2.58 3.96-4.51 5.41l-1.87 1.4v-7l2.67-2c.84-.63 1.33-1.62 1.33-2.67 0-.92-.37-1.75-.98-2.35-.6-.61-1.43-.98-2.35-.98h-.67v-.84c0-1.52-.79-2.91-2.03-3.7z" fill="#b27946"/></g><g><path d="m56 54.25v7.75h-14v-2-4.41c.72.64 1.52 1.16 2.39 1.55 1.23.56 2.59.86 3.98.86 3.1 0 5.87-1.47 7.63-3.75z" fill="#fcd770"/></g><g><path d="m54 36c1.22.62 2.22 1.55 2.92 2.67.69 1.12 1.08 2.43 1.08 3.8v5.9c0 2.22-.75 4.26-2 5.88-1.76 2.28-4.53 3.75-7.63 3.75-1.39 0-2.75-.3-3.98-.86-.87-.39-1.67-.91-2.39-1.55-.31-.27-.6-.56-.88-.88l-.62-.71-7.7-8.8 5.84-5.84 4.13 5.25c.69-1.9 1.8-3.61 3.23-4.99 2.1-2.02 4.88-3.36 8-3.62z" fill="#fcd770"/></g><g><circle cx="12" cy="46" fill="#b4dd7f" r="4"/></g><g><circle cx="20" cy="36" fill="#b4dd7f" r="2"/></g><g><circle cx="36" cy="30" fill="#b4dd7f" r="2"/></g><g><path d="m21 16v1c0 1.66-1.34 3-3 3-.83 0-1.58-.34-2.12-.88s-.88-1.29-.88-2.12v-1h3z" fill="#ccd1d9"/></g><g><path d="m18 16h-3c0-2.43-1.96-3.55-2.71-6-.18-.58-.29-1.24-.29-2 0-1.54.58-2.94 1.53-4 1.1-1.23 2.7-2 4.47-2s3.37.77 4.47 2c.95 1.06 1.53 2.46 1.53 4 0 .76-.11 1.42-.29 2-.75 2.45-2.71 3.57-2.71 6z" fill="#ffeaa7"/></g><g><circle cx="18" cy="8" fill="#fcd770" r="2"/></g><g><path d="m37.21 37.54 1.43 1.82-5.84 5.84-1.8-2.06c-.65-.73-1-1.68-1-2.66v-.44c0-1.37.68-2.58 1.73-3.31.66-.46 1.45-.73 2.31-.73 1.24 0 2.41.57 3.17 1.54z" fill="#f0d0b4"/></g><g><path d="m51.97 11.46c1.24.79 2.03 2.18 2.03 3.7v.84h.67c.92 0 1.75.37 2.35.98.61.6.98 1.43.98 2.35 0 1.05-.49 2.04-1.33 2.67l-2.67 2v7 5c-3.12.26-5.9 1.6-8 3.62v-5.62h-2c-1.81 0-3.43-.8-4.53-2.07l1.58-.22c2.84-.41 4.95-2.84 4.95-5.71h-8v-3l-2-1c0-4 2.91-8.85 2.91-8.85l.01-.01c.9.55 1.95.86 3.08.86h7c.83 0 1.58-.34 2.12-.88.44-.44.75-1.02.84-1.66z" fill="#f0d0b4"/></g><g><path d="m38 26h8c0 2.87-2.11 5.3-4.95 5.71l-1.58.22c-.92-1.05-1.47-2.43-1.47-3.93z" fill="#ff826e"/></g></g><g><path d="m42 19c-.552 0-1-.448-1-1h-2c0 1.654 1.346 3 3 3s3-1.346 3-3h-2c0 .552-.448 1-1 1z"/><path d="m55 35.431v-3.931l1.466-1.101c4.092-3.067 6.534-7.952 6.534-13.066 0-9.006-7.327-16.333-16.333-16.333h-4.667c-1.902 0-3.626.765-4.889 2h-14.222c-1.263-1.235-2.987-2-4.889-2s-3.626.765-4.889 2h-10.111c-1.103 0-2 .897-2 2v4c0 1.103.897 2 2 2v42c-1.103 0-2 .897-2 2v4c0 1.103.897 2 2 2h38v2h16v-8.447c1.253-1.744 2-3.876 2-6.183v-5.897c0-2.924-1.525-5.557-4-7.042zm-8-.431h2v-2h-5c-.737 0-1.432-.17-2.063-.458 2.933-.767 5.063-3.453 5.063-6.542v-1h-8v-2.618l-1.977-.988c.196-2.617 1.578-5.545 2.304-6.927.825.342 1.727.533 2.673.533h7c1.396 0 2.623-.721 3.339-1.807.411.567.661 1.242.661 1.969v1.838h1.667c1.286 0 2.333 1.047 2.333 2.333 0 .73-.349 1.429-.933 1.867l-3.067 2.3v11.611c-2.191.329-4.236 1.172-6 2.41zm-7.09-4.141c-.57-.811-.91-1.794-.91-2.859v-1h5.893c-.415 1.909-1.989 3.433-3.984 3.717zm2.09-27.859h4.667c7.903 0 14.333 6.43 14.333 14.333 0 4.487-2.144 8.774-5.734 11.467l-.266.199v-4.499l2.268-1.7c1.085-.815 1.732-2.111 1.732-3.467 0-2.277-1.767-4.15-4.002-4.32-.043-1.591-.776-3.053-2.001-4.039-.014-2.194-1.8-3.974-3.997-3.974h-2v2h2c1.103 0 2 .897 2 2s-.897 2-2 2h-7c-2.757 0-5-2.243-5-5s2.243-5 5-5zm-6.92 6h-10.145c.039-.317.065-.646.065-1 0-1.074-.251-2.089-.685-3h11.37c-.434.911-.685 1.926-.685 3 0 .34.033.672.08 1zm-17.08-6c2.757 0 5 2.243 5 5 0 1.839-.725 2.917-1.491 4.058-.586.871-1.18 1.77-1.408 2.942h-1.101v-4.184c1.161-.414 2-1.514 2-2.816 0-1.654-1.346-3-3-3s-3 1.346-3 3c0 1.302.839 2.402 2 2.816v4.184h-1.101c-.227-1.173-.822-2.072-1.408-2.942-.766-1.141-1.491-2.219-1.491-4.058 0-2.757 2.243-5 5-5zm2 14c0 1.103-.897 2-2 2s-2-.897-2-2zm-3-9c0-.552.448-1 1-1s1 .448 1 1-.448 1-1 1-1-.448-1-1zm-14-3h8.685c-.434.911-.685 1.926-.685 3 0 .354.026.683.065 1h-8.065zm2 6h6.591c.359.857.824 1.555 1.24 2.174.653.972 1.169 1.738 1.169 2.826v1c0 2.206 1.794 4 4 4s4-1.794 4-4v-1c0-1.088.516-1.854 1.169-2.826.415-.619.881-1.317 1.24-2.174h11.276c.453.95 1.11 1.785 1.92 2.441-.851 1.597-2.605 5.284-2.605 8.559v.618l2 1v3.566c-.314-.112-.648-.184-1-.184-1.654 0-3 1.346-3 3s1.346 3 3 3c.896 0 1.693-.403 2.243-1.028 1.264 1.827 3.372 3.028 5.757 3.028h1v4.221c-.987 1.011-1.831 2.171-2.482 3.456l-4.519-5.752c-.961-1.223-2.405-1.925-3.962-1.925-.765 0-1.482.184-2.132.491l-4.491-4.491h.586c1.654 0 3-1.346 3-3v-11.586l1.293 1.293 1.414-1.414-3.707-3.707-3.707 3.707 1.414 1.414 1.293-1.293v11.586c0 .552-.448 1-1 1h-2.586l-6.707-6.707-1.414 1.414 5.293 5.293h-8.586c-1.654 0-3 1.346-3 3v9.101c-2.279.465-4 2.485-4 4.899 0 2.757 2.243 5 5 5s5-2.243 5-5c0-2.414-1.721-4.434-4-4.899v-9.101c0-.552.448-1 1-1h10.586l5.704 5.704c-.793.89-1.29 2.05-1.29 3.333v.446c0 1.221.442 2.398 1.246 3.316l8.05 9.2h-33.296zm32 19c0 .552-.448 1-1 1s-1-.448-1-1 .448-1 1-1 1 .448 1 1zm-5.248 12.483c-.485-.554-.752-1.265-.752-2v-.446c0-1.675 1.362-3.037 3.037-3.037.939 0 1.81.423 2.39 1.161l.879 1.119-4.457 4.457zm-19.752.517c1.654 0 3 1.346 3 3s-1.346 3-3 3-3-1.346-3-3 1.346-3 3-3zm-9 16v-4h37.046l.323.369c.2.228.414.439.631.647v2.984zm40 2v-3.458c1.612.944 3.462 1.458 5.37 1.458 2.507 0 4.81-.877 6.63-2.335v4.335zm14-12.63c0 4.759-3.871 8.63-8.63 8.63-2.488 0-4.856-1.074-6.495-2.947l-7.706-8.807 4.382-4.382 7.057 8.983c.576.732 1.441 1.153 2.373 1.153 1.665 0 3.019-1.354 3.019-3.019v-5.981h-2v5.981c0 .562-.457 1.019-1.019 1.019-.315 0-.607-.142-.802-.39l-3.273-4.167c1.681-4.081 5.489-6.947 9.892-7.42 1.982 1.102 3.202 3.165 3.202 5.45z"/><path d="m8.707 27.707 2.293-2.293 2.293 2.293 1.414-1.414-2.293-2.293 2.293-2.293-1.414-1.414-2.293 2.293-2.293-2.293-1.414 1.414 2.293 2.293-2.293 2.293z"/><path d="m19 49h2v2h-2z"/><path d="m23 49h2v2h-2z"/><path d="m27 49h2v2h-2z"/><path d="m20 33c-1.654 0-3 1.346-3 3s1.346 3 3 3 3-1.346 3-3-1.346-3-3-3zm0 4c-.552 0-1-.448-1-1s.448-1 1-1 1 .448 1 1-.448 1-1 1z"/></g></g></svg>