<svg id="_x33_0" enable-background="new 0 0 64 64" height="512" viewBox="0 0 64 64" width="512" xmlns="http://www.w3.org/2000/svg"><g><g><g><path d="m56 2h4v18h-4z" fill="#ffeaa7"/></g><g><path d="m48 6h4v14h-4z" fill="#ffeaa7"/></g><g><path d="m40 11h4v9h-4z" fill="#ffeaa7"/></g><g><path d="m33.75 10.85-.54 2.13c-.54-.6-1.33-.98-2.21-.98h-1c-3.27 0-6.48-.89-9.29-2.57l-.71-.43-.42.42c-1.05 1.05-2.26 1.92-3.58 2.58h-1c-.83 0-1.58.34-2.12.88-.05.05-.11.11-.16.17l-.55-2.2c-.14-.56-.21-1.14-.21-1.73 0-1.96.8-3.74 2.09-5.03s3.07-2.09 5.03-2.09h7.76c3.93 0 7.12 3.19 7.12 7.12 0 .59-.07 1.17-.21 1.73z" fill="#656d78"/></g><g><path d="m49 33-.05.07c-1.79.23-3.39 1.06-4.61 2.27-1.44 1.45-2.34 3.45-2.34 5.66v.5c0-2-1.08-3.78-2.73-4.74.02-.04.05-.08.07-.12.25-.48.44-.99.55-1.53l5.61-5.61z" fill="#4fc1e9"/></g><g><path d="m16.98 25.29.91 5.95v.01c-.63-.17-1.29-.25-1.98-.25h-3.82c-2.37 0-4.5 1.02-5.98 2.64.39-2.62 1.87-4.96 4.1-6.45 1.18-.78 2.52-1.29 3.91-1.49z" fill="#4fc1e9"/></g><g><path d="m35.79 27.19c1.35.91 2.43 2.13 3.16 3.54-.4-.55-.9-1.03-1.47-1.41l-.48-.32c-1.28 1.28-3.02 2-4.83 2h-3.8c-.07 0-.15 0-.22.01v-.01l.87-5.71 2.85.41c1.4.2 2.74.71 3.92 1.49z" fill="#4fc1e9"/></g><g><path d="m23 29 3.75 2.25c-.83.26-1.57.72-2.17 1.33-.75.75-1.28 1.71-1.48 2.79h-.01c-.91-1.76-2.44-3.14-4.3-3.84z" fill="#4fc1e9"/></g><g><path d="m29.02 25.29-.87 5.71v.01c-.49.01-.96.1-1.4.24l-3.75-2.25 4-4z" fill="#3bafda"/></g><g><path d="m23 29-4.21 2.53c-.29-.12-.59-.21-.9-.28v-.01l-.91-5.95 2.02-.29z" fill="#3bafda"/></g><g><path d="m53.89 54.92c.06-.23.09-.48.1-.73h.01c3.36.66 6.2 3.01 7.43 6.3l.57 1.51h-18l-.57-1.51c-.54-1.43-1.38-2.68-2.43-3.7 1.37-1.32 3.11-2.23 5-2.6h.01c.01.25.04.5.1.73.42 1.77 2 3.08 3.89 3.08 1.1 0 2.1-.45 2.83-1.17.51-.52.89-1.18 1.06-1.91z" fill="#e6e9ed"/></g><g><path d="m50 52 3.89 2.92c-.17.73-.55 1.39-1.06 1.91-.73.72-1.73 1.17-2.83 1.17-1.89 0-3.47-1.31-3.89-3.08z" fill="#f0d0b4"/></g><g><path d="m54 49v5c0 .06 0 .13-.01.19-.01.25-.04.5-.1.73l-3.89-2.92z" fill="#f0d0b4"/></g><g><path d="m50 52-3.89 2.92c-.06-.23-.09-.48-.1-.73-.01-.06-.01-.13-.01-.19v-5z" fill="#f0d0b4"/></g><g><path d="m23 56.79c-1.05 1.02-1.89 2.27-2.43 3.7l-.57 1.51h-18l.57-1.51c1.23-3.29 4.07-5.64 7.43-6.29.63-.14 1.27-.2 1.93-.2h4.14c.66 0 1.3.06 1.93.19 1.9.37 3.63 1.29 5 2.6z" fill="#b4dd7f"/></g><g><path d="m43.43 60.49.57 1.51h-24l.57-1.51c.54-1.43 1.38-2.68 2.43-3.7 1.37-1.32 3.1-2.23 5-2.59.63-.14 1.27-.2 1.93-.2h4.14c.66 0 1.3.06 1.93.2 1.9.36 3.63 1.27 5 2.59 1.05 1.02 1.89 2.27 2.43 3.7z" fill="#ff826e"/></g><g><path d="m36 49.45v4.74.01c-.63-.14-1.27-.2-1.93-.2h-4.14c-.66 0-1.3.06-1.93.2v-.01-4.74-.01c.6.36 1.3.56 2.05.56h3.9c.75 0 1.45-.2 2.05-.56z" fill="#f0d0b4"/></g><g><path d="m18 50v4.19c-.63-.13-1.27-.19-1.93-.19h-4.14c-.66 0-1.3.06-1.93.2v-.01-4.19h1 3 3z" fill="#f0d0b4"/></g><g><path d="m23 36.37c0 .56.09 1.11.25 1.64-.78.95-1.25 2.18-1.25 3.49 0 .86.19 1.67.55 2.4l-.34.68c-.14.28-.21.58-.21.89v.41c0 1.83-1.25 3.43-3.03 3.88l-.97.24h-1-3-3-1l-.97-.24c-1.78-.45-3.03-2.05-3.03-3.88v-.41c0-.31-.07-.61-.21-.89l-.94-1.87c-.56-1.13-.85-2.36-.85-3.62 0-2.1.79-4.01 2.11-5.45 1.48-1.62 3.61-2.64 5.98-2.64h3.82c.69 0 1.35.08 1.98.25.31.07.61.16.9.28 1.86.7 3.39 2.08 4.3 3.84h.01c-.07.32-.1.66-.1 1z" fill="#b27946"/></g><g><path d="m58 41v2.91c0 1.89-1.07 3.63-2.76 4.47l-1.24.62-4 3-4-3-1.24-.62c-1.69-.84-2.76-2.58-2.76-4.47v-2.41-.5c0-2.21.9-4.21 2.34-5.66 1.22-1.21 2.82-2.04 4.61-2.27l1.05-.07c4.42 0 8 3.58 8 8z" fill="#b27946"/></g><g><path d="m39.27 36.76c1.65.96 2.73 2.74 2.73 4.74 0 1.26-.42 2.42-1.14 3.36-.73.94-1.75 1.64-2.95 1.95-.24 1.12-.95 2.07-1.91 2.63-.6.36-1.3.56-2.05.56h-3.9c-.75 0-1.45-.2-2.05-.56-.3-.17-.58-.38-.82-.62-.54-.55-.92-1.24-1.09-2.01-1.2-.31-2.22-1.01-2.95-1.95-.23-.3-.43-.62-.59-.96-.36-.73-.55-1.54-.55-2.4 0-1.31.47-2.54 1.25-3.49-.16-.53-.25-1.08-.25-1.64 0-.34.03-.68.1-1 .2-1.08.73-2.04 1.48-2.79.6-.61 1.34-1.07 2.17-1.33.44-.14.91-.23 1.4-.24.07-.01.15-.01.22-.01h3.8c1.81 0 3.55-.72 4.83-2l.48.32c.57.38 1.07.86 1.47 1.41.67.94 1.05 2.08 1.05 3.27 0 .38-.04.75-.11 1.11-.11.54-.3 1.05-.55 1.53-.02.04-.05.08-.07.12z" fill="#656d78"/></g><g><path d="m47 28 .29-.29c.46-.46 1.07-.71 1.71-.71s1.25.25 1.71.71l.29.29h5.96c.55 0 1 .45 1 1 0 .86-.31 1.67-.84 2.29-.52.62-1.26 1.06-2.12 1.2l-6 .51-3.5-3.5z" fill="#f0d0b4"/></g><g><path d="m31 12c.88 0 1.67.38 2.21.98.49.53.79 1.24.79 2.02 0 .83-.34 1.58-.88 2.12s-1.29.88-2.12.88h-1v-6z" fill="#f0d0b4"/></g><g><path d="m27 25-4 4-4-4 .77-1.43c.69.28 1.44.43 2.23.43h2c.79 0 1.54-.15 2.23-.43z" fill="#f0d0b4"/></g><g><path d="m30 12v6c0 2.52-1.56 4.69-3.77 5.57-.69.28-1.44.43-2.23.43h-2c-.79 0-1.54-.15-2.23-.43-2.21-.88-3.77-3.05-3.77-5.57v-6c1.32-.66 2.53-1.53 3.58-2.58l.42-.42.71.43c2.81 1.68 6.02 2.57 9.29 2.57z" fill="#f0d0b4"/></g><g><path d="m15 12h1v6h-1c-1.66 0-3-1.34-3-3 0-.75.27-1.43.72-1.95.05-.06.11-.12.16-.17.54-.54 1.29-.88 2.12-.88z" fill="#f0d0b4"/></g></g><g><path d="m62.37 60.137c-1.232-3.283-4.017-5.781-7.37-6.716v-3.802l.684-.342c2.045-1.023 3.316-3.08 3.316-5.367v-2.91c0-3.131-1.609-5.89-4.041-7.503l.205-.017c2.199-.366 3.795-2.25 3.795-4.479 0-1.103-.897-2-2-2h-5.545c-1.289-1.289-3.539-1.289-4.828 0h-5.586v2h3.586l-3.722 3.722c-.182-.929-.55-1.804-1.095-2.566-.811-1.525-1.99-2.838-3.429-3.798-1.291-.86-2.786-1.432-4.323-1.652l-4.378-.625-.042-.078c1.766-1.062 3.028-2.88 3.332-5.003h.071c2.206 0 4-1.794 4-4 0-.835-.259-1.61-.698-2.252l.414-1.654c.161-.643.243-1.306.243-1.971 0-4.48-3.644-8.124-8.123-8.124h-7.754c-4.479 0-8.123 3.644-8.123 8.123 0 .665.082 1.328.243 1.97l.438 1.752c-.401.623-.64 1.36-.64 2.155 0 2.206 1.794 4 4 4h.08c.306 2.122 1.563 3.935 3.327 4.996l-.046.085-4.378.625c-1.537.221-3.032.791-4.324 1.652-2.362 1.574-3.975 4.058-4.48 6.843-1.355 1.588-2.179 3.643-2.179 5.889 0 1.405.332 2.812.96 4.065l.935 1.87c.069.138.105.292.105.447v.405c0 2.299 1.558 4.293 3.788 4.851l.212.052v2.63c-3.329.93-6.122 3.4-7.37 6.728l-1.072 2.862h62.885zm-21.358-4.655c-1.174-.955-2.541-1.661-4.012-2.072v-3.459c.784-.599 1.38-1.417 1.707-2.369 1.025-.37 1.913-.978 2.615-1.759.494 1.479 1.544 2.729 2.995 3.454l.683.341v3.807c-1.46.404-2.811 1.101-3.988 2.057zm-22.012-4.702.212-.053c2.14-.534 3.645-2.396 3.765-4.576.648.629 1.436 1.113 2.316 1.43.327.952.923 1.77 1.707 2.369v3.459c-1.464.409-2.826 1.11-3.996 2.058-1.187-.967-2.548-1.665-4.004-2.066zm1.839-19.317 2.161-1.297 1.691 1.015c-.758.539-1.392 1.238-1.855 2.049-.581-.689-1.25-1.285-1.997-1.767zm16.25-1.201c1.2.865 1.911 2.248 1.911 3.736 0 1.545-.767 2.979-2.052 3.835l-.503.335 1.109 1.664.503-.335c.557-.371 1.036-.825 1.447-1.328.935.842 1.496 2.049 1.496 3.331 0 1.553-.802 2.955-2.053 3.766-.075-.543-.234-1.075-.479-1.567l-.573-1.146-1.789.895.572 1.145c.211.421.322.892.322 1.362 0 1.679-1.366 3.045-3.045 3.045h-3.91c-1.679 0-3.045-1.366-3.045-3.045 0-.47.111-.941.321-1.362l.573-1.146-1.789-.895-.574 1.146c-.245.491-.403 1.024-.478 1.566-1.251-.809-2.053-2.211-2.053-3.764 0-2.132 1.518-3.983 3.609-4.402l.586-.117-.391-1.961-.588.117c-.794.159-1.526.468-2.181.882.185-2.243 2.048-4.019 4.338-4.019h3.799c1.783 0 3.533-.626 4.917-1.738zm8.411.652 1.581 1.581c-2.447.842-4.421 2.706-5.402 5.086-.326-.432-.71-.821-1.138-1.162.103-.262.191-.53.26-.805zm-11.43 22.086h-4.14c-.312 0-.622.016-.93.043v-2.154c.338.071.686.111 1.045.111h3.91c.359 0 .707-.04 1.045-.112v2.154c-.308-.026-.617-.042-.93-.042zm-6.794-22.899c-.125.022-.248.047-.371.076l-2.293-1.376 2.741-2.741.524.075zm-1.536-5.326.025.046-2.765 2.765-2.765-2.765.026-.048c.557.143 1.138.227 1.739.227h2c.601 0 1.183-.082 1.74-.225zm-4.353 4.026-2.622 1.573-.642-4.239.524-.075zm8.543 26.199h4.141c3.73 0 7.117 2.347 8.427 5.839l.059.161h-21.114l.06-.16c1.31-3.493 4.696-5.84 8.427-5.84zm18.403-3-1.333 1v-2zm1.667 1.25 2.704 2.027c-.482 1.015-1.508 1.723-2.704 1.723s-2.222-.708-2.704-1.723zm1.667-1.25 1.333-1v2zm5.333-11v2.91c0 1.524-.847 2.896-2.211 3.577l-1.236.618-3.553 2.645-3.4-2.55-1.389-.713c-1.364-.681-2.211-2.052-2.211-3.577v-2.91c0-3.859 3.141-7 7-7s7 3.141 7 7zm-7-12.586.586.586h6.373c0 1.248-.893 2.302-2.043 2.497l-5.537.468-2.465-2.465 1.086-1.086c.535-.533 1.465-.533 2 0zm-14.77-.392c.258.172.501.365.738.564-1.05.901-2.408 1.414-3.796 1.414h-2.858l.543-3.582 1.877.268c1.243.178 2.453.64 3.496 1.336zm-4.23-11.022v-4c1.103 0 2 .897 2 2s-.897 2-2 2zm-11.918-14h7.754c3.376 0 6.123 2.747 6.123 6.123 0 .501-.062 1.001-.183 1.485l-.182.727c-.489-.213-1.027-.335-1.594-.335h-1c-3.09 0-6.123-.84-8.772-2.43l-1.383-.829-.971.971c-.921.921-1.976 1.686-3.13 2.288h-.744c-.596 0-1.158.14-1.667.375l-.192-.768c-.121-.483-.183-.983-.183-1.484.001-3.376 2.748-6.123 6.124-6.123zm-6.082 12c0-1.103.897-2 2-2v4c-1.103 0-2-.897-2-2zm4 3v-5.396c1.151-.638 2.21-1.425 3.154-2.345l.044.026c2.674 1.604 5.698 2.525 8.802 2.688v5.027c0 2.757-2.243 5-5 5h-2c-2.757 0-5-2.243-5-5zm-6.231 10.022c1.045-.696 2.255-1.158 3.498-1.336l1.877-.268.551 3.636c-.261-.022-.52-.054-.785-.054h-3.82c-1.438 0-2.793.345-4.003.942.648-1.16 1.557-2.17 2.682-2.92zm-3.769 17.855v-.405c0-.463-.109-.927-.316-1.341l-.935-1.871c-.49-.978-.749-2.073-.749-3.17 0-3.909 3.181-7.09 7.09-7.09h3.82c2.56 0 4.88 1.369 6.145 3.579-.033.261-.055.525-.055.794 0 .487.074.966.184 1.439-.738 1.059-1.184 2.327-1.184 3.688 0 .825.17 1.614.457 2.35l-.141.281c-.207.414-.316.878-.316 1.341v.405c0 1.379-.935 2.576-2.272 2.911l-.209.052c.306-.997.481-2.035.481-3.076v-.764h-2v.764c0 1.107-.234 2.211-.658 3.236h-1.342v-4h-2v4h-1.342c-.424-1.025-.658-2.129-.658-3.236v-.764h-2v.764c0 1.041.175 2.079.481 3.077l-.209-.052c-1.337-.336-2.272-1.533-2.272-2.912zm4 5.123h6v2.044c-.308-.025-.617-.044-.93-.044h-4.14c-.312 0-.622.016-.93.043zm-7.497 9.84c1.31-3.493 4.696-5.84 8.427-5.84h4.141c2.009 0 3.926.663 5.496 1.877-.816.953-1.481 2.048-1.936 3.26l-.324.863h-15.865zm41.19.16-.323-.863c-.453-1.208-1.116-2.299-1.927-3.249.84-.649 1.781-1.141 2.791-1.458.619 2.057 2.509 3.57 4.766 3.57 2.259 0 4.151-1.516 4.768-3.576 2.609.827 4.758 2.827 5.729 5.415l.061.161z"/><path d="m23 21c1.615 0 3.067-.897 3.789-2.342l.105-.211-1.789-.895-.105.212c-.381.762-1.147 1.236-2 1.236s-1.619-.474-2-1.236l-.105-.211-1.789.895.105.211c.722 1.444 2.174 2.341 3.789 2.341z"/><path d="m63 19h-2v-18h-6v18h-2v-14h-6v14h-2v-9h-6v9h-2v2h26zm-6-16h2v16h-2zm-8 4h2v12h-2zm-8 5h2v7h-2z"/><path d="m39 23h8v2h-8z"/><path d="m49 23h14v2h-14z"/></g></g></svg>