<?xml version="1.0" encoding="iso-8859-1"?>
<!-- Generator: Adobe Illustrator 19.0.0, SVG Export Plug-In . SVG Version: 6.00 Build 0)  -->
<svg version="1.1" id="Capa_1" xmlns="http://www.w3.org/2000/svg" xmlns:xlink="http://www.w3.org/1999/xlink" x="0px" y="0px"
	 viewBox="0 0 512 512" style="enable-background:new 0 0 512 512;" xml:space="preserve">
<path style="fill:#AC6A51;" d="M489.5,504.5h-467c-8.284,0-15-6.716-15-15l0,0c0-8.284,6.716-15,15-15h467c8.284,0,15,6.716,15,15
	l0,0C504.5,497.784,497.784,504.5,489.5,504.5z"/>
<path style="fill:#945B44;" d="M489.5,474.5h-30.125c8.284,0,15,6.716,15,15s-6.716,15-15,15H489.5c8.284,0,15-6.716,15-15
	S497.784,474.5,489.5,474.5z"/>
<rect x="330.5" y="334.5" style="fill:#6E6B87;" width="60" height="140"/>
<rect x="360.5" y="334.5" style="fill:#625F78;" width="30" height="140"/>
<rect x="413.5" y="334.5" style="fill:#6E6B87;" width="60" height="140"/>
<rect x="443.5" y="334.5" style="fill:#625F78;" width="30" height="140"/>
<rect x="34" y="394.5" style="fill:#F1F2E6;" width="144" height="80"/>
<rect x="148" y="394.5" style="fill:#DDDED2;" width="30" height="80"/>
<path style="fill:#FAD87C;" d="M144,450.5H68c-8.284,0-15-6.716-15-15l0,0c0-8.284,6.716-15,15-15h76c8.284,0,15,6.716,15,15l0,0
	C159,443.784,152.284,450.5,144,450.5z"/>
<g>
	<path style="fill:#EC5569;" d="M23.106,394.5h165.788c2.034,0,2.882-2.414,1.239-3.526l-82.894-56.099c-0.738-0.5-1.74-0.5-2.478,0
		l-82.894,56.099C20.224,392.086,21.072,394.5,23.106,394.5z"/>
	<rect x="91" y="420.5" style="fill:#EC5569;" width="30" height="54"/>
</g>
<g>
	<path style="fill:#6AD2EB;" d="M121,394.5H91v-17c0-8.284,6.716-15,15-15l0,0c8.284,0,15,6.716,15,15V394.5z"/>
	<circle style="fill:#6AD2EB;" cx="256" cy="116.5" r="109"/>
</g>
<path d="M139.5,116.5c0,27.79,9.786,53.334,26.087,73.38c0.22,0.318,0.463,0.614,0.725,0.889C187.698,216.551,219.963,233,256,233
	c36.066,0,68.355-16.475,89.742-42.294c0.188-0.202,0.36-0.421,0.527-0.647c16.388-20.072,26.231-45.687,26.231-73.56
	c0-6.536-0.546-13.091-1.623-19.483c-0.688-4.083-4.546-6.833-8.642-6.15c-4.084,0.688-6.838,4.557-6.149,8.642
	c0.527,3.126,0.891,6.301,1.124,9.491h-22.935c-0.72-17.067-3.892-33.437-9.257-48.171c4.61-1.323,8.911-2.761,12.868-4.307
	c3.618,4.934,6.807,10.198,9.5,15.749c1.808,3.727,6.293,5.284,10.021,3.476s5.283-6.294,3.476-10.021
	c-9.408-19.402-24.003-35.809-42.205-47.446C299.972,6.321,278.298,0,256,0c-36.037,0-68.303,16.45-89.69,42.232
	c-0.261,0.274-0.503,0.569-0.723,0.887C149.287,63.165,139.5,88.709,139.5,116.5z M319.261,124
	c-0.731,15.928-3.777,31.107-8.899,44.597c-8.523-1.743-17.614-3.078-27.144-3.978c1.229-12.64,1.962-26.376,2.153-40.619H319.261z
	 M337.842,176.46c-3.944-1.539-8.231-2.971-12.825-4.289c5.366-14.733,8.537-31.103,9.258-48.171h22.948
	C355.789,143.531,348.802,161.541,337.842,176.46z M154.778,124h22.947c0.72,17.067,3.892,33.437,9.258,48.171
	c-4.593,1.318-8.88,2.75-12.825,4.29C163.198,161.541,156.211,143.531,154.778,124z M281.464,179.518
	c7.85,0.73,15.375,1.772,22.488,3.106c-1.285,2.362-2.634,4.658-4.067,6.859c-7.487,11.501-16.387,19.77-25.999,24.351
	c1.84-5.168,3.489-11.413,4.972-18.781C279.831,190.22,280.698,185.011,281.464,179.518z M265.076,187.205
	c-3.216,18.147-6.956,26.578-9.076,29.695c-2.12-3.117-5.86-11.547-9.076-29.695c-0.489-2.757-0.942-5.639-1.368-8.608
	c6.948-0.246,13.949-0.246,20.888,0C266.019,181.566,265.565,184.447,265.076,187.205z M238.114,213.835
	c-9.612-4.581-18.513-12.851-25.999-24.352c-1.433-2.201-2.782-4.497-4.067-6.859c7.122-1.335,14.649-2.378,22.488-3.106
	c0.767,5.492,1.634,10.702,2.606,15.536C234.624,202.422,236.274,208.666,238.114,213.835z M256,16.101
	c2.12,3.117,5.86,11.547,9.076,29.695c0.489,2.757,0.942,5.639,1.368,8.608c-6.948,0.247-13.949,0.246-20.888,0
	c0.425-2.97,0.879-5.851,1.368-8.609C250.14,27.648,253.88,19.217,256,16.101z M233.142,37.946
	c-0.973,4.834-1.84,10.043-2.606,15.535c-7.85-0.73-15.375-1.772-22.488-3.105c1.285-2.362,2.634-4.658,4.067-6.859
	c7.486-11.501,16.387-19.77,25.999-24.352C236.274,24.334,234.624,30.578,233.142,37.946z M201.638,64.403
	c8.524,1.744,17.614,3.078,27.144,3.978c-1.229,12.64-1.962,26.376-2.153,40.619h-33.89
	C193.47,93.072,196.515,77.893,201.638,64.403z M226.629,124c0.191,14.243,0.924,27.979,2.153,40.619
	c-9.515,0.897-18.608,2.232-27.144,3.978c-5.123-13.49-8.168-28.669-8.899-44.597H226.629z M192.946,186.075
	c2.02,4.041,4.21,7.924,6.598,11.592c1.284,1.972,2.609,3.862,3.969,5.68c-6.864-4.164-13.194-9.12-18.87-14.738
	C187.263,187.72,190.032,186.874,192.946,186.075z M312.457,197.666c2.387-3.668,4.578-7.55,6.597-11.591
	c2.915,0.8,5.683,1.646,8.304,2.534c-5.676,5.617-12.006,10.574-18.87,14.737C309.848,201.528,311.173,199.638,312.457,197.666z
	 M268.236,163.646c-8.126-0.322-16.334-0.322-24.472,0c-1.213-12.324-1.94-25.776-2.134-39.646h28.74
	C270.176,137.87,269.449,151.322,268.236,163.646z M241.63,109c0.194-13.869,0.921-27.32,2.134-39.643
	c4.068,0.162,8.153,0.252,12.236,0.252c4.082,0,8.167-0.09,12.236-0.252c1.213,12.323,1.939,25.775,2.134,39.643H241.63z
	 M278.858,37.946c-1.482-7.368-3.132-13.612-4.972-18.781c9.612,4.581,18.512,12.85,25.999,24.351
	c1.433,2.201,2.782,4.497,4.067,6.859c-7.122,1.335-14.649,2.378-22.488,3.106C280.698,47.989,279.831,42.78,278.858,37.946z
	 M199.543,35.333c-2.388,3.668-4.578,7.551-6.598,11.592c-2.915-0.8-5.683-1.646-8.303-2.534
	c5.676-5.617,12.006-10.574,18.87-14.738C202.153,31.471,200.827,33.361,199.543,35.333z M186.983,60.829
	c-5.366,14.734-8.537,31.104-9.258,48.171h-22.947c1.433-19.531,8.42-37.541,19.38-52.461
	C178.102,58.079,182.389,59.51,186.983,60.829z M285.371,109c-0.191-14.243-0.924-27.979-2.153-40.619
	c9.516-0.897,18.608-2.232,27.144-3.978c5.122,13.49,8.168,28.669,8.899,44.597H285.371z M327.412,44.373
	c-2.638,0.895-5.424,1.747-8.358,2.552c-2.02-4.041-4.21-7.924-6.597-11.591c-1.297-1.993-2.637-3.902-4.011-5.737
	c0.719,0.435,1.44,0.867,2.15,1.321C316.694,34.817,322.322,39.335,327.412,44.373z"/>
<path d="M489.5,467H481v-83c0-4.142-3.357-7.5-7.5-7.5s-7.5,3.358-7.5,7.5v83h-45V342h45v10c0,4.142,3.357,7.5,7.5,7.5
	s7.5-3.358,7.5-7.5v-17.5c0-4.142-3.357-7.5-7.5-7.5h-60c-4.143,0-7.5,3.358-7.5,7.5V467h-8V334.5c0-4.142-3.357-7.5-7.5-7.5h-60
	c-4.143,0-7.5,3.358-7.5,7.5V467H185.5v-19.5c0-4.142-3.358-7.5-7.5-7.5s-7.5,3.358-7.5,7.5V467h-42v-9H144
	c12.407,0,22.5-10.093,22.5-22.5S156.407,413,144,413l0,0H68l0,0c-12.407,0-22.5,10.093-22.5,22.5S55.593,458,68,458h15.5v9h-42v-65
	l0,0h129l0,0v13.833c0,4.142,3.358,7.5,7.5,7.5s7.5-3.358,7.5-7.5V402h3.394c4.267,0,7.961-2.701,9.194-6.722
	c1.211-3.952-0.296-8.178-3.751-10.516l-82.895-56.1c-3.254-2.202-7.627-2.202-10.884,0l-82.894,56.099
	c-3.455,2.338-4.962,6.564-3.751,10.516c1.232,4.021,4.927,6.722,9.194,6.722H26.5v65h-4C10.093,467,0,477.093,0,489.5
	S10.093,512,22.5,512h467c12.406,0,22.5-10.093,22.5-22.5S501.906,467,489.5,467z M98.5,387v-9.5c0-4.136,3.364-7.5,7.5-7.5
	s7.5,3.364,7.5,7.5v9.5H98.5z M106,343.092L170.879,387H128.5v-9.5c0-12.407-10.093-22.5-22.5-22.5s-22.5,10.093-22.5,22.5v9.5
	H41.12L106,343.092z M338,342h45v125h-45V342z M151.5,435.5c0,4.136-3.364,7.5-7.5,7.5h-15.5v-15H144
	C148.136,428,151.5,431.364,151.5,435.5z M113.5,428v15h-15v-15H113.5z M68,443c-4.136,0-7.5-3.364-7.5-7.5s3.364-7.5,7.5-7.5h15.5
	v15H68z M98.5,458h15v9h-15V458z M489.5,482c4.136,0,7.5,3.364,7.5,7.5s-3.364,7.5-7.5,7.5h-467c-4.136,0-7.5-3.364-7.5-7.5
	s3.364-7.5,7.5-7.5H489.5"/>
<path d="M370.567,374.678l-20-0.179c-0.023,0-0.046,0-0.068,0c-4.111,0-7.462,3.314-7.499,7.433
	c-0.037,4.142,3.291,7.53,7.433,7.566l20,0.179c0.023,0,0.046,0,0.068,0c4.111,0,7.462-3.314,7.499-7.433
	C378.037,378.102,374.709,374.714,370.567,374.678z"/>
<path d="M370.567,397.81l-20-0.179c-0.023,0-0.046,0-0.068,0c-4.111,0-7.462,3.314-7.499,7.433c-0.037,4.142,3.291,7.53,7.433,7.566
	l20,0.179c0.023,0,0.046,0,0.068,0c4.111,0,7.462-3.314,7.499-7.433C378.037,401.234,374.709,397.846,370.567,397.81z"/>
<path d="M370.567,420.941l-20-0.179c-0.023,0-0.046,0-0.068,0c-4.111,0-7.462,3.314-7.499,7.433
	c-0.037,4.142,3.291,7.53,7.433,7.566l20,0.179c0.023,0,0.046,0,0.068,0c4.111,0,7.462-3.314,7.499-7.433
	C378.037,424.366,374.709,420.978,370.567,420.941z"/>
<path d="M370.567,444.073l-20-0.179c-0.023,0-0.046,0-0.068,0c-4.111,0-7.462,3.314-7.499,7.433
	c-0.037,4.142,3.291,7.53,7.433,7.566l20,0.179c0.023,0,0.046,0,0.068,0c4.111,0,7.462-3.314,7.499-7.433
	C378.037,447.498,374.709,444.11,370.567,444.073z"/>
<path d="M453.567,374.678l-20-0.179c-0.023,0-0.046,0-0.068,0c-4.111,0-7.462,3.314-7.499,7.433
	c-0.037,4.142,3.291,7.53,7.433,7.566l20,0.179c0.023,0,0.046,0,0.068,0c4.111,0,7.462-3.314,7.499-7.433
	C461.037,378.102,457.709,374.714,453.567,374.678z"/>
<path d="M453.567,397.81l-20-0.179c-0.023,0-0.046,0-0.068,0c-4.111,0-7.462,3.314-7.499,7.433c-0.037,4.142,3.291,7.53,7.433,7.566
	l20,0.179c0.023,0,0.046,0,0.068,0c4.111,0,7.462-3.314,7.499-7.433C461.037,401.234,457.709,397.846,453.567,397.81z"/>
<path d="M453.567,420.941l-20-0.179c-0.023,0-0.046,0-0.068,0c-4.111,0-7.462,3.314-7.499,7.433
	c-0.037,4.142,3.291,7.53,7.433,7.566l20,0.179c0.023,0,0.046,0,0.068,0c4.111,0,7.462-3.314,7.499-7.433
	C461.037,424.366,457.709,420.978,453.567,420.941z"/>
<path d="M433.567,443.895c-0.023,0-0.046,0-0.068,0c-4.111,0-7.462,3.314-7.499,7.433c-0.037,4.142,3.291,7.53,7.433,7.566l20,0.179
	c0.023,0,0.046,0,0.068,0c4.111,0,7.462-3.314,7.499-7.433c0.037-4.142-3.291-7.53-7.433-7.566L433.567,443.895z"/>
<circle cx="351.33" cy="358.55" r="7.5"/>
<circle cx="434.33" cy="358.55" r="7.5"/>
<path d="M32.701,255.662c0.705,25.255,11.213,43.852,11.66,44.631c1.385,2.414,3.906,3.763,6.502,3.763
	c1.261,0,2.54-0.319,3.714-0.988c3.592-2.049,4.843-6.626,2.804-10.223c-1.405-2.478-32.108-58.352,22.899-102.58l0.392,8.264
	c0.19,4.017,3.506,7.146,7.486,7.145c0.12,0,0.24-0.002,0.361-0.008c4.138-0.196,7.333-3.709,7.137-7.847l-1.068-22.534
	c-0.158-3.337-2.505-6.167-5.755-6.941l-21.336-5.079c-4.028-0.959-8.074,1.53-9.033,5.559s1.529,8.074,5.559,9.033l5.988,1.426
	C38.489,205.061,32.112,234.529,32.701,255.662z"/>
<path d="M419.486,177.196c0.149,0.105,14.979,10.77,24.555,30.056c11.248,22.654,10.455,47.054-2.309,72.667l-3.829-7.35
	c-1.914-3.674-6.443-5.099-10.117-3.186c-3.673,1.914-5.1,6.443-3.186,10.117l10.424,20.007c1.31,2.514,3.896,4.035,6.649,4.035
	c0.492,0,0.99-0.049,1.486-0.149l21.499-4.342c4.061-0.82,6.688-4.776,5.867-8.836c-0.819-4.06-4.776-6.683-8.836-5.867
	l-6.034,1.219c17.797-36.626,11.222-66.051,1.82-84.986c-11.235-22.629-28.577-35.1-29.31-35.62
	c-3.379-2.396-8.061-1.6-10.457,1.778C415.313,170.118,416.108,174.799,419.486,177.196z"/>
<g>
</g>
<g>
</g>
<g>
</g>
<g>
</g>
<g>
</g>
<g>
</g>
<g>
</g>
<g>
</g>
<g>
</g>
<g>
</g>
<g>
</g>
<g>
</g>
<g>
</g>
<g>
</g>
<g>
</g>
</svg>
