<svg height="512pt" viewBox="0 0 512 512" width="512pt" xmlns="http://www.w3.org/2000/svg"><path d="m90 75c0 8.285156-6.714844 15-15 15s-15-6.714844-15-15 6.714844-15 15-15 15 6.714844 15 15zm0 0" fill="#bfe1ff"/><g fill="#2864f0"><path d="m150 75c0 8.285156-6.714844 15-15 15s-15-6.714844-15-15 6.714844-15 15-15 15 6.714844 15 15zm0 0"/><path d="m211 75c0 8.285156-6.714844 15-15 15s-15-6.714844-15-15 6.714844-15 15-15 15 6.714844 15 15zm0 0"/><path d="m226 482h-151c-8.285156 0-15-6.714844-15-15s6.714844-15 15-15h151c8.28125 0 15 6.714844 15 15s-6.71875 15-15 15zm0 0"/><path d="m437 482h-151c-8.28125 0-15-6.714844-15-15s6.71875-15 15-15h151c8.285156 0 15 6.714844 15 15s-6.714844 15-15 15zm0 0"/><path d="m467 211c-8.285156 0-15-6.714844-15-15v-61c0-8.285156 6.714844-15 15-15s15 6.714844 15 15v61c0 8.285156-6.714844 15-15 15zm0 0"/><path d="m45 211c-8.285156 0-15-6.714844-15-15v-61c0-8.285156 6.714844-15 15-15s15 6.714844 15 15v61c0 8.285156-6.714844 15-15 15zm0 0"/><path d="m452 331v15c0 8.269531-6.730469 15-15 15h-362c-8.269531 0-15-6.730469-15-15v-15s-30-23.285156-30-15v30c0 24.8125 20.1875 45 45 45h166v46c0 8.285156 6.714844 15 15 15s15-6.714844 15-15v-46h166c24.8125 0 45-20.1875 45-45v-30c0-8.285156-30 15-30 15zm0 0"/><path d="m437 90h-151c-8.285156 0-15-6.714844-15-15s6.714844-15 15-15h151c8.285156 0 15 6.714844 15 15s-6.714844 15-15 15zm0 0"/></g><path d="m90 256c0 8.285156-6.714844 15-15 15s-15-6.714844-15-15 6.714844-15 15-15 15 6.714844 15 15zm0 0" fill="#bfe1ff"/><path d="m150 256c0 8.285156-6.714844 15-15 15s-15-6.714844-15-15 6.714844-15 15-15 15 6.714844 15 15zm0 0" fill="#2864f0"/><path d="m211 256c0 8.285156-6.714844 15-15 15s-15-6.714844-15-15 6.714844-15 15-15 15 6.714844 15 15zm0 0" fill="#2864f0"/><path d="m437 271h-151c-8.285156 0-15-6.714844-15-15s6.714844-15 15-15h151c8.285156 0 15 6.714844 15 15s-6.714844 15-15 15zm0 0" fill="#2864f0"/><path d="m467 150h-422c-24.8125 0-45-20.1875-45-45v-60c0-24.8125 20.1875-45 45-45h422c24.8125 0 45 20.1875 45 45v60c0 24.8125-20.1875 45-45 45zm-422-120c-8.269531 0-15 6.730469-15 15v60c0 8.269531 6.730469 15 15 15h422c8.269531 0 15-6.730469 15-15v-60c0-8.269531-6.730469-15-15-15zm0 0" fill="#65b1fc"/><path d="m467 331h-422c-24.8125 0-45-20.1875-45-45v-60c0-24.8125 20.1875-45 45-45h422c24.8125 0 45 20.1875 45 45v60c0 24.8125-20.1875 45-45 45zm-422-120c-8.269531 0-15 6.730469-15 15v60c0 8.269531 6.730469 15 15 15h422c8.269531 0 15-6.730469 15-15v-60c0-8.269531-6.730469-15-15-15zm0 0" fill="#65b1fc"/><path d="m256 512c-24.8125 0-45-20.1875-45-45s20.1875-45 45-45 45 20.1875 45 45-20.1875 45-45 45zm0-60c-8.269531 0-15 6.730469-15 15s6.730469 15 15 15 15-6.730469 15-15-6.730469-15-15-15zm0 0" fill="#00c8c8"/><path d="m467 512c-24.8125 0-45-20.1875-45-45s20.1875-45 45-45 45 20.1875 45 45-20.1875 45-45 45zm0-60c-8.269531 0-15 6.730469-15 15s6.730469 15 15 15 15-6.730469 15-15-6.730469-15-15-15zm0 0" fill="#00c8c8"/><path d="m45 512c-24.8125 0-45-20.1875-45-45s20.1875-45 45-45 45 20.1875 45 45-20.1875 45-45 45zm0-60c-8.269531 0-15 6.730469-15 15s6.730469 15 15 15 15-6.730469 15-15-6.730469-15-15-15zm0 0" fill="#00c8c8"/></svg>